<svg xmlns="http://www.w3.org/2000/svg" id="svg14" width="64" height="64" version="1.1"><defs/><g id="g12" fill="none" fill-rule="evenodd"><path id="path4" fill="#3a76f0" fill-opacity="1" d="M21 18.9l-2.7-3.3s.9-2.3 3-4.1c-9-4-21.5 1-21.3-2.3.5-7.5 16.3-9.5 22.6 1 1.3-.7 3-1 5-1l3 3.4A24.9 24.9 0 1121 19zM1 9c-.1 1.8 11-2 20.9 1.7-3.8-6.5-12-7-12.7-6.9-.7 0-7.8.7-8.2 5.3zm0 0"/><path id="path6" fill="#fff" fill-opacity=".3" d="M35.2 26.3L34 29.9l4.4 4.4v-6.2zm.4 1.2l-.7 2 2.9 3.2-.2-4.3zm7.5-1.1L39.8 28v6.2l4.4-4.3zm5.6 5.6L45 31l-4.4 4.4h6.2zm0 8l-1.8-3.4h-6.2l4.3 4.5zm-5.8 5.5l1.2-3.5-4.4-4.5v6.3zm-7.9 0l3.3-1.7v-6.3L34 42zm-5.6-5.7l3.6 1.1 4.4-4.3-6.2-.1zm.1-8l1.7 3.4h6.3L33 30.8zm13.1-4.3l-2 1-.2 4.2 3-3.1zm5 5l-2.1-.7-3.2 2.8 4.2-.2zm-.1 7l-1-2-4.2-.2 3.1 2.9zm-5 4.9l.7-2-2.8-3.3.1 4.3zm-7 0l2-1 .2-4.3-2.9 3.2zm-4.9-5l2 .7 3.2-2.9-4.2.2zm0-7l1 2 4.3.2-3.2-3zM39 17a1 1 0 100-2 1 1 0 000 2zm13.5 5.5A1 1 0 1054 21a1 1 0 00-1.4 1.4zM58.1 36a1 1 0 102 0 1 1 0 00-2 0zm-5.6 13.4a1 1 0 101.4 1.4 1 1 0 00-1.4-1.4zM39.1 55a1 1 0 100 2 1 1 0 000-2zm-13.5-5.6a1 1 0 10-1.4 1.4 1 1 0 001.4-1.4zM20 36a1 1 0 10-2 0 1 1 0 002 0zm5.6-13.5a1 1 0 10-1.4-1.4 1 1 0 001.4 1.4zm6.1 7.4s.7.7 1.4 0c.7-.6 0-1.3 0-1.3v-4.8s0-1-1-1-1 1-1 1v2.8l-1.4-1.4v-2.4s0-.5-.5-.5-.5.5-.5.5v1.4l-1-1s-.7-.7-1.4 0c-.7.6 0 1.3 0 1.3l1 1H26s-.4 0-.4.5.4.5.4.5h2.4l1.4 1.5H27s-1 0-1 1c0 .9 1 .9 1 .9zm-2.1 7s1 0 1-1-1-1-1-1l-3.4-3.3s-.7-.7-1.3 0c-.7.7 0 1.4 0 1.4l2 2h-2.1l-1.7-1.7s-.3-.3-.6 0c-.4.3 0 .7 0 .7l1 1H22s-1 0-1 1c0 .9 1 .9 1 .9h1.4l-1 1s-.3.3 0 .6c.4.4.7 0 .7 0l1.7-1.6h2l-2 2s-.6.6 0 1.3c.7.7 1.4 0 1.4 0zm3.4 6.4s.8-.7 0-1.4c-.6-.7-1.3 0-1.3 0h-4.8s-1 0-1 1 1 1 1 1h2.8l-1.4 1.4h-2.4s-.4 0-.4.5.4.5.4.5h1.4l-1 1s-.7.7 0 1.4 1.3 0 1.3 0l1.1-1V49s0 .5.5.5.5-.5.5-.5v-2.3l1.4-1.5V48s0 1 1 1 1-1 1-1zm7 2.1s0-1-1-1c-.9 0-.9 1-.9 1l-3.3 3.4s-.7.6 0 1.3c.6.7 1.3 0 1.3 0l2-2v2l-1.7 1.7s-.3.4 0 .7c.4.4.7 0 .7 0l1-1V53s0 1 1 1 1-1 1-1v-1.5l1 1s.2.4.6 0c.3-.3 0-.7 0-.7L40 50.2v-2l2 2s.7.6 1.4 0c.6-.8 0-1.4 0-1.4zm6.5-3.4l-.1-.1s-.7-.7-1.4 0c-.6.7 0 1.4 0 1.4h.1V48s0 1 1 1 1-1 1-1v-2.8l1.4 1.5V49s0 .5.4.5c.5 0 .5-.5.5-.5v-1.4l1 1s.7.8 1.4 0c.7-.6 0-1.3 0-1.3l-1-1h1.4s.5 0 .5-.5-.5-.5-.5-.5h-2.4L48.4 44h2.8s1 0 1-1-1-1-1-1zm2-7s-1 0-1 1c0 .9 1 .9 1 .9l3.4 3.3s.7.7 1.4 0c.6-.7 0-1.3 0-1.3l-2-2h2l1.7 1.6s.3.4.7 0c.3-.3 0-.6 0-.6l-1-1h1.5s1 0 1-1-1-1-1-1h-1.5l1-1s.3-.3 0-.6c-.4-.3-.7 0-.7 0L53.3 35h-2l2-2s.6-.7 0-1.4c-.7-.7-1.4 0-1.4 0zm-3.4-6.5s-.7.8 0 1.4c.6.7 1.3 0 1.3 0h4.8s1 0 1-1-1-1-1-1h-2.8l1.4-1.4h2.4s.5 0 .5-.5c0-.4-.5-.4-.5-.4h-1.4l1-1s.7-.8 0-1.4c-.7-.7-1.3 0-1.3 0l-1 1v-1.4s0-.5-.6-.5c-.4 0-.4.5-.4.5v2.4L47 26.6v-2.8s0-1-1-1c-.9 0-.9 1-.9 1zm-7-2s0 1 1 1 1-1 1-1l3.3-3.4s.6-.7 0-1.4c-.7-.7-1.4 0-1.4 0l-2 2v-2l1.7-1.7s.3-.3 0-.7c-.4-.3-.7 0-.7 0l-1 1v-1.5s0-1-1-1c-.9 0-.9 1-.9 1v1.5l-1-1s-.3-.3-.7 0c-.3.4 0 .7 0 .7l1.7 1.7v2l-2-2s-.7-.7-1.3 0c-.7.7 0 1.4 0 1.4zm0 0"/></g><g id="g857" transform="translate(-75.3 -16)"><g id="black" transform="matrix(.95926 0 0 .95926 -.3 2.5)"><g id="xmas" transform="translate(-600 -700)"><g id="whatsapp" transform="translate(600 700)"><path id="Rectangle-38" fill="#fff" fill-opacity=".3" fill-rule="evenodd" d="M36.9 24.8l-1.2 3.7 4.6 4.6v-6.5zm.5 1.2l-.7 2.1 3 3.3-.3-4.4zm7.8-1.2l-3.5 1.8v6.5l4.6-4.6zm5.8 5.9l-3.7-1.2-4.6 4.6h6.5zm0 8.3l-1.8-3.5h-6.5l4.6 4.6zm-5.9 5.8l1.2-3.7-4.6-4.6V43zm-8.3 0l3.5-1.8v-6.5l-4.6 4.6zM31 38.9l3.7 1.2 4.6-4.6h-6.5zm0-8.3l1.8 3.5h6.5l-4.6-4.6zM44.7 26l-2 1-.2 4.5 3-3.3zm5.1 5.2l-2.1-.7-3.3 3 4.5-.2zm0 7.3l-1-2-4.5-.2 3.3 3zm-5.2 5.1l.7-2.1-3-3.3.2 4.5zm-7.3 0l2-1 .2-4.5-3 3.3zm-5.1-5.2l2.1.7 3.3-3-4.5.2zm0-7.3l1 2 4.5.2-3.3-3z" class="st1" clip-rule="evenodd"/><path id="Oval-159" fill="#fff" fill-opacity=".3" fill-rule="evenodd" d="M40.9 15a1 1 0 000-2 1 1 0 00-1 1c0 .6.4 1 1 1zM55 20.7c.4.4 1 .4 1.4 0 .4-.4.4-1 0-1.4a1 1 0 00-1.4 0c-.4.4-.4 1.1 0 1.4zm5.9 14.1a1 1 0 002 0c0-.6-.5-1-1-1-.6 0-1 .4-1 1zm-5.8 14a1 1 0 000 1.4c.4.4 1 .4 1.4 0 .4-.4.4-1 0-1.4-.3-.4-1-.4-1.4 0zm-14 5.9a1 1 0 000 2 1 1 0 000-2zM27 49a1 1 0 00-1.4 0 1 1 0 000 1.4c.4.4 1 .4 1.4 0 .4-.4.4-1 0-1.4zm-5.9-14a1 1 0 00-2 0 1 1 0 002 0zm5.8-14.1c.4-.4.4-1 0-1.4a1 1 0 00-1.4 0 1 1 0 000 1.4c.3.4 1 .4 1.4 0z" class="st1" clip-rule="evenodd"/><path id="Rectangle-46" fill="#fff" fill-opacity=".3" fill-rule="evenodd" d="M33.3 28.6c.1.1.8.8 1.5.1.7-.7 0-1.4 0-1.4l-.1-.1v-4.9s0-1-1-1-1 1-1 1v2.9l-1.5-1.5v-2.5s0-.5-.5-.5-.5.5-.5.5v1.5L29 21.6s-.7-.7-1.4 0 0 1.4 0 1.4l1.1 1.1h-1.5s-.5 0-.5.5.5.5.5.5h2.5l1.5 1.5h-2.9s-1 0-1 1 1 1 1 1zm-2.2 7.3c.1 0 1.1 0 1.1-1s-1-1-1-1h-.1l-3.5-3.5s-.7-.7-1.4 0 0 1.4 0 1.4l2.1 2h-2.1l-1.7-1.7s-.4-.4-.7 0c-.3.4 0 .7 0 .7l1 1h-1.5s-1 0-1 1 1 1 1 1h1.5l-1 1s-.4.4 0 .7c.4.4.7 0 .7 0l1.7-1.7h2.1l-2 2.1s-.7.7 0 1.4 1.4 0 1.4 0zm3.6 6.7c.1-.1.8-.8.1-1.5-.7-.7-1.4 0-1.4 0l-.1.1h-4.9s-1 0-1 1 1 1 1 1h2.9l-1.5 1.5h-2.5s-.5 0-.5.5.5.5.5.5h1.5l-1.1 1.1s-.7.7 0 1.4 1.4 0 1.4 0l1.1-1.1v1.5s0 .5.5.5.5-.5.5-.5v-2.5l1.5-1.5v2.9s0 1 1 1 1-1 1-1zm7.4 2.1c0-.1 0-1.1-1-1.1s-1 1-1 1v.1l-3.5 3.5s-.7.7 0 1.4 1.4 0 1.4 0l2-2.1v2.1l-1.7 1.7s-.4.4 0 .7c.4.4.7 0 .7 0l1-1v1.5s0 1 1 1 1-1 1-1V51l1 1s.4.4.7 0c.4-.4 0-.7 0-.7L42 49.6v-2.1l2.1 2s.7.7 1.4 0 0-1.4 0-1.4zm6.6-3.6c0-.1-.7-.8-1.4-.1-.7.7 0 1.4 0 1.4l.1.1v4.9s0 1 1 1 1-1 1-1v-2.9l1.5 1.5v2.5s0 .5.5.5.5-.5.5-.5V47l1.1 1.1s.7.7 1.4 0 0-1.4 0-1.4l-1.1-1.1h1.5s.5 0 .5-.5-.5-.5-.5-.5h-2.5l-1.5-1.5h2.9s1 0 1-1-1-1-1-1zm2.2-7.3c-.1 0-1.1 0-1.1 1s1 1 1 1h.1l3.5 3.5s.7.7 1.4 0 0-1.4 0-1.4l-2.1-2h2.1l1.7 1.7s.4.4.7 0c.4-.4 0-.7 0-.7l-1-1h1.5s1 0 1-1-1-1-1-1h-1.5l1-1s.4-.4 0-.7c-.4-.4-.7 0-.7 0l-1.7 1.7h-2.1l2-2.1s.7-.7 0-1.4-1.4 0-1.4 0zm-3.6-6.7c-.1.1-.8.8-.1 1.5.7.7 1.4 0 1.4 0l.1-.1h4.9s1 0 1-1-1-1-1-1h-2.9l1.5-1.5h2.5s.5 0 .5-.5-.5-.5-.5-.5h-1.5l1.1-1.1s.7-.7 0-1.4-1.4 0-1.4 0l-1.1 1.1v-1.5s0-.5-.5-.5-.5.5-.5.5v2.5l-1.5 1.5v-2.9s0-1-1-1-1 1-1 1zm-7.4-2.2c0 .1 0 1.1 1 1.1s1-1 1-1v-.1l3.5-3.5s.7-.7 0-1.4-1.4 0-1.4 0l-2 2.1V20l1.7-1.7s.4-.4 0-.7c-.4-.4-.7 0-.7 0l-1 1v-1.5s0-1-1-1-1 1-1 1v1.5l-1-1s-.4-.4-.7 0c-.4.4 0 .7 0 .7L40 20v2.1l-2.1-2s-.7-.7-1.4 0 0 1.4 0 1.4z" class="st1" clip-rule="evenodd"/></g></g></g><g id="soical" transform="scale(1.06667)"><g id="g829_1_" transform="matrix(.05557 0 0 .05557 4 3.5)"><path id="path817_1_" fill="#fff" d="M1801.8 581.8l5.1 20.8c-20.3 5-39.7 13-57.6 23.8l-11-18.4a230.8 230.8 0 0163.5-26.2zm110 0l-5 20.8c20.2 5 39.6 13 57.5 23.8l11.1-18.4a232.7 232.7 0 00-63.6-26.2zm-251.3 104a228 228 0 00-26.3 63.5l20.8 5c5-20.2 13-39.6 23.8-57.5zM1649 804.3c0-10.4.8-20.8 2.4-31.1l-21.3-3.3a226 226 0 000 68.7l21.3-3.2a215 215 0 01-2.4-31.1zm326.2 196.2l-11-18.3a206.8 206.8 0 01-57.5 23.8l5.1 20.8a227.4 227.4 0 0063.4-26.3zm89.3-196.2c0 10.4-.8 20.8-2.4 31l21.3 3.3a226 226 0 000-68.7l-21.3 3.3c1.6 10.3 2.4 20.7 2.4 31zm14.7 55l-20.8-5.1c-5 20.3-13 39.7-23.8 57.7l18.4 11a226.6 226.6 0 0026.2-63.6zM1888 1009.7a209.2 209.2 0 01-62.2 0l-3.2 21.3c22.7 3.5 46 3.5 68.6 0zm136.1-82.2a208.6 208.6 0 01-44 44l12.8 17.3a230 230 0 0048.6-48.4zM1980 637a206.3 206.3 0 0144 44l17.3-13a233.7 233.7 0 00-48.4-48.3zm-290.4 44a206.3 206.3 0 0144-44l-12.9-17.3a229 229 0 00-48.4 48.4zm363.5 4.7l-18.4 11a206.8 206.8 0 0123.8 57.5l20.8-5.1a232.7 232.7 0 00-26.2-63.4zm-227.4-87c20.6-3 41.6-3 62.2 0l3.2-21.2a225.4 225.4 0 00-68.6 0zm-125 395.8l-44.5 10.2 10.3-44.3-20.9-5-10.3 44.4a21.4 21.4 0 0016 25.8c3.2.7 6.6.7 9.8 0l44.3-10.2zm-50.6-58.2l21 4.8 7.2-30.7a204.4 204.4 0 01-23-56.4l-20.9 5c4.7 19 11.8 37.4 21.1 54.6zm100.3 46.6l-30.7 7.2 5 21 22.5-5.3a227.2 227.2 0 0054.5 21l5.1-20.7a203.7 203.7 0 01-56.2-23.3zm106.4-365a186.2 186.2 0 00-157.5 285.4l-18 76.4 76.4-18c87 54.8 194.8 23.6 256.8-58.2 71.3-94.3 13.3-283.8-157.7-285.5"/></g></g></g></svg>