<svg xmlns="http://www.w3.org/2000/svg" height="64" width="64"><g fill="none" fill-rule="evenodd"><path d="M3.196 0h57.608A3.193 3.193 0 0164 3.196v57.608A3.193 3.193 0 0160.804 64H3.196A3.193 3.193 0 010 60.804V3.196A3.193 3.193 0 013.196 0z" fill="#1a1a1a"/><path d="M20.646 14.933h22.708a5.718 5.718 0 015.713 5.713v22.708a5.718 5.718 0 01-5.713 5.713H20.646a5.718 5.718 0 01-5.713-5.713V20.646a5.718 5.718 0 015.713-5.713zm20.897 14.223h4.68v14.198a2.874 2.874 0 01-2.87 2.868H20.647a2.874 2.874 0 01-2.868-2.868V29.156h4.679A9.957 9.957 0 0022.044 32c0 5.498 4.458 9.956 9.956 9.956 5.498 0 9.956-4.458 9.956-9.956 0-.988-.144-1.943-.413-2.844zM32 39.11a7.111 7.111 0 100-14.222 7.111 7.111 0 000 14.222zm5.689-19.924c0-.778.614-1.41 1.409-1.41h5.715c.778 0 1.41.614 1.41 1.41v5.715c0 .778-.614 1.41-1.41 1.41h-5.715c-.778 0-1.41-.615-1.41-1.41z" fill="#fff"/></g></svg>