<svg xmlns="http://www.w3.org/2000/svg" height="64" width="64"><g fill="none" fill-rule="evenodd"><path d="M3.196 0h57.608A3.193 3.193 0 0164 3.196v57.608A3.193 3.193 0 0160.804 64H3.196A3.193 3.193 0 010 60.804V3.196A3.193 3.193 0 013.196 0z" fill="#1a1a1a"/><path d="M23.342 46.745V27.226h-6.033v19.519zm0-26.438c-.036-1.746-1.2-3.076-3.091-3.076-1.892 0-3.128 1.33-3.128 3.076 0 1.71 1.2 3.078 3.055 3.078h.036c1.928 0 3.128-1.369 3.128-3.078zm9.842 26.438V35.624c0-.595.043-1.19.218-1.615.479-1.19 1.568-2.421 3.396-2.421 2.395 0 3.898 1.36 3.898 4.036v11.12h6.073V35.327c0-6.116-3.265-8.963-7.62-8.963-3.571 0-5.139 1.997-6.01 3.356l.044-2.61h-6.062c.087 1.868 0 19.636 0 19.636z" fill="#fff"/></g></svg>