<svg xmlns="http://www.w3.org/2000/svg" height="60" width="60"><g fill="none" fill-rule="evenodd"><path d="M1.196-2h57.608A3.193 3.193 0 0162 1.196v57.608A3.193 3.193 0 0158.804 62H1.196A3.193 3.193 0 01-2 58.804V1.196A3.193 3.193 0 011.196-2z" fill="#1a1a1a"/><path d="M43.016 28.74h4.277c-.132-1.163-.968-2.017-2.054-2.017-1.223 0-1.958.782-2.223 2.017zm-6.554 3.773c1.553-.019 1.936-1.637 1.936-2.818 0-1.496-.635-2.745-1.936-2.763-1.423-.02-1.957 1.32-1.957 2.763 0 1.305.47 2.818 1.957 2.818zm16.632-6.51c0-1.472-1.144-2.662-2.56-2.662-.732 0-1.388.317-1.853.828a6.48 6.48 0 00-7.662.026 2.656 2.656 0 00-3.32-.325c-1-1.856-2.908-3.109-5.098-3.109-2.004 0-3.768 1.044-4.826 2.636a4.754 4.754 0 00-3.481-1.528c-.903 0-1.746.257-2.47.704-.018-1.793-1.417-3.24-3.144-3.24-1.74 0-3.148 1.466-3.148 3.27l.008.127a6.596 6.596 0 00-3.897.57A3.367 3.367 0 0010 22.871c-1.91 0-3.467 1.615-3.467 3.606 0 1.055.441 1.998 1.133 2.658a7.87 7.87 0 00-.028.656c0 3.945 3.076 7.14 6.869 7.14 1.473 0 2.84-.485 3.957-1.305 1.008 1.432 2.633 2.368 4.468 2.368.047 0 .09-.004.132-.008.531 1.562 1.954 2.68 3.636 2.68 1.7 0 3.144-1.147 3.653-2.74.585 1.153 1.742 1.936 3.08 1.936 1.67 0 3.065-1.227 3.402-2.86.24.033.487.056.735.056 1.363 0 2.6-.537 3.542-1.413a6.475 6.475 0 003.754 1.2c3.696 0 6.69-3.117 6.69-6.96 0-.474-.043-.94-.133-1.387.975-.377 1.671-1.35 1.671-2.494zm-3.492 3.102c0 .869-.251 1.092-1.072 1.092h-5.514c0 1.34.835 2.316 2.255 2.316 1.84 0 1.84-1.253 2.825-1.253.585 0 1.004.522 1.004.992 0 1.528-2.359 2.24-3.83 2.24-2.774 0-4.144-1.588-4.556-3.37-.369 1.868-1.545 3.37-3.635 3.37-1.119 0-1.954-.469-2.405-1.285h-.036v3.389c0 .835-.485 1.27-1.22 1.27s-1.219-.435-1.219-1.27V27.14l-2.742 8.083c-.584 1.737-1.255 2.643-2.793 2.643-1.086 0-1.538-.556-1.538-1.167 0-.68.47-1.026 1.122-1.026h.25c.317 0 .668-.014.851-.797l-2.539-7.528c-.09-.272-.157-.477-.207-.649-.058.079-.122.15-.198.232l-1.803 1.965 2.542 3.545c.082.12.25.4.25.816 0 .645-.5 1.234-1.153 1.234-.603 0-.922-.312-1.104-.589L20.83 30.51l-.853.783v1.932c0 .832-.484 1.267-1.22 1.267-.738 0-1.222-.435-1.222-1.267v-.936c-.437 1.499-2.068 2.203-3.643 2.203-2.204 0-4.043-1.025-4.043-2.277 0-.556.3-1.06.985-1.06 1.054 0 1.155 1.566 2.958 1.566.868 0 1.42-.402 1.42-.92 0-.645-.534-.75-1.402-.977l-1.437-.362c-1.42-.365-2.524-.977-2.524-2.68 0-2.066 1.972-2.834 3.66-2.834 1.853 0 3.728.768 3.728 1.931 0 .593-.387 1.112-1.021 1.112-.954 0-.986-1.164-2.524-1.164-.853 0-1.405.242-1.405.783 0 .59.552.73 1.304.903l1.019.246c1.172.275 2.53.756 2.925 1.964v-7.93c0-.83.484-1.267 1.222-1.267.736 0 1.22.436 1.22 1.267v5.771l2.706-3.128c.251-.279.57-.488.936-.488.398 0 .82.269 1.025.656a1.168 1.168 0 011.05-.656c.653 0 1.105.384 1.252.958l1.574 5.928h.032l1.489-5.752c.168-.646.501-1.134 1.172-1.134.577 0 .91.298 1.086.604.147-.391.473-.604 1-.604.72 0 1.104.421 1.104 1.2v.4h.036c.402-1.077 1.388-1.6 2.57-1.6 1.743 0 3.299 1.137 3.719 3.512.473-2.147 2.06-3.512 4.46-3.512 2.807 0 4.413 2.07 4.413 4.157zm.756-3.974h.477s.003 0 .366 1.1l.34-1.1h.473v1.6H51.7s-.003 0-.003-1.134l-.377 1.133h-.262s-.003 0-.38-1.122v1.122h-.319v-1.599zm-1.434.294v-.294h1.258v.294h-.458v1.305h-.34v-1.305h-.46z" fill="#fff"/></g></svg>