<svg xmlns="http://www.w3.org/2000/svg" height="64" width="64"><g fill="none" fill-rule="evenodd"><path d="M3.196 0h57.608A3.193 3.193 0 0164 3.196v57.608A3.193 3.193 0 0160.804 64H3.196A3.193 3.193 0 010 60.804V3.196A3.193 3.193 0 013.196 0z" fill="#1a1a1a"/><path d="M43.789 19.666c-1.29-1.466-3.127-2.4-5.16-2.434-3.905-.065-7.071 3.234-7.071 7.369 0 .586.063 1.159.183 1.708-5.876-.381-11.086-3.441-14.573-8.053a7.82 7.82 0 00-.957 3.78c0 2.62 1.248 4.945 3.145 6.318a6.759 6.759 0 01-3.202-.978v.095c0 3.658 2.436 6.727 5.67 7.442a6.658 6.658 0 01-3.192.108c.9 3 3.51 5.189 6.605 5.261-2.42 2.009-5.469 3.205-8.781 3.198a13.467 13.467 0 01-1.687-.109c3.13 2.147 6.845 3.397 10.838 3.398 13.005.004 20.116-11.314 20.116-21.13 0-.322-.007-.642-.02-.961a14.543 14.543 0 003.528-3.794c-1.268.572-2.63.952-4.06 1.11a7.25 7.25 0 003.108-4.06 13.574 13.574 0 01-4.49 1.732z" fill="#fff"/></g></svg>