<svg xmlns="http://www.w3.org/2000/svg" height="64" width="64"><g fill="none" fill-rule="evenodd"><path d="M3.196 0h57.608A3.193 3.193 0 0164 3.196v57.608A3.193 3.193 0 0160.804 64H3.196A3.193 3.193 0 010 60.804V3.196A3.193 3.193 0 013.196 0z" fill="#1a1a1a"/><path d="M52.497 23.54s-.4-2.819-1.627-4.06c-1.555-1.63-3.299-1.637-4.098-1.733-5.724-.414-14.31-.414-14.31-.414h-.019s-8.586 0-14.31.414c-.8.096-2.543.104-4.098 1.732-1.227 1.242-1.626 4.061-1.626 4.061s-.41 3.31-.41 6.62v3.104c0 3.31.41 6.62.41 6.62s.399 2.819 1.626 4.06c1.555 1.63 3.6 1.577 4.51 1.748 3.273.314 13.907.412 13.907.412s8.596-.014 14.32-.427c.8-.096 2.543-.103 4.098-1.733 1.227-1.241 1.627-4.06 1.627-4.06s.408-3.31.408-6.62V30.16c0-3.31-.408-6.62-.408-6.62zM28.23 37.024l-.002-11.493 11.052 5.766z" fill="#fff"/></g></svg>