<svg xmlns="http://www.w3.org/2000/svg" width="64" height="64"><defs/><g fill="none" fill-rule="evenodd"><path fill="#20a0e1" d="M3.2 0h57.6C62.6 0 64 1.4 64 3.2v57.6c0 1.8-1.4 3.2-3.2 3.2H3.2A3.2 3.2 0 010 60.8V3.2C0 1.4 1.4 0 3.2 0z"/><path fill="#000" fill-opacity=".4" d="M63 1c.6.5 1 1.3 1 2.2v57.6c0 1.8-1.4 3.2-3.2 3.2H3.2c-.9 0-1.7-.4-2.3-1z"/></g><path fill="#fff" stroke-width=".1" d="M45.7 20.9l-5.3 25c-.4 1.7-1.5 2.1-3 1.3l-8-6-3.9 3.8c-.4.4-.8.8-1.6.8l.6-8.2L39.4 24c.7-.6-.1-1-1-.3L19.9 35.4l-8-2.5c-1.7-.5-1.7-1.7.4-2.6l31.1-12c1.5-.5 2.7.4 2.3 2.6z"/></svg>