<svg xmlns="http://www.w3.org/2000/svg" width="64" height="64"><g style="fill:none;fill-rule:evenodd;stroke:none;stroke-width:1"><path d="M903 500h54a3 3 0 0 1 3 3v54a3 3 0 0 1-3 3h-54a3 3 0 0 1-3-3v-54a3 3 0 0 1 3-3Z" style="fill:#424242" transform="matrix(1.06667 0 0 1.06667 -960 -533.3)"/><path d="M959.1 500.9c.6.5.9 1.3.9 2.1v54a3 3 0 0 1-3 3h-54a3 3 0 0 1-2.1-.9z" style="fill:#000;fill-opacity:.4" transform="matrix(1.06667 0 0 1.06667 -960 -533.3)"/></g><path d="M35.5 29.6 48 15.2h-3L34.2 27.7l-8.6-12.5h-10l13 19-13 15.1h3L30 36 39 49.3h10L35.4 29.6Zm-4 4.7-1.3-1.9-10.6-15h4.6l8.5 12.1 1.3 2 11 15.7h-4.5l-9-12.9Z" style="fill:#fff;stroke-width:.0278402"/></svg>