<svg xmlns="http://www.w3.org/2000/svg" width="64" height="64" version="1.0"><defs/><path fill="#ca2028" d="M32 0a32 32 0 00-12.8 61.3c-.1-2.2 0-5 .5-7.3l4.1-17.5s-1-2-1-5c0-4.8 2.8-8.3 6.2-8.3 2.9 0 4.3 2.2 4.3 4.8 0 2.9-1.9 7.3-2.8 11.3-.8 3.4 1.7 6.2 5 6.2 6 0 10.2-7.8 10.2-17 0-7-4.8-12.3-13.4-12.3-9.7 0-15.7 7.3-15.7 15.3 0 2.8.8 4.8 2.1 6.3.6.7.7 1 .5 1.8l-.7 2.6c-.2.8-.9 1-1.6.8-4.5-1.8-6.5-6.7-6.5-12.2 0-9.1 7.6-20 22.8-20 12.2 0 20.3 8.8 20.3 18.3 0 12.5-7 22-17.3 22-3.4 0-6.7-2-7.8-4l-2.2 8.7c-.7 2.5-2 5-3.3 6.9A31.9 31.9 0 0064 32 32 32 0 0032 0z"/></svg>