<svg xmlns="http://www.w3.org/2000/svg" id="Layer_1" width="64" height="64" version="1.1" xml:space="preserve"><defs/><g id="g8" transform="matrix(.13169 0 0 .13169 -1.7 -1.7)"><path id="path4" fill="#25d366" d="M256 13A243 243 0 0052.7 389.1l-31.3 106 110.1-30.5A243 243 0 10256 13z"/><path id="path6" fill="#fff" d="M389.5 322.7c-.3-3.2-2.2-6-5.1-7.3l-58.9-27c-2.2-1-4.9-.5-6.5 1.4l-26.6 30a7.3 7.3 0 01-8.3 2 188.9 188.9 0 01-94.3-85c3.7-2.5 13.8-10 18.3-23.9l.1-.2a40.5 40.5 0 00-.9-26.4c-5.3-14.1-15.9-41.4-20-45.6l-1.5-1.4c-3-2.7-6.9-4.2-11-4.4l-4.5-.1c-4.6-.1-8.7-.1-11.7.3a30.2 30.2 0 00-18.6 11.7 79.1 79.1 0 00-14 25.4l-.9 2.9a71.5 71.5 0 001.6 43.4 236.2 236.2 0 0021.4 45.2 250.1 250.1 0 0048.3 57 230.8 230.8 0 0059.7 42.6c25.8 12.4 49.2 17 64.9 18.9a71.6 71.6 0 0047.3-12.8 50.2 50.2 0 0020.9-33.2v-.3c.7-5.1.6-9.5.3-13.2z"/></g></svg>