<svg xmlns="http://www.w3.org/2000/svg" width="64" height="64"><defs/><g fill="none" fill-rule="evenodd"><path fill="#ca4638" d="M32 64a32 32 0 100-64 32 32 0 000 64z"/><path fill="#fff" d="M44.5 30.8h-25c-4 0-7.2 2.9-7.2 6.9v6.8c0 4 3.2 7.2 7.2 7.2h25c4 0 7.2-3.2 7.2-7.2v-6.8c0-4-3.2-7-7.2-7zm-20.1 5.6H22v11.1h-2.3V36.4h-2.4v-2h7.1zM30.6 48h-2v-1l-1.3.8-1.2.3c-.5 0-.8-.1-1-.4-.3-.3-.4-.7-.4-1.3v-8h2v7.3c0 .3 0 .4.2.5l.4.2.6-.2.6-.5v-7.3h2V48zm8.6-2.3c0 .7-.1 1.2-.4 1.6-.4.4-.8.8-1.5.8-.4 0-1.3 0-1.6-.2l-.9-.6v.7h-2V34.7h2v4.5c.3-.3.6-.6.9-.7.3-.2 1.2-.2 1.5-.2.7 0 1.2-.1 1.5.3.4.4.5 1 .5 1.8v5.3zm7.6-2.4h-4V45c0 .5 0 .8.2 1 .1.2.4.3.7.3.3 0 .6 0 .7-.2.2-.2.2-.6.2-1.1v-.5h2.2v.5c0 1-.3 1.7-.8 2.2-.5.5-1.3.8-2.3.8a3 3 0 01-2.2-.8 3 3 0 01-.8-2.2v-4.3c0-.8.3-1.5.8-2 .6-.6 1.4-.8 2.3-.8 1 0 1.7.2 2.2.7.5.5.8 1.2.8 2.1v2.5zm-3-3.6c-.4 0-.6 0-.8.2l-.2.9v1h1.8v-1c0-.4 0-.7-.2-.9-.1-.2-.4-.2-.7-.2zm-8.1 0a1 1 0 00-.5.2l-.4.3v6l.5.3.5.1c.2 0 1 0 1.1-.2l.2-.7v-5c0-.3 0-.5-.2-.7l-1.2-.2zm2.6-11.3c.4 0 .8-.1 1.3-.4l1.3-1v1.2H43v-11h-2.2v8.3a3 3 0 01-.7.6l-.7.3c-.2 0-.3 0-.4-.2l-.2-.6v-8.5h-2.2v9.3c0 .7.1 1.2.4 1.5.3.3.6.5 1.2.5zm-6.6.1c1 0 1.8-.3 2.4-.8.5-.6.8-1.3.8-2.2v-5.8c0-.8-.3-1.5-.9-2-.5-.6-1.3-.8-2.2-.8-1 0-1.9.2-2.5.7-.6.5-.9 1.2-.9 2v5.8c0 1 .3 1.7.9 2.3.6.5 1.4.8 2.4.8zm-1-9c0-.2.1-.4.3-.5.2-.2.4-.2.7-.2.3 0 .5 0 .7.2.2.1.2.3.2.6v6c0 .3 0 .6-.2.7a1 1 0 01-.7.3c-.3 0-.6-.1-.7-.3a1 1 0 01-.3-.7v-6zm-8 8.7h2.6v-7.1l3-8.8h-2.6l-1.6 6H24l-1.7-6h-2.5l3 9v7z"/></g></svg>