<svg xmlns="http://www.w3.org/2000/svg" width="64" height="64"><defs/><g fill="none" fill-rule="evenodd"><path fill="#346da6" d="M32 64a32 32 0 100-64 32 32 0 000 64z"/><path fill="#000" fill-opacity=".4" d="M54.6 9.4A31.9 31.9 0 0132 64c-8.8 0-16.8-3.6-22.6-9.4z"/><path fill="#fff" d="M23.3 46.7V27.2h-6v19.5zm0-26.4c0-1.7-1.2-3-3-3a3 3 0 00-3.2 3 3 3 0 003 3h.1a3 3 0 003.1-3zm9.9 26.4v-11c0-.7 0-1.3.2-1.7.5-1.2 1.6-2.4 3.4-2.4 2.4 0 3.9 1.3 3.9 4v11.1h6V35.3c0-6-3.2-9-7.6-9-3.5 0-5 2-6 3.4v-2.6h-6v19.6z"/></g></svg>