<svg xmlns="http://www.w3.org/2000/svg" width="64" height="64"><defs/><g fill="none" fill-rule="evenodd"><path fill="#3498db" d="M32 64a32 32 0 100-64 32 32 0 000 64z"/><path fill="#000" fill-opacity=".4" d="M54.6 9.4A31.9 31.9 0 0132 64c-8.8 0-16.8-3.6-22.6-9.4z"/><path fill="#fff" d="M47.5 32h5c-.1-1.5-1.1-2.4-2.4-2.4-1.4 0-2.3.9-2.6 2.3zM40 36.2c1.8 0 2.2-1.9 2.2-3.3 0-1.7-.7-3.2-2.2-3.2-1.7 0-2.3 1.5-2.3 3.2 0 1.5.5 3.3 2.3 3.3zm19.4-7.6a3 3 0 00-3-3.1 3 3 0 00-2.2 1 7.6 7.6 0 00-9 0 3.1 3.1 0 00-3.8-.4 6.8 6.8 0 00-6-3.6 6.8 6.8 0 00-5.6 3 5.5 5.5 0 00-7-.9c0-2-1.6-3.8-3.6-3.8s-3.7 1.7-3.7 3.8v.2a8 8 0 00-4.5.7 4 4 0 00-2-.5c-2.2 0-4 1.8-4 4.2 0 1.2.5 2.3 1.3 3v.8c0 4.6 3.6 8.4 8 8.4 1.8 0 3.3-.6 4.7-1.6a6.4 6.4 0 005.3 2.8 4.5 4.5 0 004.3 3.1c2 0 3.6-1.3 4.2-3.2a4 4 0 003.6 2.3c2 0 3.6-1.4 4-3.3h.9a6 6 0 004-1.6c1.3.8 2.9 1.4 4.5 1.4a8 8 0 007.8-8.2c0-.5 0-1-.2-1.6 1.2-.4 2-1.6 2-2.9zm-4 3.6c0 1-.4 1.3-1.3 1.3h-6.5c0 1.6 1 2.7 2.6 2.7 2.2 0 2.2-1.5 3.3-1.5.7 0 1.2.7 1.2 1.2 0 1.8-2.7 2.6-4.5 2.6-3.2 0-4.8-1.8-5.3-4-.4 2.3-1.8 4-4.2 4-1.3 0-2.3-.5-2.8-1.5v4c0 1-.6 1.5-1.5 1.5-.8 0-1.4-.5-1.4-1.5V30l-3.2 9.4c-.7 2-1.5 3-3.3 3-1.2 0-1.8-.6-1.8-1.3 0-.8.6-1.2 1.3-1.2h.3c.4 0 .8 0 1-1l-3-8.7-.2-.8-.2.3-2.1 2.3 3 4.1.2 1c0 .7-.5 1.4-1.3 1.4-.7 0-1-.3-1.3-.7l-2.7-4-1 1V37c0 1-.5 1.5-1.4 1.5-.9 0-1.4-.5-1.4-1.5v-1c-.5 1.7-2.4 2.5-4.3 2.5-2.6 0-4.7-1.2-4.7-2.6 0-.7.3-1.3 1.1-1.3 1.3 0 1.4 1.9 3.5 1.9 1 0 1.7-.5 1.7-1.1 0-.8-.7-.9-1.7-1.2l-1.7-.4c-1.6-.4-3-1.1-3-3.1 0-2.4 2.4-3.3 4.4-3.3 2.1 0 4.3.9 4.3 2.2 0 .7-.4 1.3-1.2 1.3-1 0-1.1-1.3-3-1.3-1 0-1.6.3-1.6.9 0 .7.7.8 1.6 1l1.2.3c1.3.3 3 1 3.4 2.3V25c0-1 .5-1.5 1.4-1.5.9 0 1.4.5 1.4 1.5v6.7l3.2-3.7c.3-.3.6-.5 1-.5.5 0 1 .3 1.3.7.2-.4.7-.7 1.2-.7.8 0 1.3.4 1.5 1.1l1.8 7 1.8-6.8c.2-.8.6-1.3 1.3-1.3.7 0 1.1.3 1.3.7.2-.5.6-.7 1.2-.7.8 0 1.3.5 1.3 1.4v.4c.5-1.2 1.6-1.8 3-1.8 2 0 3.9 1.3 4.3 4 .6-2.4 2.5-4 5.3-4 3.2 0 5.1 2.4 5.1 4.8zm.8-4.6h.5l.5 1.3.4-1.3h.5v1.9h-.3v-1.4l-.5 1.4H57l-.4-1.4v1.4H56v-2zm-1.7.3v-.3H56v.3h-.6v1.6H55V28z"/></g></svg>