<svg xmlns="http://www.w3.org/2000/svg" width="64" height="64"><g style="fill:none;fill-rule:evenodd;stroke:none;stroke-width:1"><path d="M30 60a30 30 0 1 0 0-60 30 30 0 0 0 0 60Z" style="fill:#262626" transform="scale(1.06667)"/><path d="M51.2 8.8A30 30 0 0 1 30 60a30 30 0 0 1-21.2-8.8Z" style="fill:#000;fill-opacity:.4" transform="scale(1.06667)"/></g><path d="m35.2 29.4 12.4-14.5h-3L34 27.5l-8.7-12.6h-9.9l13 19-13 15.2h3l11.3-13.3 9.2 13.3h9.9L35.2 29.4Zm-4 4.7-1.4-2-10.5-15h4.5l8.5 12.2 1.3 1.9 11 15.8h-4.5l-9-13Z" style="fill:#fff;stroke-width:.0278402"/></svg>