<svg xmlns="http://www.w3.org/2000/svg" width="64" height="64"><defs/><g fill="none" fill-rule="evenodd"><path fill="#ce6f2d" d="M32 64a32 32 0 100-64 32 32 0 000 64z"/><path fill="#000" fill-opacity=".4" d="M54.6 9.4A31.9 31.9 0 0132 64c-8.8 0-16.8-3.6-22.6-9.4z"/><path fill="#fff" d="M23.2 25.8h-9.7v-1.2V44c0 5.3 5.4 5.3 5.4 5.3h25s5.3 0 5.3-5.3V24.6H38.8a9.2 9.2 0 00-14.8 0H13.5V19c0-3.4 2.2-4.6 3.7-5v7h1.3v-7.3h25.4s5.3 0 5.3 5.3v7h-9.6c.6 1.2 1 2.7 1 4.3a9.2 9.2 0 11-17.4-4.4zM42.8 16c-1.2 0-2.2 1-2.2 2.1v2c0 1.1 1 2 2.2 2h1.8c1.2 0 2.2-1 2.2-2v-2c0-1.1-1-2.1-2.2-2.1zm-20.6-2.5V21h1.2v-7.4zm-2.5 0V21h1.2v-7.4zm11.7 24a7.4 7.4 0 100-14.7 7.4 7.4 0 000 14.7zm0-2.4a5 5 0 100-9.9 5 5 0 000 9.9z"/></g></svg>