<svg xmlns="http://www.w3.org/2000/svg" viewBox="0 0 64 64"><defs/><g fill-rule="evenodd" clip-rule="evenodd"><path fill="#3a76f0" d="M32 64c17.7 0 32-14.3 32-32S49.7 0 32 0 0 14.3 0 32s14.3 32 32 32z"/><path fill-opacity=".4" d="M54.61 9.39A31.96 31.96 0 119.38 54.62L54.62 9.38z"/></g><path fill="#fff" d="M27.3 13.01l.44 1.78a17.76 17.76 0 00-4.9 2.03l-.95-1.57a19.32 19.32 0 015.42-2.24zm9.4 0l-.44 1.78c1.73.43 3.38 1.11 4.9 2.03l.96-1.57a19.39 19.39 0 00-5.42-2.24zM15.25 21.9a19.35 19.35 0 00-2.24 5.41l1.78.44a17.76 17.76 0 012.04-4.91l-1.58-.94zm-.98 10.1c0-.88.07-1.77.2-2.65l-1.8-.28c-.3 1.95-.3 3.92 0 5.87l1.8-.28a17.7 17.7 0 01-.2-2.65zm27.84 16.75l-.94-1.57c-1.52.93-3.18 1.61-4.9 2.04l.43 1.78c1.9-.48 3.73-1.23 5.4-2.25zM49.73 32c0 .89-.07 1.78-.2 2.65l1.8.28c.3-1.95.3-3.92 0-5.87l-1.8.28c.13.88.2 1.77.2 2.66zm1.26 4.69l-1.78-.44a17.73 17.73 0 01-2.03 4.92l1.57.94a19.39 19.39 0 002.24-5.42zM34.66 49.52c-1.76.27-3.55.27-5.32 0l-.27 1.82c1.94.3 3.92.3 5.86 0l-.27-1.82zm11.61-7a17.68 17.68 0 01-3.76 3.74l1.1 1.48a19.73 19.73 0 004.14-4.13l-1.48-1.1zm-3.76-24.8a17.7 17.7 0 013.76 3.77l1.48-1.1a19.7 19.7 0 00-4.14-4.14l-1.1 1.48zM17.73 21.5a17.7 17.7 0 013.76-3.76l-1.1-1.48a19.7 19.7 0 00-4.14 4.13l1.48 1.1zm31.02.4l-1.57.94c.92 1.52 1.6 3.18 2.03 4.9l1.78-.43a19.39 19.39 0 00-2.24-5.41zm-19.4-7.42c1.76-.26 3.55-.26 5.3 0l.28-1.8c-1.94-.3-3.92-.3-5.86 0l.27 1.8zM18.66 48.23l-3.78.88.88-3.79-1.78-.41-.89 3.78c-.23.98.38 1.97 1.37 2.2.27.07.56.07.83 0l3.79-.87-.42-1.79zm-4.3-4.96l1.78.41.61-2.62a17.5 17.5 0 01-1.97-4.81l-1.78.44c.4 1.62 1 3.18 1.8 4.65l-.45 1.93zm8.55 3.97l-2.62.61.41 1.8 1.93-.46c1.47.8 3.03 1.4 4.65 1.8l.44-1.78a17.6 17.6 0 01-4.8-1.98v.01zM32 16.11a15.9 15.9 0 00-13.45 24.34l-1.52 6.52 6.51-1.52c7.43 4.67 16.62 2 21.92-4.98C51.55 32.42 46.6 16.25 32 16.1"/></svg>