<svg xmlns="http://www.w3.org/2000/svg" width="64" height="64"><defs/><g fill="none" fill-rule="evenodd"><path fill="#4086cd" d="M32 64a32 32 0 100-64 32 32 0 000 64z"/><path fill="#000" fill-opacity=".4" d="M54.6 9.4A31.9 31.9 0 0132 64c-8.8 0-16.8-3.6-22.6-9.4z"/><path fill="#fff" d="M43.8 19.7a7 7 0 00-5.2-2.5c-3.9 0-7 3.3-7 7.4l.1 1.7a20 20 0 01-14.5-8 7.8 7.8 0 002.2 10.1c-1.2-.1-2.3-.4-3.2-1 0 3.7 2.4 6.8 5.6 7.5a6.7 6.7 0 01-3.2.1c1 3 3.5 5.2 6.6 5.3a13.6 13.6 0 01-10.4 3 19 19 0 0010.8 3.5c13 0 20.1-11.3 20.1-21.2v-1c1.4-1 2.6-2.2 3.5-3.7-1.2.6-2.6 1-4 1a7.3 7.3 0 003-4c-1.3.9-2.8 1.5-4.4 1.8z"/></g></svg>