<svg xmlns="http://www.w3.org/2000/svg" width="64" height="64"><defs/><g fill="none" fill-rule="evenodd"><path fill="#346da6" d="M3.2 0h57.6C62.6 0 64 1.4 64 3.2v57.6c0 1.8-1.4 3.2-3.2 3.2H3.2A3.2 3.2 0 010 60.8V3.2C0 1.4 1.4 0 3.2 0z"/><path fill="#000" fill-opacity=".4" d="M63 1c.6.5 1 1.3 1 2.2v57.6c0 1.8-1.4 3.2-3.2 3.2H3.2c-.9 0-1.7-.4-2.3-1z"/><path fill="#fff" d="M23.3 46.7V27.2h-6v19.5zm0-26.4c0-1.7-1.2-3-3-3a3 3 0 00-3.2 3 3 3 0 003 3h.1a3 3 0 003.1-3zm9.9 26.4v-11c0-.7 0-1.3.2-1.7.5-1.2 1.6-2.4 3.4-2.4 2.4 0 3.9 1.3 3.9 4v11.1h6V35.3c0-6-3.2-9-7.6-9-3.5 0-5 2-6 3.4v-2.6h-6v19.6z"/></g></svg>