<svg xmlns="http://www.w3.org/2000/svg" width="64" height="64"><defs/><g fill="none" fill-rule="evenodd"><path fill="#57ba63" d="M3.2 0h57.6C62.6 0 64 1.4 64 3.2v57.6c0 1.8-1.4 3.2-3.2 3.2H3.2A3.2 3.2 0 010 60.8V3.2C0 1.4 1.4 0 3.2 0z"/><path fill="#000" fill-opacity=".4" d="M63 1c.6.5 1 1.3 1 2.2v57.6c0 1.8-1.4 3.2-3.2 3.2H3.2c-.9 0-1.7-.4-2.3-1z"/><path fill="#fff" d="M32 49.3c-3 0-5.8-.8-8.3-2.1l-9.7 3 3.2-9.2a17.3 17.3 0 0115-26.2c9.5 0 17.3 7.7 17.3 17.2 0 9.6-7.8 17.3-17.4 17.3zm0-31.8c-8 0-14.6 6.5-14.6 14.5 0 3.2 1 6.2 2.8 8.5L18.4 46l5.6-1.7A14.6 14.6 0 0046.7 32c0-8-6.6-14.5-14.6-14.5zM41 36c-.1-.2-.4-.3-.9-.5l-2.9-1.4c-.4-.1-.6-.2-1 .3L34.9 36c-.2.3-.5.3-.9.1-.4-.2-1.8-.6-3.4-2a12.7 12.7 0 01-2.4-3c-.3-.4 0-.7.2-.9l.6-.7.4-.7c.2-.3.1-.6 0-.8L28 25c-.4-.9-.7-.7-1-.7h-.8c-.3 0-.7 0-1.1.5-.4.4-1.5 1.4-1.5 3.5s1.5 4.1 1.7 4.4c.2.3 3 4.7 7.3 6.4 4.4 1.7 4.4 1.1 5.1 1 .8 0 2.6-1 3-2 .3-1 .3-1.8.2-2z"/></g></svg>