<svg xmlns="http://www.w3.org/2000/svg" width="64" height="64"><defs/><g fill="none" fill-rule="evenodd"><path fill="#1a1a1a" d="M32 64a32 32 0 100-64 32 32 0 000 64z"/><path fill="#fff" d="M55 11.5a27.7 27.7 0 01-9.3 9.1c-3 1.7-6.2 3.3-10 4.6a172.7 172.7 0 013 6.5 38.1 38.1 0 0124 1.5c0 1 0 1.8-.2 2.7a18.6 18.6 0 00-2.9-1 36.8 36.8 0 00-20-.8c3.3 7.8 6 16 7.9 24.5L45 59.8c-2-8.6-4.6-17-8-25-3.9 1.3-7.8 3.4-11.5 6.4-4.6 3.6-9 8.4-13 14.5l-1-.7a31 31 0 01-1-.9c4.1-6.3 8.6-11.2 13.4-15 4-3 8-5.3 12.2-6.7a168.7 168.7 0 00-3-6.4C25 28.6 14.4 30 1.4 30.5V30l.2-2.2c12.5-.4 22.6-1.9 30.6-4.3a155.3 155.3 0 00-11.9-20l2.5-1A83.8 83.8 0 0126.3 8c2.8 4.4 5.6 9.4 8.3 14.8a49 49 0 009.7-4.4c3.3-2 5.7-4.2 7.2-6.3A12.5 12.5 0 0053 9.5a31 31 0 012 2z"/></g></svg>