<svg xmlns="http://www.w3.org/2000/svg" height="64" width="64"><g fill="none" fill-rule="evenodd"><path d="M3.196 0h57.608A3.193 3.193 0 0164 3.196v57.608A3.193 3.193 0 0160.804 64H3.196A3.193 3.193 0 010 60.804V3.196A3.193 3.193 0 013.196 0z" fill="#1a1a1a"/><path d="M34.943 41.69c7.046 0 11.826-6.557 11.826-15.334 0-6.636-5.507-12.818-13.874-12.818-10.414 0-15.664 7.622-15.664 13.977 0 3.849 1.426 7.272 4.488 8.548.502.21.951.007 1.097-.56.1-.392.342-1.383.447-1.795.147-.562.09-.758-.315-1.247-.882-1.065-1.445-2.44-1.445-4.389 0-5.654 4.142-10.715 10.79-10.715 5.884 0 9.12 3.67 9.12 8.574 0 6.451-2.797 11.896-6.95 11.896-2.293 0-4.008-1.936-3.46-4.31.658-2.834 1.936-5.894 1.936-7.94 0-1.83-.963-3.359-2.956-3.359-2.344 0-4.227 2.476-4.227 5.792 0 2.112.7 3.54.7 3.54l-2.82 12.192c-.382 1.654-.44 3.472-.386 5.009.161 1.378 1.496 2.5 2.654.988.814-1.328 1.69-3.006 2.143-4.688.27-.995 1.542-6.15 1.542-6.15.763 1.483 2.988 2.789 5.354 2.789z" fill="#fff"/></g></svg>