<svg xmlns="http://www.w3.org/2000/svg" height="64" width="64"><path d="M3.2 0h57.6A3.2 3.2 0 0164 3.2v57.6a3.2 3.2 0 01-3.2 3.2H3.2A3.2 3.2 0 010 60.8V3.2A3.2 3.2 0 013.2 0z" fill="#1a1a1a" fill-rule="evenodd"/><path d="M48.914 21.131l-5.292 24.967c-.404 1.761-1.45 2.204-2.92 1.372l-8.069-5.948-3.889 3.745c-.435.434-.793.793-1.624.793l.58-8.213 14.946-13.513c.656-.58-.138-.9-1.007-.32L23.154 35.65l-7.953-2.486c-1.731-.542-1.754-1.731.358-2.563l31.12-11.987c1.45-.542 2.708.32 2.235 2.516z" fill="#fff"/></svg>