<svg xmlns="http://www.w3.org/2000/svg" width="64" height="64"><defs/><g fill="#107bf4"><path d="M37.6 22H47v2.6h-9.4zM42.6 26.4c-8.7 0-8.7 8.6-8.7 8.6s-.6 8.6 8.7 8.6c0 0 7.7.5 7.7-6.1h-4s.2 2.6-3.6 2.6c0 0-4 .2-4-3.8h11.7s1.3-9.9-7.8-9.9zm3.5 6.8h-7.4s.5-3.5 4-3.5 3.4 3.5 3.4 3.5zM28.8 30.9s3.5-.3 3.5-4.3-2.9-6-6.4-6H14v22.5h11.8s7.1.3 7.1-6.6c0 0 .4-5.6-4.2-5.6zm-9.5-6.3H25.9s1.6 0 1.6 2.4-1 2.7-2 2.7h-6.2zm6.3 14.5h-6.3v-5.9h6.6s2.4 0 2.4 3c0 2.7-1.8 2.9-2.7 3z"/><path d="M32 0a32 32 0 100 64 32 32 0 000-64zm21.2 53.2a29.8 29.8 0 01-42.4 0 29.8 29.8 0 010-42.4 29.8 29.8 0 0142.4 0 29.8 29.8 0 010 42.4z"/></g></svg>