<svg xmlns="http://www.w3.org/2000/svg" width="64" height="64"><defs/><g fill="#e13076"><path d="M32 0a32 32 0 100 64 32 32 0 000-64zm21.2 53.2a29.8 29.8 0 01-42.4 0 29.8 29.8 0 010-42.4 29.8 29.8 0 0142.4 0 29.8 29.8 0 010 42.4z"/><path d="M32 14.6a17.6 17.6 0 100 35.2 17.6 17.6 0 000-35.2zm11.7 8A15 15 0 0147 32c-.2 0-5.3-1.1-10.5-.5l-.4-.8-1-2.1c6-2.5 8.4-6 8.5-6zM32 17a15 15 0 0110 3.7s-2.2 3.4-8 5.5c-2.5-4.7-5.4-8.5-5.6-8.8 1.2-.3 2.3-.4 3.6-.4zm-6.5 1.4c.2.3 3 4 5.6 8.7-7.2 2-13.5 1.9-14 1.9 1-4.7 4.2-8.6 8.4-10.6zM17 32.2v-.5c.2 0 7.7.2 15.5-2.2l1.2 2.6-.6.2a24 24 0 00-12.3 10A15 15 0 0117 32.2zm15 15a15 15 0 01-9.2-3.1s3-6.3 11.8-9.5h.1A63 63 0 0138 46.1a15 15 0 01-6 1.2zm8.5-2.5c-.1-.9-1-5.3-3-10.8a22 22 0 019.5.7c-.7 4.2-3 7.8-6.5 10.1z"/></g></svg>