<svg xmlns="http://www.w3.org/2000/svg" width="64" height="64"><defs/><path d="M32 0a32 32 0 100 64 32 32 0 000-64zm21.2 53.2a29.8 29.8 0 01-42.4 0 29.8 29.8 0 010-42.4 29.8 29.8 0 0142.4 0 29.8 29.8 0 010 42.4z"/><path d="M32 13.6a18.4 18.4 0 00-5.9 36c1 0 1.3-.5 1.3-1v-3.4C22.1 46.3 21 43 21 43c-.8-2.1-2-2.7-2-2.7-1.7-1.1.1-1 .1-1 1.9 0 2.8 1.8 2.8 1.8 1.7 2.8 4.4 2 5.4 1.5a4 4 0 011.2-2.4c-4.1-.5-8.4-2-8.4-9.1 0-2 .7-3.7 1.9-5-.2-.4-.8-2.3.2-4.8 0 0 1.5-.5 5 1.8a17.5 17.5 0 019.2 0c3.6-2.3 5.1-1.8 5.1-1.8 1 2.5.4 4.4.2 4.8 1.2 1.3 1.9 3 1.9 5 0 7-4.3 8.6-8.4 9 .6.6 1.2 1.8 1.2 3.5v5c0 .5.3 1 1.3 1a18.4 18.4 0 00-5.9-36z"/></svg>