<svg xmlns="http://www.w3.org/2000/svg" width="64" height="64"><defs/><path fill="#1a1a1a" d="M61.7 38.8A30 30 0 0027.1 2.7 17.5 17.5 0 002.9 26.3a30.1 30.1 0 0035 35.6 17.4 17.4 0 0025.8-15.4c0-2.7-.7-5.4-1.9-7.7zm-14 8c-1.3 1.9-3.4 3.5-6 4.6a24.5 24.5 0 01-9.4 1.6c-4.4 0-8-.7-10.8-2.2a14 14 0 01-5-4.4 9.6 9.6 0 01-1.9-5.5c0-1 .4-2 1.3-2.8.8-.8 1.8-1.2 3-1.2 1.1 0 2 .3 2.7 1 .7.5 1.3 1.4 1.8 2.5a15 15 0 001.7 3c.6.9 1.5 1.5 2.6 2 1 .5 2.5.8 4.3.8 2.5 0 4.6-.5 6.1-1.6 1.5-1 2.2-2.2 2.2-3.7 0-1.2-.4-2.2-1.1-2.9a8.3 8.3 0 00-3.3-1.8 63 63 0 00-5.5-1.3c-3.1-.7-5.7-1.5-7.9-2.4a13 13 0 01-5.1-3.8 9.4 9.4 0 01-2-6c0-2.3.7-4.3 2-6 1.4-1.8 3.4-3.2 6-4.1 2.4-1 5.4-1.4 8.7-1.4 2.7 0 5 .3 7 .9 2 .6 3.7 1.4 5 2.5 1.4 1 2.3 2.1 3 3.3.6 1.1.9 2.3.9 3.4 0 1-.4 2-1.2 2.9-.9.8-1.9 1.3-3.1 1.3-1.1 0-2-.3-2.6-.8a9.8 9.8 0 01-1.8-2.4 10 10 0 00-2.7-3.4c-1-.7-2.7-1.1-5-1.1-2.2 0-4 .4-5.3 1.3-1.2.8-1.8 1.7-1.8 2.9 0 .6.2 1.2.6 1.7.4.5 1 1 1.8 1.4l2.4 1 4.2 1c2.4.5 4.6 1 6.6 1.7 2 .6 3.7 1.4 5.2 2.3 1.4 1 2.5 2.2 3.4 3.6.8 1.5 1.2 3.2 1.2 5.3 0 2.5-.7 4.7-2.1 6.7z"/></svg>