<svg xmlns="http://www.w3.org/2000/svg" width="64" height="64"><defs/><g fill="#1a1a1a"><path d="M52.3 30.5H11.7C5.2 30.5 0 35.8 0 42.2v9.4c0 6.5 5.2 11.7 11.7 11.7h40.6c6.5 0 11.7-5.2 11.7-11.7v-9.4c0-6.4-5.2-11.7-11.7-11.7zm-32 7.3h-3.9v18.8h-3.6V37.8H9v-3.2h11.2zm10.6 18.8h-3.2v-1.8a7 7 0 01-2 1.5c-.6.4-1.2.5-1.8.5-.7 0-1.3-.2-1.7-.7-.4-.5-.6-1.2-.6-2.2V40.4H25v12.4c0 .4 0 .7.2.9l.6.2 1-.3 1-.9V40.4h3.2zm11.7-3.3a4 4 0 01-.7 2.6c-.5.6-1.3.9-2.2.9a3.9 3.9 0 01-3.1-1.4v1.2h-3.3v-22h3.3v7.1a5 5 0 011.4-1.1c.5-.3 1-.4 1.5-.4 1 0 1.8.3 2.3 1 .6.7.8 1.7.8 3v9zM54 48.9h-6.2v3c0 .9 0 1.5.3 1.8.2.3.6.5 1 .5.6 0 1-.1 1.2-.4.2-.3.3-1 .3-1.9v-.7H54v.8c0 1.7-.4 3-1.3 3.8-.8.8-2 1.2-3.6 1.2-1.4 0-2.6-.4-3.4-1.3a5.2 5.2 0 01-1.3-3.7v-7.2c0-1.4.5-2.6 1.4-3.5 1-.9 2.1-1.3 3.6-1.3 1.4 0 2.6.4 3.4 1.2.8.8 1.2 2 1.2 3.6z"/><path d="M49.1 42.8c-.5 0-.9.2-1 .5-.3.3-.4.7-.4 1.4v1.7h2.8v-1.7c0-.7 0-1.1-.3-1.4-.2-.3-.6-.5-1-.5zM38 42.8l-.7.1-.7.5v10.1c.3.3.5.5.8.6l.8.2c.3 0 .6-.1.8-.4.2-.2.3-.6.3-1v-8.5c0-.5-.1-1-.3-1.2-.3-.3-.6-.4-1-.4zM16.3.8H12l5 14.6v9.5h4v-10L26 .7h-4.1l-2.6 9.6h-.3zM31.4 25.3c1.7 0 3-.4 4-1.3.9-.8 1.4-2 1.4-3.6v-9.2c0-1.3-.5-2.4-1.5-3.3-1-.9-2.2-1.3-3.7-1.3a6 6 0 00-4 1.2 4 4 0 00-1.4 3.3v9.3c0 1.5.5 2.7 1.4 3.6 1 .9 2.3 1.3 3.8 1.3zM30 11c0-.4.2-.7.4-1 .3-.2.7-.3 1.1-.3.5 0 1 .1 1.2.3.3.3.4.6.4 1v9.7c0 .5-.1.9-.4 1.1-.3.3-.7.4-1.2.4-.4 0-.8 0-1-.4-.3-.2-.5-.6-.5-1V11zM42.3 25.2c.7 0 1.4-.2 2-.6.8-.4 1.5-1 2.2-1.7v2H50V7h-3.6v13.6a5 5 0 01-1.1 1l-1 .3c-.4 0-.7 0-.8-.3-.2-.1-.2-.5-.2-.9V7h-3.7v15c0 1 .2 1.8.7 2.3.4.6 1 .9 1.9.9z"/></g></svg>