<svg xmlns="http://www.w3.org/2000/svg" width="64" height="64"><defs/><g fill="none" fill-rule="evenodd"><path fill="#1a1a1a" d="M21 18.9l-2.7-3.3s.9-2.3 3-4.1c-9-4-21.5 1-21.3-2.3.5-7.5 16.3-9.5 22.6 1 1.3-.7 3-1 5-1l3 3.4A24.9 24.9 0 1121 19zM1 9C.9 10.8 12 7 21.9 10.7c-3.8-6.5-12-7-12.7-6.9-.7 0-7.8.7-8.2 5.3zm0 0"/><path fill="#fff" fill-opacity=".3" d="M36.1 26.3L35 29.9l4.4 4.4v-6.2zm.5 1.2l-.7 2 2.8 3.2-.2-4.3zm7.5-1.1L40.7 28v6.2l4.5-4.3zm5.5 5.6L46.1 31l-4.5 4.4H48zm0 8l-1.7-3.4h-6.3l4.4 4.5zm-5.7 5.5l1.2-3.5-4.4-4.5-.1 6.3zm-8 0l3.4-1.7v-6.3L35 42zm-5.5-5.7l3.6 1.1 4.4-4.3-6.2-.1zm0-8l1.8 3.4h6.2l-4.3-4.4zm13.2-4.3l-2 1-.2 4.2 2.9-3.1zm4.9 5l-2-.7-3.3 2.8 4.3-.2zm0 7l-1-2-4.3-.2 3.2 2.9zm-5 4.9l.7-2-2.9-3.3.2 4.3zm-7 0l2-1 .2-4.3-3 3.2zm-5-5l2.1.7 3.2-2.9-4.3.2zm.1-7l1 2 4.2.2-3.1-3zm0 0M40 17a1 1 0 100-2 1 1 0 000 2zm13.5 5.5a1 1 0 101.4-1.4 1 1 0 00-1.4 1.4zM59.1 36a1 1 0 101.9 0 1 1 0 00-2 0zm-5.6 13.4a1 1 0 101.4 1.4 1 1 0 00-1.4-1.4zM40 55a1 1 0 100 2 1 1 0 000-2zm-13.5-5.6a1 1 0 10-1.3 1.4 1 1 0 001.3-1.4zM21 36a1 1 0 10-2 0 1 1 0 002 0zm5.5-13.5a1 1 0 10-1.3-1.4 1 1 0 001.3 1.4zm0 0M32.6 29.9s.8.7 1.4 0c.7-.6 0-1.3 0-1.3v-4.8s0-1-1-1-1 1-1 1v2.8l-1.4-1.4v-2.4s0-.5-.5-.5c-.4 0-.4.5-.4.5v1.4l-1-1s-.8-.7-1.4 0c-.7.6 0 1.3 0 1.3l1 1h-1.4s-.5 0-.5.5.5.5.5.5h2.4l1.4 1.5h-2.8s-1 0-1 1c0 .9 1 .9 1 .9zm-2 7s1 0 1-1-1-1-1-1l-3.4-3.3s-.7-.7-1.4 0 0 1.4 0 1.4l2 2h-2L24 33.3s-.3-.3-.7 0c-.3.3 0 .7 0 .7l1 1h-1.5s-1 0-1 1c0 .9 1 .9 1 .9h1.5l-1 1s-.3.3 0 .6c.4.4.7 0 .7 0l1.7-1.6h2l-2 2s-.7.6 0 1.3c.7.7 1.4 0 1.4 0zm3.4 6.4s.7-.7 0-1.4c-.6-.7-1.3 0-1.3 0h-4.8s-1 0-1 1 1 1 1 1h2.8l-1.4 1.4h-2.4s-.5 0-.5.5.5.5.5.5h1.4l-1 1s-.7.7 0 1.4c.6.7 1.3 0 1.3 0l1-1V49s0 .5.5.5.5-.5.5-.5v-2.3l1.5-1.5V48s0 1 1 1c.9 0 .9-1 .9-1zm7 2.1s0-1-1-1-1 1-1 1l-3.3 3.4s-.7.6 0 1.3c.7.7 1.4 0 1.4 0l2-2v2l-1.7 1.7s-.3.4 0 .7c.3.4.7 0 .7 0l1-1V53s0 1 1 1c.9 0 .9-1 .9-1v-1.5l1 1s.3.4.6 0c.4-.3 0-.7 0-.7L41 50.2v-2l2 2s.6.6 1.3 0c.7-.8 0-1.4 0-1.4zm6.4-3.4v-.1s-.7-.7-1.4 0 0 1.4 0 1.4V48s0 1 1 1 1-1 1-1v-2.8l1.4 1.5V49s0 .5.5.5.5-.5.5-.5v-1.4l1 1s.7.8 1.4 0c.7-.6 0-1.3 0-1.3l-1-1H53s.5 0 .5-.5-.5-.5-.5-.5h-2.3L49.3 44h2.8s1 0 1-1-1-1-1-1zm2.1-7s-1 0-1 1c0 .9 1 .9 1 .9l3.4 3.3s.6.7 1.3 0c.7-.7 0-1.3 0-1.3l-2-2h2l1.7 1.6s.4.4.7 0c.4-.3 0-.6 0-.6l-1-1h1.5s1 0 1-1-1-1-1-1h-1.5l1-1s.4-.3 0-.6c-.3-.3-.7 0-.7 0L54.3 35h-2l2-2s.6-.7 0-1.4c-.8-.7-1.4 0-1.4 0zm-3.4-6.5H46s-.7.8 0 1.4c.7.7 1.4 0 1.4 0h4.7s1 0 1-1-1-1-1-1h-2.8l1.5-1.4H53s.5 0 .5-.5c0-.4-.5-.4-.5-.4h-1.4l1-1s.8-.8 0-1.4c-.6-.7-1.3 0-1.3 0l-1 1v-1.4s0-.5-.5-.5-.5.5-.5.5v2.4L48 26.6v-2.8s0-1-1-1-1 1-1 1zm-7-2s0 1 1 1c.9 0 .9-1 .9-1l3.3-3.4s.7-.7 0-1.4-1.3 0-1.3 0l-2 2v-2l1.6-1.7s.4-.3 0-.7c-.3-.3-.6 0-.6 0l-1 1v-1.5s0-1-1-1-1 1-1 1v1.5l-1-1s-.3-.3-.6 0c-.3.4 0 .7 0 .7l1.7 1.7v2l-2-2s-.7-.7-1.4 0 0 1.4 0 1.4zm0 0"/><g fill="#fff"><path d="M35.3 50.7V48C31 49 30 45.9 30 45.9c-.7-1.9-1.7-2.3-1.7-2.3-1.4-1 0-1 0-1 1.6.1 2.4 1.6 2.4 1.6 1.4 2.4 3.6 1.7 4.5 1.3.1-1 .5-1.7 1-2-3.4-.5-7-1.8-7-7.8 0-1.8.6-3.2 1.5-4.3-.1-.4-.6-2 .2-4.1 0 0 1.3-.5 4.2 1.6a14.4 14.4 0 017.7 0c3-2 4.2-1.6 4.2-1.6.9 2.1.3 3.7.2 4.1 1 1.1 1.6 2.5 1.6 4.3 0 6-3.6 7.3-7 7.7.5.5 1 1.5 1 3v4.3c0 .4.2.9 1 .7 6.1-2 10.5-8 10.5-15 0-8.6-6.9-15.7-15.3-15.7-8.5 0-15.4 7-15.4 15.8 0 7 4.4 12.8 10.5 15 .8 0 1-.4 1-.8zm0 0"/></g></g></svg>