<svg xmlns="http://www.w3.org/2000/svg" viewBox="0 0 64 64"><defs/><path d="M7.4 10.7c-.8 0-3.7 0-4 .2-.4.3-.3 6.7 0 6.7l1.1-.1c.2-.1 0-5 0-5.3s3.3-.1 3.7-.4c.4-.3-.1-1-.8-1zM8.5 26c.1 1 .5 1.4 1.2 2 .6.5 1.1.7 2 .7s6-.3 8.3-.8c2.3-.4 3.3-2.6 3.6-5.2S23 18 21 16.9s-5.6-1.4-7.3-1.3-4.1.6-4.6.7c-1.5.5-.6 8.6-.6 9.6zm3.8-6.1c.3-.4 1-1 2-1.2 1 0 6.2-.4 6.7.1s1.9 2.5 1.2 4.7-1.7 3-3.4 3.2l-6.2.6c-.9 0-.9.3-1-.1l-.2-6c0-.3.4-1 .9-1.3zm-3.4 9.9c0-.4-.5-.3-1-.4s-.4-2.6-.4-3c-.1-.5-1.4-.6-1.5-.2-.2.6.1 4 .3 4.5.1.5 1.1.2 2.2.1s.5-.6.4-1zm16-15.4c1.3 1.7 1 3.4 1.3 3.7.2.4.9.2 1.3 0s.4-2.3-1.4-4.4c-2.1-2.4-4.2-2.5-4.5-2.4-.4.1-.5 1-.2 1.2.2.3 2.1.1 3.5 1.9zM31 30.2l.7-2c.6-1.8 1.8-8 .7-12.2-1.1-4.2-6.8-7.1-9.4-8.4-2.6-1.2-12.6-.3-15.6 0-3 .2-6.9.2-7.3.8-.3.4.3 16.2.4 23.8.2 7.5 0 20.3 0 20.6l2.6 3.4c.4.2 1 0 2.7 0s7.6.5 12.2.7c4.6.3 8.7-.5 11.4-2.2 2.6-1.7 5.2-7.3 5.4-14.3.2-7.1-3.7-10.2-3.7-10.2zm.5 8.5c0-.1-.7-1.3-1-1.2-.4 0-.8.6-.7 1 0 .2 1.9 3 1.8 3.3 0 .3 0 1-.3.8-.2-.3-1.5-2.8-1.7-2.8s-.8.5-.6 1c.2.6 1.9 3.5 1.9 4 0 .3-.4 2-.5 1.7s-1.8-3.3-2-3.3-.8.8-.7 1c.1.4 2 3.4 2 3.6 0 .3-1 1.5-1.2 1.4s-1.7-3.7-2-3.7c-.2 0-1.1.3-1 .6.2.4 2 3.9 1.9 4 0 .3-.4.7-.6.6-.2 0-1.7-4-2-4-.3-.1-1.1.3-1 .5 0 .2 2.2 3.8 2 4-.1.2-.6.9-.9.6s-2-4.4-2.4-4.4c-.3 0-.9.5-.8.8.1.2 2.4 3.9 1.9 4-.5.2-1.1.2-1.2 0l-2.1-3.9c-.1-.1-1 0-.9.3 0 .3 2 3.6 1.7 3.7s-1.5 0-1.6-.2-1.5-3.6-1.8-3.7-1 .4-1 .7c.1.2 1.6 3 1.4 3h-1.5s-1.4-3-1.7-3.1c-.3-.1-1 .4-.9.6s1.5 2.3 1.3 2.3h-1.5c-.2-.2-1.4-3-1.7-3-.3 0-1 0-1 .5 0 .4 1.4 2.6 1.2 2.7h-1c-.3 0-1.4-2.8-1.7-2.8-.2 0-1 .3-1 .6s1.3 2.1 1 2.1-1.3.1-1.4 0c-.2-.1-1.3-2.8-1.4-2.8-.2 0-1.2.5-1 .6 0 .1 1 1.9.8 2s-1.5.1-1.7 0-.8-2.3-1-2.3c-.1 0-.8.4-.7.6s.5 1.8.4 1.8H2L2 34c-.1-5.9-.5-24.2-.4-24.5.1-.2 5.3-.6 9.4-.8s9.9-.6 12.2.5 7.2 4 6.9 9.1c-.3 5.1-1.5 8-2.5 8.9-1 .9-2.3 1-2.3 1.7s1.4.7 1.9 1.2c.4.4 3.3 3.4 3.4 3.8s0 .5-.1.6-.9.8-.6.9a8 8 0 011.7 2.2c0 .4 0 1.2-.1 1zm-8.8-5.2c-.5-.4-7-.8-9.4-.8s-4.6 0-4.9.6c-.1.4 0 12.5 0 12.8s.4.4 1.1.5h7.3c1.7.1 3.3.3 6-1s3.3-3 3.2-6.1a8.8 8.8 0 00-3.3-6zm1.8 7.9c-.2 1.8-2 3.5-3.8 3.7-1.9.3-6.2 0-7.3 0H12c0-.1-.2-7.5 0-8 .1-.4 2-.9 5.4-1.2 3.4-.2 4.8-.3 5.4.2.6.4 1.8 3.5 1.6 5.3zM41.7 22c.4.2 2.8 0 6-.2 3.3-.3 9.7-.2 10-.2.4 0 .3-4.6.2-5.5 0-.8-2.7-1.4-4.6-1.5-2-.1-12-.2-12.8 0-.8.3-.8 5-.5 5.5 0 0 1.2 1.7 1.7 1.9zm-.1-5.8c.2-.2 8.4-.3 10.4-.2s2.4.2 2.5.4.2 1.4 0 1.7c-.3.3-8.7.2-10.5.2s-2 .2-2.3 0-.2-2-.1-2.1zm21.1 27.4c-.3-.2-5.4-.2-5.8-.1s-.8 2-1.7 3.1c-1 1.1-3.5 1.3-4.3 1-.8-.3-2-4.8-2-5 .2-.2 11.8-.3 12.1-.3.3 0 1.6-2 1.7-2.2.1-.1.5-1.9.4-5-.1-3-.2-4-1.8-6.4s-5.5-4.2-7.9-4.5c-2.4-.2-6.6-.3-9.5 1a13.6 13.6 0 00-6.1 5.3c-1.2 2-2.4 6.5-2 10.3s2.4 8.8 4 10.6c1.8 1.9 5.4 4 9.4 4.2s7.3-.1 10.5-1.4c3.2-1.3 4.1-5.8 4.3-6.6.1-.7-1-3.7-1.3-4zm-13.2 8.6L47.7 49c-.3-.1-1 0-1.2.3-.2.2 1 2.6.6 2.5s-4.2-1.5-6.4-4.2a18.2 18.2 0 01-3.8-9.3c-.1-2.8 2-7.6 4.1-9.5s4.5-3.2 9.3-3.3c2 0 5 .5 7.6 2.2a7.6 7.6 0 013.5 4.8c.2 1 .4 2.4.2 2.3-.2 0-1-3.3-1.2-3.2-.2 0-.8.6-.8 1 0 .6 2 5 2 5.3l-.1 1.3c-.2 0-2-5-2.2-5s-1 .1-1 .7c.1.7 2 4.5 1.9 4.5-.2 0-.8.2-1 0-.4-.1-1.4-3.6-1.8-3.6-.3 0-.7.5-.7.7 0 .2 1.2 2.9 1 2.9h-.3s-1.2-2.8-1.4-2.8-.8.2-.8.5l1 2.5s-.4 0-.5-.2c-.1-.2-1-2.7-1.3-2.7-.2 0-.8.4-.7.7s.8 2.1.6 2.1c-.1 0-.6.2-.7 0-.1-.3-.9-2.5-1.2-2.5-.3 0-1.1.3-1 .5s.9 2 .7 2-7.3-.3-7.5 0c-.3.3-.6 3-.2 4.7s1.6 3.6 3.2 4.2l1.9.8 1 3.2h-1zm2.3 0a8.9 8.9 0 01-1.2-2.8c0-.3.8-.1 1 .1.3.2 1.5 2.6 1.3 2.7h-1.1zm2.7 0l-.4-.1c-.3-.2-1.4-2.4-1.4-2.6 0-.2.6-.3.9 0 .2.2 1 2.6 1 2.6zm2.7-1c-.2.2-1.3.9-1.5.6-.2-.2-1-2.8-1-3 0-.3.6-.6.9-.5s1.8 2.6 1.6 2.9zm1-.6c-.3 0-1.6-2.9-1.7-3.1 0-.3.2-.5.5-.4.2.2 1.8 3 1.7 3.3 0 .2-.3.3-.5.2zm1.2-1l-1.9-4.1c0-.3.3-.4.6-.4s2 3.8 2 3.9c0 0-.4.9-.7.6zM61 48c-.5 0-1.3-2.6-1.2-2.8 0-.2 1.7-.3 1.8-.1.2.2-.2 3-.6 3zm-12-13l7.6-.1c.4 0 .3-1.1.2-2.2-.1-1-1-3.4-4-3.9-3-.4-6 .7-7.2 2.1s-1.2 3.9-1 4c.5.2 2.5 0 4.3 0zm1-3.5a8 8 0 013.6-.4c.8.1 2.7 1.9 1.6 2.2-.2.1-6 .4-6.8.2-.3 0 .2-1.5 1.6-2zm-6.4-2.6c-.2-.1-2.5 2-3.6 4.1-1 2.1-1.6 5.3-1.3 5.4.4.2.4.1.7.1.3 0 .5-1.7 1.2-3.8.7-2 2-3 2.8-4.3.8-1.1.5-1.3.2-1.5z"/></svg>