<svg xmlns="http://www.w3.org/2000/svg" viewBox="0 0 64 64"><defs/><path d="M7.5 30.7c.6 0 7-.5 7.9-.8s.6-2.5.6-4.7.8-7.1.6-7.4-4.7-.9-5-.6c-2.6 1.2-5.7 9.3-5.8 11s1 2.5 1.7 2.5zm2.8-6.8a18 18 0 012.4-3.6c.5-.4 2.2 0 2.2 0s-.2 8.3-.5 8.4c-.4.1-5.1.5-5.4.2-.2-.3.5-3.5 1.3-5zm33.8-7.5c.3.4 1.6.3 2.3.1s2.8.3 3.6-.2c.9-.5.3-1.3-.6-2.5-.9-1.3-3.4-3.1-5.7-4.2s-3.6-.8-3.8-.4c-.2.6.9 1.6 1.4 2.3l2.8 5zm3.5-1.5c-.1.2-2.2.5-2.6.3s-1.7-3.4-1.8-3.6c0 0 4.5 3 4.4 3.3zM18.3 46c-.4-.2-3.6 1.4-3.5 1.9 0 .5 2.4 1.4 3 1.8.6.4 2.6 1.3 3 1.2.4 0 .1-.3-.3-1.1-.4-.9-1.8-3.6-2.2-3.8zm28.2-26.4c-1.3.3-.7 2.2-1 2.7-.1.1.2 6.8.9 7.7.6.8 6.5.6 7.1.5.7-.2 1-.6 1-2s-.4-7-1.1-8.4-5.6-.8-6.9-.5zm5.3 9c-.2.4-3.7.6-3.9.3s-.6-5-.6-5.4c0-.5 3.7-.4 4.1-.2.4.3.6 5.1.4 5.4zM4.6 26.4c.1-1-.7-1.3-1.3-.6s-.7 4.4-.3 7.5 3 8 3.2 8.2c.6.4 1-.2 1.2-.6.1-.4-1.2-2-2.5-5.6s-.4-7.9-.3-8.9zm11.5 7.5c-.2-.2-2.5 0-3.7 0-1.2.2-3 .2-3.7.1-.7 0-2.3 0-2.4.5-.2.8.4 3.2 1.5 5.6 1 2.4 2.3 4 3.5 4s2-1.3 3.4-2 2.7-.2 3-.7c.3-.5-1.4-7.3-1.6-7.5zm0 6.4c-.2.4-4 2-4.3 1.8S10 37.2 10 36.8c0-.5 4.8-1.1 5-1 .1 0 1.3 4 1.1 4.4zm6 4.7c-.3 1.4 4.2 7.9 4.5 8 .4 0 3 0 3.2-.2.4-.2.2-8.8-.3-9.3s-7.2 1-7.4 1.5zm6.4 6.7c-.5 0-.5.2-.9-.1a36 36 0 01-2.6-3.9c-.1-.2 2.7-2.2 3-1.8.4.4 1 5.8.5 5.8zM17.7 14.9c1 0 2.6-3.9 2.9-4.4.3-.5.4-1.3-.3-1.3s-6.5 4.1-6.7 4.4c-.5.7 3.1 1.3 4.1 1.3zm0-2.4c.1 0-.2 1-.4 1-.3 0-.5 0-.6-.2-.5-.5.8-.8 1-.8zm3 21.3c-.4.7.2 5.4.8 5.8s7.3.5 8.4.1c1.1-.3 1-5.1.3-5.9-.6-.7-9.3-.5-9.6 0zm7.8 4.4c-.4 0-4 .5-4.3 0-.2-.3 0-1.8.2-2.2 0-.3 4-.5 4.3 0 .2.5.2 2.2-.2 2.2zM26.6 7.7c-1.6 1-4.1 6.8-4.1 7.5 0 .7.7 1 1.4 1.1.6.2 5.4.8 6 .6s.6-1.4.6-2.7.6-6.2.3-6.6-3.1-.6-4.2.1zm2.5 6.4c0 .8 0 1.6-.4 1.6s-3.2 0-3.2-.4 1.7-4.7 3.9-5.5L29 14zm5.8 6.7c-.8.6-.6 8.7-.2 9.4.5.6 6.2.6 7-.1.9-.7-.4-8.6-1.1-9.2s-4.8-.8-5.7-.1zm4.6 8c-.4.2-2.5.3-2.7 0-.2-.4 0-5.1 0-5.4.1-.4 1.6 0 1.8.1.3 0 1.3 5.1 1 5.3zm7.7 4.4c-1 1.6-2.4 7.7-2 8.1.5.5 7.5 2.3 8.3 2 .8-.5 2.5-7.8 2-8.6s-7.8-2.3-8.3-1.5zm4.5 8.5a46 46 0 01-5.5-1.3c-.1-.2 1.3-4.1 1.5-4.4.2-.3 4.8.5 5 1.2.2.7-.7 4.5-1 4.5zM44 44.3c-.2.2-1.5 3.5-2 4.5s-1.6 2.6-.2 2.7c1.3 0 3-.9 5-2 1.9-1 4.1-2.5 4-3s-6.2-2.8-6.8-2.2zm-1 5.5c-.5-.2 1.2-3 1.3-3.2.2-.4 2.1.4 2.1.7 0 .4-3 2.7-3.5 2.5zM29.6 30.2c.9-.7.8-8.6.5-9.6-.3-1-6.8-1.7-7.4-1.4-2 .9-2.2 10.2-1.8 10.7.3.5 8 1 8.7.3zm-5.5-7.6c0-.4 3.9-.3 4.4.1.5.5.4 6.2-.1 6.4s-4.4.4-4.5-.2c-.2-.6.2-6 .2-6.3zm39.6 6.8c-.4-5.7-2.8-14.8-9.2-21S40.6 1 33.6 1C22 1 18.2 4.5 12.5 8.3S1.5 18.6.2 28s2 16.1 7.3 22 11.8 11.9 23.3 12.8c11.4 1 21.4-2.6 27.3-9.4s6.1-18.4 5.6-24zM62 30c-.5-.4-5-6.8-5.3-6.8s-.7 1-.5 1c.2.2 5.6 6.8 5.7 7.1s-.1 2.3-.2 2a47 47 0 00-4.9-6.1c-.4 0-.6.7-.6 1 0 .3 5.2 6.4 5.3 6.8 0 .4-.4 1.5-.4 1.5s-3.9-4.8-4.2-4.6c-.3.3-.5.8-.2 1.3s4 4.4 4 4.8c.1.3-.2 2-.5 1.6-.3-.4-2.5-3.8-2.8-3.7s-.8.4-.4 1.1l2.9 4c0 .3-.6 2.2-.7 2-.2 0-2.2-2.9-2.5-2.8s-.9.3-.7.7 2.6 3 2.6 3.3-.2 2-.6 1.7c-.4-.2-2.3-3.4-2.5-3.4-.1 0-1.2.4-.9 1 .3.4 2.7 3.2 2.7 3.4s-.4 1.5-.7 1.2c-.4-.2-2.2-3.3-2.6-3.3-.4 0-1.2.9-.6 1.2s2.4 3 2.4 3.3c0 .2-.9 1.3-1 1.2 0 0-2.1-3.5-2.5-3.6-.4 0-1.2.4-1 .7s2.8 3.6 2.7 3.9c-.2.3-.5 1-.9.5-.3-.3-2-3-2.3-3-.4-.2-1 .5-.7.9.3.4 2.4 3 2.2 3.2s-.7.7-1 .6c-.2-.2-2.1-3.4-2.4-3.3-.4 0-1 0-.7.8.3.7 2.5 3 2.3 3.3s-.9 1.1-1.3.9c-.4-.3-2.2-3.6-2.5-3.7s-1.3.5-1 1c.4.6 2.4 3.1 2.3 3.4s-.6 1.1-1 .7c-.3-.3-2.5-4-3-4-.4.1-1 .4-.8.9.3.5 3 3.5 2.6 3.7-.4.2-1.1.5-1.2.3-.1-.2-2.8-3.5-3.3-3.5s-1.2.4-1 .6c.3.2 2.8 3 2.6 3.2-.1 0-1.5.5-1.7.2-.2-.2-2-3.3-2.4-3.3-.5 0-1 .4-.9.6s1.8 2.7 1.7 2.7c0 .1-1.3.2-1.6-.1-.3-.3-1.2-2.3-1.6-2.3-.4 0-1.2.3-.9.7.4.4 1 1.8 1 1.9s-1 .5-1.3.2-1.3-2-1.7-2c-.5 0-1.1.2-.8.7.3.4.9 1.4.7 1.5-.1.2-9.7.2-13.7-1.7-4-2-7.9-4.8-10.6-7.6s-4.4-6-5.7-8.4-2-6.7-1.9-10.5.7-7.8 3-11.6 7.3-9 11-11.4 7.8-3.5 11.3-4.3 7.1-.7 8.1-.7c6.4-.3 12.7 1.9 16.8 5s3.1 3.9 3.2 4c0 .3 3 3.8 3.4 4.3s.9 2.2.7 2-2.8-3.8-3.4-3.6c-.7.3-1 .4-.4.8.5.4 5.4 6.2 5.8 7.1s.6 3.6.4 3.2c-.2-.3-4.7-7-5.2-6.8-.6.2-.8 0-.6.8.2.8 6.4 7.5 6.4 8s.5 3 0 2.6zm-20.6 5c-.3-1-6-1.6-6.4-1.2-.6.6-1.2 5.7-.6 6s5 .8 5.8.5c.7-.2 1.6-4.3 1.2-5.3zm-2.8 3.5c-.3.2-2.6.3-2.8 0-.2-.4 0-2.4.1-2.7 0-.4 2.5.1 2.8.5.4.4.2 2-.1 2.2zM38 17.4c.7 0 1.7.2 1.8-.4.1-.7-.5-3.6-2-5.9-1.4-2.3-2.7-3.8-3.2-3.5-.5.3-.6.8-.5 1.5 0 .8 0 7 .4 7.6s2.9.6 3.5.7zm-2-5.5c0-.3 1.4 3.8 1.2 3.9-.2 0-1 .1-1-.1-.2-.2-.3-3.4-.3-3.8zm-1.3 31.5c-.2.5-.3 9.3-.3 9.8 0 .4 1.3.6 2 .4.6-.2.7-.6 1.3-2.3.7-1.8 2.8-6.8 2.4-7.4-.5-.6-5.1-.9-5.4-.5zm1.2 8.4c-.2 0 .2-6.6.2-6.6.7-.3 2.3.2 2.3.4S36 52 35.9 51.8z"/></svg>