<svg xmlns="http://www.w3.org/2000/svg" viewBox="0 0 64 64"><defs/><path d="M62.8 26.5c-.6-4.6-2.5-8.1-5-12.6-2.4-4.5-6.9-7.7-10-10C44.6 1.8 40.3.8 36 .4s-9.4-.5-13 .5C18.4 2 15.2 3.4 12 6.4S6 12.4 4 15.9C2 19.3.4 24.6.1 27a32.8 32.8 0 006.7 22.2c2.8 4.5 7 7.3 11.6 10.1 4.7 2.9 14.6 5 18.3 4.5 3.8-.5 9-1.8 14.2-6a35.6 35.6 0 009.8-15.4 39.2 39.2 0 002.1-16zM55.4 46c-.2 0-2.2-3.7-2.3-4 0-.2.8-1.9 1-1.9l2.1 4s-.6 2-.8 2zm-7.8-24.5V21s.6-1.6.4-3l-.8-3.6s2.5 2 3.9 5 2.5 5.5 3 9.7.2 7.3-1.3 10.1-2.6 4.5-3.4 5.3c-.8.9-2.5 1.7-2.8 1.7s-.9-3.7-1.5-5c-.5-1-1.6-2.6-1.6-2.9 0 0 1.8-1.5 2.4-2.4.6-1 2.5-4.2 2.4-7.8 0-3.6-.6-6.2-.7-6.5zM57.1 43c-.2.2-2.7-4-2.5-4.2.2-.2.9-2.4 1-2.5s2.4 4 2.4 4.3c0 .3-.7 2.3-1 2.4zm3.1-11.3c-.3-.2-2.2-4.5-2.4-4.6-.3 0-.9.9-.7 1.3s2.6 4.5 2.7 4.9c0 .4-.2 2.4-.3 2 0-.2-2-4-2.2-4-.2 0-.8.9-.8 1l2.5 5c0 .4-.3 2.2-.5 1.9l-2.7-4.5s0-5.6-.2-8A22.4 22.4 0 0038.7 7.3a38.6 38.6 0 00-12.3-1c-4 .2-9.6 2.4-13.5 8a24.9 24.9 0 00-5.3 11.3c-1 4 0 10 .8 12.6a20 20 0 004.6 8.4 20.5 20.5 0 0012.3 5c.3 0 .1-3.3 0-3.6-.1-.4-.2-.6-1.1-.5-.8 0-2.4 0-3.4-.5-1-.4-1.8-1.3-2.4-2.4l-1.8-2.8c-.5-.4-1.4-1.3-1.3-1.4.1-.2 1.9-.4 3 0 1.2.4 3.3 1.7 4.1 2.3 1 .5 2 1.3 2.4 1.3.4 0 1.2-1.8 1.6-2.2.3-.5 1.1-2 .8-2.3-.4-.3-2.5-.4-3.5-.6a9 9 0 01-4.4-3.1 11 11 0 01-2-6.3 20 20 0 012.3-6.2c.4-.7.8-1.4.6-1.6a8.3 8.3 0 01-1.4-2.6c-.3-1 .6-3.3.7-3.4.2-.1 1.3.2 2.1.3.8.1 2.7.6 3.4 1 .7.5.9.8 1.3.8l4.4-1c1-.2 4.1-.6 5.3-.3 1.1.2 2.8 1.2 3.1 1 .3-.1 1-1.4 2.5-1.8 1.5-.4 4-.5 4.3-.3.3.3.7 3 .5 4.3-.3 1.3-.6 2.1-.4 2.5.2.3 1.3 2.8.7 5-.5 2.2-1.4 5.4-4 7.5-2.8 2-3.7 2.4-4 2.6-.4.2 0 .9.3 1.1s2.3 1.6 3.3 4.7c1 3 1.1 4.8 1.1 5.4s.7 1 1.3.8c.5-.1 1.2-.5 2-1.2a24 24 0 013.7-2.4c.2 0 1.8 3.5 2.1 3.6.4 0 .7-.2.8-.4l-1.6-3.4c-.4-.6-.6-1-.5-1.2 0-.2.8-1.2 1-1 .2.1 1.9 2.8 2.2 3.3.3.4.5.5.2 1l-2 2.6c-.6.5-.8 1-1.1.8-.3-.2-2-3.1-2.2-3.2-.2 0-1 .6-.9.8l2.2 3.5c0 .2-1 1.5-2.1 2.3s-1.9 1.4-2 1.1c-.3-.3-2.4-5.3-2.8-5.4-.3 0-1 .2-1 .6.2.4 2.8 5 2.8 5.3s-.8.8-1.1.6c-.3-.3-3-6-3.4-6s-1 0-1 .6 3.7 5.7 3.5 6c-.2.2-.8.8-1 .6-.3-.3-3.6-6.8-3.8-6.9-.3 0-1.1.2-1.1.4l3.7 7.2c0 .2-1.4.8-1.8.7-.3-.2-3.5-7.5-3.8-7.6-.3-.2-1.3.5-1.2.6 0 0 4 7 3.8 7.3-.2.3-1.1.4-1.3.3-.1-.2-3.8-7.2-4-7.3s-1.1.3-1 .6c0 .3 3.9 6.7 3.8 6.8h-1.3c-.2-.1-3.5-5.4-3.9-5.5s-.9.5-.9.7 3.2 4.7 3 4.8l-1.4-.2c-.2-.2-2.4-4-2.7-4.2-.3 0-1 .5-1 .7.1.2 2.3 3.2 2 3.2s-1 0-1.3-.2c-.3-.2-1.8-3.3-2.1-3.4-.3 0-.9.4-.9.5 0 .1 1.2 2.3 1 2.3-.3 0-1.1 0-1.3-.2-.2-.2-1.6-2.5-1.9-2.6-.2 0-.8.3-.8.5s.8 1.2.5 1.3c-.2 0-5-1.3-7.5-3-2.5-1.8-7.3-7.2-8.7-8.8a30.6 30.6 0 01-4.2-9.2c-.8-2.6-1-6.6-1-8.7.1-2 1.7-7.5 2.7-9.4.9-1.9 4.4-7 6.8-9.3S17 3.9 21.2 2.7s7.5-1.5 9.4-1.5C35 1.2 40 2 43.3 3c3 1 8.9 5.6 10.3 7.3A34.6 34.6 0 0159.5 21c-.2-.2-1.5-2.5-1.8-2.4-.2 0-.8.4-.7.7l2.7 4.4.4 1 .3 3.1c-.1-.1-2.3-4.2-2.6-4.3-.3-.1-.6.4-.5.5l3.1 5.5c0 .3.1 2.4-.2 2.1zm-41.6-9.8c.5.4-.6 1.2-1.4 2.9-.8 1.7-1.5 5.1-1.1 7.2.4 2 1.4 4.4 3.6 6.3 2.2 2 5.1 2 5.5 2.2.3.2-.6 1.3-.8 1.6-.2.2-.1.2-.6 0-.4-.3-3-2.4-5.5-3-2.6-.5-4.2.2-4.8.7-.6.5 0 1.5.8 2a11 11 0 012.6 3.6c1.1 2 1.8 2.4 3.5 3 1.8.6 3.2.6 3.4.6.3 0 .2.9 0 1.2-.1.3-.8-.5-1.9-.8-1-.3-3-.5-4.1-1.2s-4.7-4.8-5.4-6.6c-.6-1.8-2-6-2-8s-.2-5.5.6-8.2c.8-2.6 2.6-7 5.2-10 2.7-2.9 6.6-5.2 12.3-5.8a31.7 31.7 0 0117.9 4.1l-3.5.4c-2.4.1-4 1.4-4.1 1.6-.1.2-2.7-.4-5.3-.6-2.6-.2-6.3 1-6.4 1s-.5 0-1.5-.5a41 41 0 00-6.3-1.4c-.5 0-1.7 1.6-2 3.8-.2 2.3.8 3.4 1.3 3.9zM37.3 2.3c-4.1-.6-6.8-.3-7-.2-.4.4-.2 1.2.3 1.3.5 0 3-.3 6.2 0s5.6 1.5 6.1 1.6c.5 0 .8-.8.5-1.1-.2-.3-2-1-6.1-1.6zM6.8 17.7C3.6 21 3 25.5 2.7 27s.7 2.2 1.2 2c.4-.2 0-1.5 1-5s2.4-4.5 2.8-5.4c.5-.8-.6-1.2-.9-1zm15 13c-.3-1 0-2.2.2-3.3.2-1-.8-1-1-.7-.8.6-1 2.7-.8 4 .3 1.4 1.5 3.3 2 3.6.7.3 1.3-.1 1.2-.7-.2-.7-1.2-1.9-1.6-2.8zm-3.7 10.7c-1 .6 0 1.3.4 1.3s.8-.2.6-.8c-.2-.7-.8-.7-1-.5zm2 1.8c-.7.4 0 1.3.5 1.4s.9-.4.9-.9-1-.7-1.3-.5zm3 1.3c-1 .2-.7 1.2-.2 1.3s1-.1 1-.7c.2-.5-.2-.8-.8-.6zM41.5 18l1.2.1c.3 0 .3 2 .5 2.5.1.6 1 .6 1.3.3.3-.4-.1-3.4-.3-3.7-.3-.3-2.5 0-2.8.1-.2 0-.1.7 0 .7zm6 36.4c.3 0 1-.2 1-.6 0-.3-1.8-4.5-2-4.6 0 0-1.1.3-1.1.5 0 .4 2 4.7 2.2 4.7z"/></svg>