<svg xmlns="http://www.w3.org/2000/svg" viewBox="0 0 64 64"><defs/><path d="M59.4 16a30.6 30.6 0 00-8.9-10.7c-4-2.9-11.7-5.7-17-5.3-5.3.5-11.8 2.7-14.9 4.4-3.1 1.7-7 6-9 8.2C7.8 14.7 5 19 4.3 23.8 3.4 28.4 5 31 6.8 32c8.4 4 11.7-2.9 13.8-6.4 2-3.5 4-8.3 7.5-11.7s10-5 13.2-3.6 6.1 5 7.4 8.8c1.3 4 .4 9.4-.5 12.4-.9 2.9-3.2 5-6.3 6.2-3.1 1.1-5.6.2-6.1-.2-.6-.4-.8-.9-.5-2.4.4-1.6 1.5-5.8-1.1-9.9-2.6-4-8.2-3-11-.9s-4.6 5.6-5.5 10c-1 4.6 1.8 9.3 1.8 9.3s-.3.6-1 2.9c-.8 2.3-1.4 6-1.5 9.2s-.5 7 1.2 7.8c1.8.8 3.8.4 6-1.7 2.2-2 6.2-8.6 6.2-8.6s2.6.3 5.4.2c2.7 0 5.3-.1 11.8-4S57.8 37 59.9 30s.7-11-.5-14zM58 24.6c0-.2-1.1-2-1.5-1.6-.3.3-.3 1.5.2 2.1.4.7 1.2 1.5 1.2 1.8s-.2 2-.4 1.9c-.3-.2-1.6-2.5-2-2-.4.5-.4 1.2 0 1.5s1.5 1.8 1.4 2.1c0 .3-.7 2.8-1 2.7-.1-.1-1-3.1-1.5-3-.5 0-.8.7-.6 1.2.2.5 1.6 2.9 1.5 3.3 0 .5-.6 1.5-.7 1.3-.1-.2-1.4-3.4-1.7-3.4-.4 0-.8.6-.7 1.2.2.6 1.5 3 1.5 3.3 0 .3-.7 1.4-.8 1.3-.1-.1-1.5-3.2-1.7-3.2-.3 0-.9.4-.8.8 0 .5 1.8 3.3 1.7 3.7-.1.3-1 1.6-1.2 1.4 0-.2-1.6-4-1.8-4s-.7.5-.7 1c0 .6 1.9 3.8 1.8 4-.1 0-.7.7-1 .6-.1-.1-1.5-3.3-1.8-3.2-.4 0-1 .8-.9 1a23 23 0 011.8 3.2c0 .2-1 .8-1.1.8s-1.8-3.5-2.2-3.5c-.4 0-1 .3-.7.8.2.6 1.9 3.2 1.8 3.4-.1.2-1.2 1-1.3.8-.2-.2-2.2-4.2-2.4-4.2-.2 0-1 .7-.9 1 .2.3 2.2 3.6 2 3.7s-1.3.7-1.4.6c-.2-.2-2-4.6-2.3-4.6s-1 .4-1 .8l2.1 4.5s-1 .5-1.3.4c-.1-.1-2.2-5.6-2.5-5.6s-1.1.3-1 .5l2.5 5.4c0 .1-1 .6-1.2.4s-2.7-6-2.9-6l-.8.4s2.9 5.6 2.7 5.7c-.2 0-1.3.2-1.4 0-.2-.2-2.6-6.3-2.9-6.4-.3 0-1.2 0-1 .3.1.3 2.6 6.3 2.4 6.3s-1 .1-1.2 0-2.6-6.7-2.9-6.9c-.3-.2-1 .2-1 .4s3 6.4 2.8 6.4c-.4 0-2-.6-2.2-.8-.2-.1-2-5.6-2.5-5.7-.5-.1-1.2-.1-1 .4.4.6 2.5 5 2.4 5s-.7.6-.8.5c-.2 0-2.2-3.4-2.6-3.4-.3 0-.8.4-.6.7s2.3 3.7 2.3 4-.3.8-.5.5c-.2-.2-1.7-3.4-2.2-3.1-.4.3-.5 1-.3 1.4.1.3 1.9 2.8 1.8 3.3s-.4.7-.6.6-1.7-3.1-2-3c-.4.2-.9 1-.6 1.4.3.3 2.1 2.7 2 3.1-.1.4-.4.8-.5.7 0-.1-1.2-2.4-1.5-2.4-.2 0-.7 1-.5 1.2 0 .3 1.4 2.1 1.2 2.4-.1.3-.4.8-.5.7-.2-.1-1.3-1.6-1.6-1.6s-.8.7-.5 1c.3.4 1.5 1.9 1.4 2.1 0 .2-.7 1-.9.8-.1-.3-.9-1.7-1.1-1.6-.2 0-.7.7-.4 1.2s1 1.2.7 1.6c-.1.4-1.2.8-1.3.7 0-.2-.8-4.2.2-9s2.8-8.4 2.6-8.7c-.2-.4-2.7-3.7-2.2-8 .5-4.2 2.7-8 4.8-9.5s5.6-3 9.2 0 .6 10.5.6 11c0 .3.7 2.8 3 3 2.1.4 7.3 0 9.5-2.3s4.9-6.1 4.8-11.5c0-5.4-1-9.7-3.7-12.8s-6-4.6-9-5c-2.9-.4-8.9.1-11.8 2.5a20.6 20.6 0 00-6 6.8c-1.5 3-2.1 6.3-4.4 8-2.3 1.8-3.8 2.8-5.3 2-1-.4-2.9-3.2-2.3-7s5.2-9.3 7.4-11.7C17.8 6 26 2.3 29.5 1.7s10-.5 14.6 1.5 7.5 3.7 9.3 6.5c1.9 2.8 3.6 5.8 4 7.6.5 1.8.7 2.3.5 2.3s-.5-.9-1-.6c-.3.3-.7 1-.2 1.6.5.6 1.5.9 1.5 1.4 0 .6 0 2.9-.2 2.6zM13.2 14.1c-.9 0-2.7 4.2-3 6.3-.2 2.1.5 3 1.1 2.9.7-.2.3-1.7.3-3 0-1.4 1-3.8 1.6-4.7s.8-1.4 0-1.5zm12.2 13.2c-1.5 1-2.8 2.8-3.2 4s0 3 .6 3c1.2 0 .6-2.6 1.7-4.4 1-1.8 3.1-1.9 3.4-1.9s.5-.3.5-.9c0-.6-1.6-.8-3 .1zM48 6.3a21 21 0 00-6-2.8c-.7-.1-1 .7-.3 1.1s4.5 1.6 6.5 3.6 3 4.4 3.7 4.4 1-.4.3-1.5c-.7-1.2-2.1-3.3-4.2-4.8z"/></svg>