<svg xmlns="http://www.w3.org/2000/svg" width="64" height="64"><defs/><path d="M59.415 20.59c-2.174-8.02-6.412-10.566-13.422-13.87-7.01-3.306-17.66-2.927-23.474-1.464S10.78 9.916 6.814 15.822c-3.967 5.906-3.37 8.67-1.467 16.364s10.108 14.196 10.108 14.196-1.793 5.906-2.337 8.182c-.543 2.276.543 3.143 2.445 2.98 1.902-.163 11.465-6.448 11.465-6.448s5.325.92 14.02-.434c8.693-1.354 10.595-5.04 15.05-9.428s5.49-12.624 3.317-20.644zM48.928 32.673c.163.163 6.14 4.93 6.14 4.93L53.6 39.88s-5.76-4.768-6.03-4.714c-.273.054-.653 1.084-.653 1.084s5.76 4.172 5.543 4.552c-.217.38-1.902 1.626-1.902 1.626l-4.673-3.74s-1.14.49-1.032.76c.11.27 5.162 3.575 5 3.738-.164.163-2.772 1.517-2.772 1.517l-4.455-3.522s-1.304.705-1.087 1.03c.217.325 4.184 3.09 3.804 3.25-.38.164-3.26 1.085-3.26 1.085s-2.934-2.763-3.152-2.818c-.217-.054-.978.488-.924.705.054.217 2.88 2.547 2.717 2.655-.163.11-3.912 1.517-8.368 1.03-4.456-.488-5.76-1.084-6.684-.975-.923.108-8.802 7.207-9.563 6.665-.22-.157 2.554-7.098 2.337-7.315s-3.804-2.167-8.314-8.778S4.588 24.6 6.38 19.398 17.358 7.858 23.01 6.665s13.15-1.788 21.138 1.03c7.988 2.817 11.41 7.206 12.933 10.24 1.52 3.035 1.63 8.29 1.63 8.29s-6.793-5.85-7.12-5.743c-.325.108-.38.975-.216 1.138.163.163 7.227 5.58 7.227 5.852 0 .27-.053 2.818-.108 2.655-.054-.163-6.9-6.07-7.064-6.07-.163 0-.87.65-.543 1.03.326.38 7.28 5.907 7.28 6.34 0 .434-.65 2.493-.705 2.33-.054-.162-6.684-5.85-7.01-5.85-.326 0-.76.812-.598 1.03.163.216 7.01 5.418 7.01 5.688s-1.25 2.005-1.25 2.005-5.706-4.877-5.923-4.877c-.22 0-.925.758-.762.92h-.001zm7.77-11.378s.217-.433.217-.758-5.923-5.31-5.923-5.31c-.326.163-.76 1.192-.543 1.41.217.214 6.248 4.658 6.249 4.658zm-39.34-9.43c-.653.272-3.48 1.79-5.272 3.848-1.793 2.06-2.88 4.714-2.99 5.04-.108.324.98.65 1.196.595.217-.054.49-1.572 2.663-4.172s5-3.793 5.108-4.172c.11-.38-.355-1.283-.705-1.139zm11.52-10.51c.216-.054.488-.596-.164-1.03s-6.505 1.11-6.684 1.192c-.598.27-.598 1.084-.11 1.354.49.273 6.74-1.46 6.957-1.515l.001-.001zm10.54.487c.38.054.218-1.463.055-1.626S33.823 0 33.823 0c-.273.217-.436 1.084-.164 1.3.27.217 5.378.488 5.759.542zm7.173 1.192c.218-.054.38-.975.273-1.192-.11-.217-3.858-1.084-3.858-1.084-.326.054-.435 1.138-.272 1.355.163.217 3.64.976 3.857.921zm6.794 4.01c.272-.054.435-.542.326-.975-.11-.435-2.837-2.816-3.206-2.71-.38.11-.706.813-.652 1.192.054.38 3.26 2.546 3.532 2.493zm5.325 5.364c1.086 1.03 1.466 3.034 1.63 3.09.162.053.868-.326.868-.65s-.49-1.898-1.195-3.09c-.706-1.192-1.496-1.788-1.74-1.788-.597 0-1.03.704-1.14.975-.11.27.49.434 1.577 1.463zm4.726 11.704c.435-.054-.38-4.768-.543-4.93-.163-.164-1.14 0-1.14 0-.164.324.325 4.442.325 4.82 0 .38.924.164 1.358.11zm.326 4.227c-.163-.055-1.195.053-1.195.053-.163.38 0 4.552 0 5.04s1.032.108 1.304-.11c.273-.216.055-4.93-.108-4.984l-.001.001zM60.23 39.39c0 .38.706.433 1.087.38.38-.055 2.12-3.415 2.12-3.415l-.87-.542c-.272.164-2.337 3.198-2.337 3.577zm-2.01 3.305c-.217.163-3.152 3.414-3.37 3.847-.216.433.544.65.816.65s3.478-3.576 3.423-3.793c-.055-.215-.87-.703-.87-.703l.001-.001zM45.233 52.56c-.49.324.163.974.49 1.19.325.218 5.324-2.49 5.38-2.762.053-.27-.38-1.192-.38-1.192-.165.27-5 2.438-5.49 2.763v.001zm-4.347 1.3c-.38.054-4.293.596-4.673.758-.38.163-.217 1.246-.217 1.246l5.27-.867s-.053-1.184-.38-1.137zm-10.814.813c-.38-.054-1.687-.144-2.01-.11-.98.11-.544 1.247-.544 1.247s2.5.108 2.826-.054c.326-.162.11-1.03-.272-1.083zm-6.086 1.733c-.217.054-4.293 2.493-4.727 2.926-.436.433.325 1.138.597 1.192s4.347-2.763 4.62-3.035c.27-.27-.273-1.138-.49-1.083zm-9.074 4.172s-1.358.76-2.445 1.03-2.065-.217-2.228-.217c-.164 0-.49 1.518-.49 1.518s.815.163 1.685.054c.87-.11 3.695-.76 3.858-1.138.162-.378-.218-1.246-.38-1.246v-.001zm-5.434-8.452c-.272 0-1.95 6.722-1.902 7.152.054.488.978.38 1.413.27.434-.108 1.847-6.826 1.847-7.15s-1.087-.272-1.36-.272h.002zm1.74-2.98c.488-.163.705-2.276.65-2.493-.053-.217-.868-.38-1.25-.27-.38.107-.542 2.058-.597 2.437 0 0 .708.488 1.197.326zm-2.61-5.907c-.162-.218-.488-.597-1.683-1.897s-1.576-2.71-1.576-2.71l-1.522.868c.815 2.44 3.804 4.878 4.13 4.986.325.108.814-1.03.651-1.247zM.187 30.234c-.11 1.463 1.195 5.473 1.413 5.69.216.216 1.03-.11 1.303-.326.272-.218-1.195-5.42-1.358-5.582s-1.36.217-1.36.217l.002.001zm1.848-12.03s-.543.218-1.358 3.198-.713 3.936-.598 4.28c.11.326 1.14.49 1.304.38.163-.11.163-1.084.326-2.763.163-1.68 1.195-4.498 1.25-4.714.054-.217-.924-.38-.924-.381zm2.228-3.196c.217-.055.652-.814 1.304-2.168s2.554-3.36 2.5-3.63c-.055-.272-.98-.326-.98-.326s-.488.434-1.9 2.06c-1.414 1.625-2.106 2.944-2.23 3.25-.216.542 1.088.867 1.306.813v.001zm6.9-7.37c.49.054 5.815-3.414 5.815-3.414s-.11-1.03-.435-1.138-.815.108-3.097 1.192-3.315 1.842-3.315 2.113c0 .217.544 1.193 1.033 1.247h-.001z"/></svg>