<svg xmlns="http://www.w3.org/2000/svg" viewBox="0 0 64 64"><path d="M37.3 29.7c7.9-9.2 11.2-12.9 23.5-26.5 0-.8.1-2.7-2.6-1.4-13.8 15.6-13 14.7-23.4 25a578.6 578.6 0 0 0-17-24.4C14.1-.5 6.2 1.4 5 3.2c-.6 3.4 10.9 17 20.2 33-6.3 7.6-8 10-19.8 24.6 0 1 .8 1.4 1.6 1 1.6-.7 15.3-18.3 19.6-22.2.9-.7.9-.5 1.3.2 5.3 8 6.2 9.5 9 13.5 3.3 4.7 5.6 7.5 6.5 8.6 4.4.5 14 .3 15.6-1-5.4-8.6-5.8-8.7-11-16.2l-10.7-15Zm-10 3.5S7 4.8 7.6 3.2c3-.8 7.1-2 9.2 0C18.4 4 33 27.3 33 27.3l2.5 3.5s21 27 21 29c0 .2-.8.1-1.3.1 0 0-7.3-10.8-8.3-11.9-.8-.7-1-.5-1-.5-.2 0 8.5 12.6 8.3 12.6h-1.3c-.1 0-7.2-10.6-7.4-10.7H45c-.3.1 6.7 10.7 6.6 10.7H51c-.5-.2-4.2-7-5.3-7.7-.2-.2-.5 0-.5.2l4.6 7.5H49s-2.8-4.6-3.8-5.2h-.3c-.5 0 3.5 4.5 3.4 5h-.9c-8.2-9.7-13.2-17.6-20-26.7Z" style="fill:#000;stroke-width:.0512165"/><path d="M13.1 3.5c2.4 0 2.8 1.2 3.2 1.8 1.1 1.5 4.8 6.9 4.7 7-.3.2-1.1.4-1.3 0l-5-6.6c-.7-1-2.6-.4-2.9-.4-.3 0-1.3-.7-1.3-1.3 0-.6.2-.5 2.6-.5Z" style="stroke-width:1.10852"/></svg>