<svg xmlns="http://www.w3.org/2000/svg" viewBox="0 0 64 64"><defs/><path d="M61.1 19.2c-2-5.7-6.9-9.7-10.4-10.2s-12-1.1-19.2-1S11.3 9.3 7 10.4c-4.5 1-6 3.7-6.6 6-.6 2.2 0 9.4 0 14.7s.7 9.6 1.5 13.3c.9 3.9 3.3 8 5.5 9.4 2.1 1.3 8.8 1.8 15.6 2.1 6.9.3 18-.2 24.9-.4 6.8-.2 9.6-1.2 11.8-2.7 2.3-1.6 4.2-8 4.4-15 .1-6.9-.9-13-2.9-18.6zm1 14c-.2-.2-2.4-4.6-3.2-5.4-.7-.8-1-.2-1 0 0 .4 1.3 2.2 1.5 2.6.2.4 2.6 4.8 2.6 5.3 0 .4-.2 3.7-.3 3.6-.2-.1-3.6-8-3.9-7.9-.3 0-1 .6-.7 1.1s4 8 4 8.3c0 .4-.5 2.8-.7 2.5-.2-.4-3.7-8.9-4-9-.4 0-.7 1-.7 1.2l4.2 8.9-1.1 2.5c-.1 0-4.1-9.8-4.4-9.8-.4 0-.6 1-.6 1s4.2 9.8 4 10c0 .1-1.2 1.7-1.3 1.5 0-.2-3.2-9.6-3.7-9.6s-1 .3-.9.7c.1.4 4 9 3.8 9.1-.3.3-1.5.8-1.7.6-.2-.2-3.6-8.4-3.8-8.5-.2-.1-.7.2-.7.3l3.6 8.9s-2.4.8-2.5.6c0-.2-3.2-8.4-3.5-8.5s-1 .4-1 .7c.1.3 3.5 7.8 3.3 8H47c-.2 0-2.5-7.1-2.7-7.2-.3 0-1 .5-1 .6-.1.1 2.5 7 2.3 6.9L44 52c0-.2-2.1-7-2.3-7s-1 .2-1 .4 2.5 6.9 2.3 6.9l-2-.1c-.2-.2-2.2-6.3-2.4-6.3-.2 0-1.2.2-1.1.5 0 .2 2.2 5.8 2 5.8-.3 0-2 0-2.2-.2s-2-6-2.4-6c-.3 0-1.1 0-1 .5 0 .6 2.5 5.7 2.2 5.7s-2 .2-2.1 0c-.3-.1-2.3-6.3-2.7-6.3-.4 0-1 .5-1 .8 0 .3 2.6 5.7 2.4 5.7-.1 0-1.5 0-1.7-.2-.1 0-2.3-5.6-2.6-5.6-.2 0-1.2 0-1 .4 0 .3 2.6 5.2 2.4 5.2h-1.6c-.2 0-2-5.2-2.4-5.2-.4 0-1.3.3-1.2.6 0 .2 2.4 4.6 2.2 4.6h-1.9s-1.8-4.5-2-4.5c-.3 0-1.2.3-1 .6 0 .2 2 3.8 1.8 3.9l-1.6-.1c-.2-.2-1.6-3.5-1.8-3.5s-1.3.2-1.1.5l1.5 3.1c-.1 0-1.5 0-1.7-.2-.2-.2-1.1-3-1.4-3-.4 0-1.2.3-1 .6.2.3 1.2 2.4 1 2.4-.2 0-1.2 0-1.4-.2-.1-.2-1-2.7-1.4-2.7-.3 0-1.3.3-1.1.6.2.3 1 2 .8 2l-1.2-.1s-1-2.3-1.3-2.4c-.5 0-1.3.3-1.2.5.2.1.8 1.8.6 1.7-.2-.1-3.5-.8-5-2.2-1.6-1.4-4-5.7-4.2-10.3-.2-4.5-.7-14.7-.7-17.8-.1-3 .3-4.6 1.1-6.2.7-1.4 2.2-2.7 6.7-3.5s11.2-1.8 17.6-2c6.4-.1 14.6.4 17.3.4 2.7 0 9 .4 12 4s3.8 6 4.7 8.8c.9 3 .9 4 .9 4s-2.2-4.3-2.4-3.7c-.1.6-.3 1.5-.1 1.8s2.6 4.3 2.7 4.8c0 .5.3 4 .1 3.7zm-19-4c0-1-1.4-1.4-5-2.6a67.4 67.4 0 00-10.6-3c-1.9 0-3 1.7-3.1 3.2l.1 11.3c.1.6.5 1.2 1.2 1.2 2.2 0 7.6-3 12-5.5 4.6-2.6 5.4-3.7 5.4-4.6zm-15.3 8c-.3 0-.3-9.2.1-9.3.4-.1 7.4 1 9.1 1.6 1.8.6 2.8 1 2.7 1.3 0 .4-3.4 2.2-6.4 3.8-3 1.6-5 2.7-5.5 2.7zm-16-23.5c-.8 0-3.3 1-5.8 2.7s-3.3 3.9-3.2 6c0 2 .3 2.6.7 2.6.6 0 .9-1.8.7-2.5 0-.7.7-2.9 1.6-4 1-1.2 5.7-3.1 6.2-3.6.6-.5.7-1.3-.1-1.2zM6.8 44c-.7-.6-.8-2.4-.9-2.6 0-.3-1.3-.4-1.3-.2-.3 2.5 1.5 4.7 2.1 5 .7.3 1.4-.2 1.4-.6 0-.5-.7-1-1.3-1.6zM23 30c-.2-.3-1.2-.7-1.4-.1-.2.4 0 6.4 0 7.1 0 .7.3 1.6.7 1.8.4.1.9-.6.7-1.4-.1-.9.2-7.2 0-7.4zm23.4 1.9c-.8.4-9.5 5.4-9.7 5.8-.1.3 0 .7.5.8s1 .3 2.3-.5c1.3-.9 8.3-4.7 8.7-5.2.5-.4.3-.8 0-1.1-.4-.3-1-.3-1.8.2zm2.3-19.7c-.3 0-.5 1.2 0 1.3.8.2 2.5.3 4.3 1.5 1.8 1.2 2.6 3.4 3 4 .2.5.7.2 1-.4.4-.6 0-1.3-2.3-4.1a6.9 6.9 0 00-6-2.3z"/></svg>