<svg xmlns="http://www.w3.org/2000/svg" xmlns:xlink="http://www.w3.org/1999/xlink" height="64" width="64"><defs><path d="M403.783 516.646a17.214 17.214 0 004.873 13.43c2.302-3.464 4.814-6.22 7.503-8.318 2.324-1.813 4.727-3.102 7.173-3.93a98.994 98.994 0 00-1.708-3.784c-4.716 1.448-10.617 2.357-17.841 2.602zm.186-1.524c1.013-6.039 5.16-11.015 10.711-13.199.49.704 1.02 1.502 1.584 2.39a91.128 91.128 0 014.69 8.35c-4.486 1.35-10.103 2.21-16.985 2.459zm12.203-13.708a17.277 17.277 0 014.828-.684c4.522 0 8.638 1.738 11.716 4.582-.11.179-.236.365-.378.56-.923 1.257-2.314 2.528-4.274 3.725-1.601.98-3.48 1.85-5.65 2.597a92.8 92.8 0 00-4.869-8.694 72.91 72.91 0 00-1.373-2.086zm17.637 5.003a17.206 17.206 0 014.46 11.616 20.352 20.352 0 00-.733-.252c-1.6-.516-3.382-.89-5.3-1.038a22.38 22.38 0 00-7.442.647 100.48 100.48 0 00-1.716-3.822c2.205-.77 4.126-1.666 5.777-2.676 2.127-1.3 3.666-2.705 4.706-4.123.089-.12.171-.238.248-.352zm4.385 13.21c-.524 5.611-3.733 10.442-8.329 13.197a95.41 95.41 0 00-4.483-14.018c2.227-.56 4.481-.725 6.737-.55 1.793.139 3.459.488 4.951.969.413.133.79.27 1.124.403zm-9.713 13.943a17.201 17.201 0 01-7.481 1.7c-4.283 0-8.202-1.56-11.22-4.142 2.253-3.433 4.701-6.137 7.312-8.174 2.217-1.729 4.503-2.949 6.826-3.72a93.845 93.845 0 014.563 14.336zM439.75 518c0-10.355-8.395-18.75-18.75-18.75s-18.75 8.395-18.75 18.75 8.395 18.75 18.75 18.75 18.75-8.395 18.75-18.75z" id="a"/></defs><g fill="none" fill-rule="evenodd"><path d="M3.196 0h57.608A3.193 3.193 0 0164 3.196v57.608A3.193 3.193 0 0160.804 64H3.196A3.193 3.193 0 010 60.804V3.196A3.193 3.193 0 013.196 0z" fill="#1a1a1a"/><g transform="matrix(1.06667 0 0 1.06667 -417.067 -520.533)"><use xlink:href="#a" width="100%" height="100%" fill="#fff"/><use xlink:href="#a" width="100%" height="100%"/></g></g></svg>