<svg xmlns="http://www.w3.org/2000/svg" viewBox="0 0 64 64"><defs/><path fill="#1a1a1a" fill-rule="evenodd" d="M3.2 0h57.6C62.6 0 64 1.4 64 3.2v57.6c0 1.8-1.4 3.2-3.2 3.2H3.2A3.1 3.1 0 010 60.8V3.2C0 1.4 1.4 0 3.2 0z" clip-rule="evenodd"/><g><path fill="#fff" d="M27.9 12.4l.4 1.8c-1.7.4-3.4 1.1-5 2l-.9-1.5c1.7-1 3.5-1.8 5.5-2.3zm9.3 0l-.4 1.8c1.7.4 3.4 1.1 5 2l.9-1.5c-1.7-1-3.5-1.8-5.5-2.3zm-21.4 8.9c-1 1.7-1.8 3.5-2.2 5.4l1.7.4c.5-1.7 1.2-3.3 2-4.9l-1.5-1zm-1 10.1c0-.9 0-1.8.2-2.7l-1.8-.2c-.3 2-.3 3.9 0 5.8l1.8-.2-.2-2.7zm27.9 16.7l-1-1.5c-1.5.9-3.2 1.6-4.9 2l.5 1.8c1.9-.5 3.7-1.2 5.4-2.3zm7.6-16.7c0 .9 0 1.8-.2 2.7l1.8.2c.3-2 .3-3.9 0-5.8l-1.8.2.2 2.7zm1.2 4.7l-1.7-.4c-.5 1.7-1.2 3.3-2 4.9l1.5 1c1-1.8 1.8-3.6 2.2-5.5zM35.2 48.9c-1.8.3-3.5.3-5.3 0l-.3 1.8c2 .3 4 .3 5.9 0l-.3-1.8zm11.6-7c-1 1.5-2.3 2.7-3.7 3.8l1 1.4c1.6-1.1 3-2.5 4.2-4l-1.5-1.2zm-3.7-24.8c1.4 1 2.7 2.4 3.7 3.8l1.5-1.1c-1.2-1.6-2.6-3-4.1-4.1L43 17zM18.3 21c1-1.4 2.3-2.7 3.7-3.8l-1-1.4c-1.6 1.1-3 2.5-4.2 4l1.5 1.2zm31 .4l-1.6 1c1 1.5 1.6 3.1 2 4.8l1.8-.4c-.4-1.9-1.2-3.7-2.2-5.4zm-19.4-7.4c1.8-.3 3.5-.3 5.3 0l.3-1.8c-2-.3-4-.3-5.9 0l.3 1.8zM19.2 47.6l-3.8 1 1-3.9-1.9-.4-.8 3.8c-.3 1 .3 2 1.3 2.2h.9l3.7-.9-.4-1.8zm-4.3-5l1.8.5.6-2.6c-.9-1.5-1.5-3.2-2-4.8l-1.7.4c.4 1.6 1 3.2 1.8 4.6l-.5 2zm8.6 4l-2.7.7.5 1.7 1.9-.4c1.5.8 3 1.4 4.6 1.8l.5-1.8c-1.7-.4-3.3-1-4.8-2zm9-31a15.9 15.9 0 00-13.4 24.3l-1.5 6.5 6.5-1.5c7.4 4.6 16.6 2 22-5 6-8 1-24.2-13.5-24.4"/></g></svg>