<svg xmlns="http://www.w3.org/2000/svg" height="64" width="64"><g fill="none" fill-rule="evenodd"><path d="M3.196 0h57.608A3.193 3.193 0 0164 3.196v57.608A3.193 3.193 0 0160.804 64H3.196A3.193 3.193 0 010 60.804V3.196A3.193 3.193 0 013.196 0z" fill="#1a1a1a"/><path d="M34.555 24.757c4.217-2.467 6.47 1.003 4.311 4.929-2.154 3.922-4.124 6.48-5.154 6.48-1.03 0-1.822-2.624-3-7.212-1.22-4.744-1.212-13.289-6.279-12.32-4.779.913-11.059 8.216-11.059 8.216l1.5 1.915s3.093-2.373 4.124-1.187c1.03 1.187 4.966 15.517 6.28 18.161 1.147 2.319 4.31 5.386 7.779 3.196 3.466-2.19 14.994-11.774 17.057-23.09 2.062-11.315-13.873-8.946-15.559.912z" fill="#fff"/></g></svg>