<svg xmlns="http://www.w3.org/2000/svg" width="64" height="64"><defs/><g fill="none" fill-rule="evenodd"><path fill="#424242" d="M3.2 0h57.6C62.6 0 64 1.4 64 3.2v57.6c0 1.8-1.4 3.2-3.2 3.2H3.2A3.2 3.2 0 010 60.8V3.2C0 1.4 1.4 0 3.2 0z"/><path fill="#fff" d="M27.1 50.7v-3.5c-5.5 1.3-6.6-2.7-6.6-2.7-1-2.3-2.2-3-2.2-3-1.8-1.2.1-1.1.1-1.1 2 .1 3 2 3 2 1.8 3.1 4.6 2.2 5.8 1.7.1-1.3.6-2.2 1.2-2.7-4.4-.5-9-2.2-9-10 0-2.2.8-4 2-5.4-.1-.5-.8-2.5.3-5.3 0 0 1.6-.6 5.4 2a18.4 18.4 0 019.8 0c3.8-2.6 5.4-2 5.4-2 1.1 2.8.4 4.8.2 5.3 1.3 1.4 2 3.2 2 5.4 0 7.8-4.5 9.5-9 10 .8.6 1.4 1.9 1.4 3.7v5.6c0 .5.3 1.2 1.3 1a20.2 20.2 0 0013.5-19.2A20 20 0 0032 12.3a20 20 0 00-19.7 20.2c0 9 5.7 16.5 13.5 19.2 1 .1 1.3-.5 1.3-1z"/></g></svg>