<svg xmlns="http://www.w3.org/2000/svg" viewBox="0 0 64 64"><defs/><path fill="#3a76f0" fill-rule="evenodd" d="M3.2 0h57.6C62.6 0 64 1.4 64 3.2v57.6c0 1.8-1.4 3.2-3.2 3.2H3.2A3.1 3.1 0 010 60.8V3.2C0 1.4 1.4 0 3.2 0z" clip-rule="evenodd"/><g><path fill="#fff" d="M27.3 13l.4 1.8c-1.7.4-3.3 1.1-4.9 2l-1-1.5a19 19 0 015.5-2.3zm9.4 0l-.4 1.8c1.7.4 3.3 1.1 4.9 2l1-1.5c-1.8-1-3.6-1.8-5.5-2.3zM15.3 22c-1 1.7-1.8 3.5-2.3 5.4l1.8.4c.4-1.7 1.1-3.3 2-4.9l-1.5-1zm-1 10.1c0-.9 0-1.8.2-2.7l-1.8-.2c-.3 2-.3 3.9 0 5.8l1.8-.2a18 18 0 01-.2-2.7zM42 48.7l-1-1.5c-1.5.9-3.1 1.6-4.8 2l.4 1.8c2-.5 3.7-1.2 5.4-2.3zM49.7 32c0 .9 0 1.8-.2 2.7l1.8.2c.3-2 .3-3.9 0-5.8l-1.8.2c.2 1 .2 1.8.2 2.7zm1.3 4.7l-1.8-.5c-.4 1.8-1.1 3.4-2 5l1.5 1c1-1.8 1.8-3.6 2.3-5.5zM34.7 49.5c-1.8.3-3.6.3-5.4 0l-.2 1.8c2 .3 3.9.3 5.8 0l-.2-1.8zm11.6-7c-1 1.4-2.4 2.7-3.8 3.8l1.1 1.4c1.6-1.1 3-2.5 4.1-4l-1.4-1.2zm-3.8-24.8c1.4 1 2.7 2.4 3.8 3.8l1.4-1.1c-1.1-1.6-2.5-3-4-4.1l-1.2 1.4zm-24.8 3.8c1-1.5 2.4-2.7 3.8-3.8l-1.1-1.5c-1.6 1.2-3 2.6-4.1 4.2l1.4 1zm31 .4l-1.5 1c.9 1.5 1.6 3.1 2 4.8l1.8-.4c-.5-2-1.2-3.7-2.2-5.4zm-19.4-7.4c1.8-.3 3.6-.3 5.4 0l.2-1.8c-2-.3-3.9-.3-5.8 0l.2 1.8zM18.7 48.2l-3.8 1 .9-3.9L14 45l-.9 3.8c-.2 1 .4 2 1.4 2.2h.8l3.8-.9-.4-1.8zm-4.3-5l1.8.5.6-2.6c-1-1.5-1.6-3.2-2-4.9l-1.8.5c.4 1.6 1 3.2 1.8 4.6l-.4 2zm8.5 4l-2.6.7.4 1.7 2-.4c1.4.8 3 1.4 4.6 1.8l.4-1.8c-1.7-.4-3.3-1-4.8-2zm9.1-31a15.9 15.9 0 00-13.4 24.3L17 47l6.5-1.6c7.5 4.7 16.7 2 22-5 6-8 1.1-24.2-13.5-24.3"/></g></svg>