<svg xmlns="http://www.w3.org/2000/svg" width="64" height="64"><defs/><g fill="none" fill-rule="evenodd"><path fill="#ca4638" d="M3.2 0h57.6C62.6 0 64 1.4 64 3.2v57.6c0 1.8-1.4 3.2-3.2 3.2H3.2A3.2 3.2 0 010 60.8V3.2C0 1.4 1.4 0 3.2 0z"/><path fill="#fff" d="M52.5 23.5s-.4-2.8-1.6-4c-1.6-1.6-3.3-1.7-4.1-1.8-5.8-.4-14.3-.4-14.3-.4s-8.6 0-14.4.4c-.8.1-2.5.2-4 1.8-1.3 1.2-1.7 4-1.7 4S12 27 12 30.2v3c0 3.4.4 6.7.4 6.7s.4 2.8 1.6 4c1.6 1.7 3.6 1.6 4.5 1.8 3.3.3 14 .4 14 .4s8.5 0 14.3-.4c.8-.1 2.5-.1 4-1.8 1.3-1.2 1.7-4 1.7-4s.4-3.3.4-6.6v-3.1c0-3.3-.4-6.7-.4-6.7zM28.2 37V25.5l11 5.8z"/></g></svg>