<svg xmlns="http://www.w3.org/2000/svg" viewBox="0 0 64 64"><defs/><path d="M50.8 3c-.4-2.7-6.9-3-10.6-3s-7.6.4-12.6 3c-5 2.8-6.7 7.5-7.4 10.4s.2 11.3.2 11.5c0 .2-4 .2-5.4.3-1.5 0-1.9.7-2 1.1-.1.4.7 11.4.7 11.4l.4 4c.9.4 5 .2 5.7.3.7.2 1 1.2 1 4l.6 15.4c0 2.2 1 2.2 3.4 2.3l11.9.3c.6 0 1-.7 1-2.7l.7-19.6c0-.4 1.4 0 2.6 0l7.7-.5c1-.2 1.4-10.4 1.4-13.8S48 24 46.6 24s-7.9.2-8.3 0c-.3-.4 1.3-5.5 3.4-6.5 2.2-1 7.4-.5 8-.4.7.2 1.2-1.3 1.2-2.5.1-1.2.2-8.6-.1-11.4zM46 25c.2 0 1.1 1.1 1.4 1.6s-.1 1.2-.2 1.2l-1.4-2c-.1-.3 0-.7.2-.7zm3.4-12.3c-.6 0-6.4-.5-9.7.7a8.6 8.6 0 00-5.2 6.3c-.2 1.9-.3 5.3.2 5.3l7 .2c1.7 0 2.6 0 2.8.2.1.2 2.6 3.7 2.6 4 0 .2-.3 1.3-.4 1.2s-2.4-4.2-2.6-4c-.2.1-.6.7-.3 1.2.3.4 2.8 4.1 2.7 4.3 0 .2-.3 1-.5.8l-3-5c-.2 0-.7.7-.5 1.1.3.4 3.3 4.6 3.3 4.9 0 .2 0 2-.2 1.9-.2 0-3-5.2-3.4-5.2-.4 0-.6.8-.3 1.2.2.3 3.4 5 3.4 5.2s-.7.5-1 .3c-.2-.2-2.9-5.2-3.1-5.2s-1 .3-.8.7c.3.3 2.8 4.4 2.7 4.5-.2 0-.7.2-1-.2-.4-.4-2.4-4-2.7-4-.2 0-.7.6-.5 1 .3.3 2.6 3.2 2.3 3.2h-1.7c0-.2-1.4-2.8-1.6-2.8-.3 0-.7.5-.6.8l1.1 1.9s-3-.2-3.1.2c-.1.4.2 2.8 0 2.7-.2-.1-1.5-2.7-1.7-2.7-.2 0-.5.7-.4 1 .1.4 2.2 2.8 2.2 3.1s0 2.2 0 2-2.1-3.8-2.3-3.7c0 0-.4 1-.3 1.1l2.7 4.2v2.6c-.2-.2-3-5.6-3.2-5.5-.2 0-.4 1.1-.3 1.5l3.4 5.5c0 .3 0 1.6-.1 1.5s-3.5-6.4-3.7-6.3c-.2 0-.3 1-.2 1.4 0 .4 3.9 6.3 4 6.4 0 .2-.1 2.8-.2 2.7-.2-.2-4-7-4.2-7-.3.1-.4 1.3-.3 1.6l4.6 6.8v1.9c-.2 0-4.7-7.8-5-7.7 0 0-.3 1-.2 1.3 0 .2 5.1 7.9 5.1 8.2s0 .4-.3.4-.6 0-1-.2c-.2-.3-4.4-7.3-4.7-7.2-.3 0-.4 1.2-.3 1.5.1.4 4.6 6 4.4 6-.1.1-6-.3-6.5-.3l-.8-.1s.2-.3-.4-.9-1.3-1.5-1.7-1.3c-.4.2-.2.6 0 .8l1 1c-.2.2-2.5 0-2.6-.2l-.2-13c0-3.2-.3-8-1-8.4-.7-.5-6-.6-6.3-1a64 64 0 01-.5-10.7c.4 0 5.4.1 6.2-.4.9-.5 1-1.5 1-2.7-.2-1.1-1-9.4.5-12.5s4.5-6.2 9.1-8a30.1 30.1 0 0114.3-1.2c4 .5 4.3 1.2 4.4 3.1 0 2 .1 8-.4 8zM22.7 26.2c-.2 0-.2 1-.2 1.3 0 .4-2 .2-2.6.1-.5 0-1 .1-1 .6 0 .1 0 .5.3.6l4.6.1c.4 0 .3-2 .2-2.5 0-.4-1-.3-1.3-.2zm6-19.3c-1 .5-3 2.1-4.1 4.1A9.5 9.5 0 0023 16c0 1.3.2 2.1.4 2.3h1c.2 0 0-3.9 1.6-6.9 1.8-3 4.2-3.7 4.7-3.7.4 0 .3-.7.2-1.1 0-.5-1-.1-2.1.4zm7.8 6.4c-.2 0-1.4.3-2 .9-.5.6-1.6 2.5-1.8 3.1-.2.6-.1 1.5.2 1.6.3.2.7 0 .9-.1.2-.2.2-1.5.7-2.6.6-1.1 2.2-1.9 2.3-2 .2-.1 0-.8-.3-1zm7.6-10.5c-.6 0-.9 1-.6 1.2l2.9.5c.5 0 .9 0 1 .4s0 3.6.2 3.8c.2.1 1.2.5 1.2-.4s.1-4.4-.3-4.7c-.3-.3-3.7-.6-4.4-.8zm-18.6 53c-.4 0-.5.3-.1 1 .3.7 2.5 3 2.8 3 .3 0 .8-.3.5-.8-.4-.4-2.7-3.4-3.2-3.3zm2.3-1.2c-.2 0-.8.6-.6.8l3 4c.4.6.7.7 1.1.5.4-.2-.1-.8-.4-1.4s-3-3.8-3.1-3.9z"/></svg>