<svg xmlns="http://www.w3.org/2000/svg" viewBox="0 0 64 64"><defs/><path d="M63.9 32.3c-.2-7.2-.5-17.5-.9-19-.4-1.6-5.4-8.8-7-10.4-1.8-1.6-5-2.3-7.8-2.4-2.8 0-26-1-32.4-.2S6.8 3.5 5.2 5c-1.5 1.3-3.2 2.5-4 5-.9 2.5-1 9.6-1.1 17.3s0 16.3 0 20c0 3.6 1.6 7.2 3.4 9.5 1.8 2.3 5.6 4.8 7.9 5.5s3 1.2 9.4 1.4c6.4 0 10.7.4 19.4.3 8.6-.2 12-.5 15.7-2.4 3.8-2 6.7-6.4 7.5-8.9s.6-13.2.5-20.4zm-17 27.2c-.2 0-1.3.3-1.5.1l-2-4c0-.3 1.6-.3 1.7-.1.2.2 2 3.9 1.8 4zM14.5 34.8c.1 1.6 1 6.7 4.4 9.4s6.2 3.9 9.2 4.1 7-.4 9.2-1.5c2.2-1.2 5.6-3.6 6.7-6.3 1.2-2.7 2-6.3 2-8 0-1.9.3-4 .4-4 .1 0 8.7-.4 9-.1.1.3.3 12.8 0 16.3-.2 3.5-.2 6.3-1.5 7.3s-1.3 1.4-5.5 1.7-10.1 1-16.5 1-13.9-.1-16.5-.4-4.7-1-5-2.1-.4-8.5-.6-13 0-9.3.3-9.6c.2-.3 4.4-1.4 4.5-1.2.2.1-.2 4.9-.1 6.4zM48 59.2a36 36 0 01-1.9-4c0-.1 1.5 0 1.6 0a20 20 0 012.1 3.5c0 .2-1.6.6-1.8.5zm4.1-1.1c-.2.2-1 .4-1.1.4-.2 0-1.8-3.3-1.9-3.4h1.5c.2.2 1.7 2.8 1.5 3zm1-.6c-.2 0-1.3-2.4-1.4-2.5 0 0 1.1-.6 1.3-.5.3.2 1.3 2.1 1.3 2.1s-1 1-1.2 1zm2.1-1.8c-.3 0-1-1.6-1.1-1.8 0-.2 1.2-1 1.2-1s1.1 1.2 1 1.3-.8 1.6-1 1.5zM57 53c-.2 0-1-1.2-1-1.4s.1-1.6.3-1.7c.1 0 1.5 1.4 1.5 1.6s-.5 1.4-.8 1.5zm2.3-18.5c-.2 7-.1 10.3-.3 12.4-.2 2.1-.7 3.4-.9 3.4-.1 0-1.4-1.9-1.4-2.1l.2-9.8V25.9c-.1-1.3-.5-2-1.3-2-.8-.2-6.4-.3-9.3-.3s-3.7 0-3.8.2c-.2.2-.3 1.6-.2 2l.5 1.7c0 .1.2 6.7-1.1 9.3-1.4 2.6-2.7 5.3-7.3 7-4.7 1.8-7 2.2-11 .8a10 10 0 01-6.6-6c-.7-1.9-1-6.3-.8-9 .2-2.8.4-3.3.8-3.7.5-.5 1-.8.8-1.2s-.4-.6-1.9-1-5.1-.2-6.5-.2-2.2 0-2.6 1.3.4 12.5.6 17.8.5 8.2 1.9 10 2.4 2.5 4.3 2.8 5.6.8 9.3.7l15-.4h5s1.9 3.9 1.7 4c-.1.1-1.2.3-1.3 0-.2 0-1.7-3.5-2-3.5-.5 0-1.1.3-1.1.5s1.8 3 1.7 3c-.2.2-1.8.2-2 0-.1 0-1.2-3.2-1.4-3.2s-.8 0-.9.2c0 .2 1.2 2.9 1 3l-1.3-.1c0-.2-1.2-3-1.4-3s-.7.3-.7.5.8 2.5.7 2.5h-1.7c-.1 0-.8-2.2-1-2.2s-1 .3-1 .5c0 .3.9 1.8.7 1.9-.2 0-7.5.3-13.4 0-6-.1-8.3.3-10.7-.8s-5.2-4.2-6.1-6.5c-1-2.2-1.3-8.3-1-12.8S1.2 29 1.4 23 1.4 9.1 6 5.8c1-.7 3.7-2.5 5.4-3.1 1.8-.6 4.5-1.2 5-.8.4.5.8 2.3 1.1 2.4.4 0 1-.1 1-.6s-1-1.8-.8-1.8c.2 0 .8-.2 1 0 .2 0 2 2.4 2.6 3.9s.5 1.4.7 1.4c.3 0 .5-.2.5-.6 0-.4-.7-2.5-1.4-3.5-.6-1-1-1.5-.8-1.5.2 0 .8-.3 1.1 0s2.1 2.8 2.7 4c.6 1.3.5 1.6.8 1.6.3 0 .7-.1.5-.7s-.9-2.3-1.6-3.4c-.7-1.1-1-1.7-.9-1.7s1.7-.2 2 .1l3 6c.7 1.7 1.2 3 1.5 3s.5-.2.4-.5l-3-6.6s-.6-2-.5-2c-.7-1.6 1.2-.2 1.5 0s2 4 3.2 6.4 2.3 4.6 2.6 4.6.4-.3.2-.7c-.3-.3-2.7-6-3.2-7S29 1.5 29.4 1.5s1.2-.1 1.3.1 2.6 4.3 3.7 7.1 1.3 3.5 1.5 3.5c.1 0 .3-.2.2-.3 0-.1-1.6-4.6-2.5-6.6-.9-2-1.6-3.3-1.3-3.4.2-.1 1.6-.2 1.7 0l3.5 7.4c.7 1.4 1 2.4 1.2 2.4s.4-.3.2-.8l-2.8-7.3c-.6-1.3-.8-1.7-.6-1.7.2 0 1-.2 1.2.2l3.8 8.5c.2 0 .5-.2.5-.4l-2.7-6.9c-.3-1-.5-1.3-.2-1.4s1.5 0 1.6 0c0 .2 2.4 5.7 2.7 5.7.2 0 .4 0 .4-.5 0-.4-1.5-4-1.7-4.3-.1-.3-.4-.7-.1-.7h1.7S44 5 44.3 5c.4 0 .9-.3.7-.9s-1-2-.9-2 1 0 1.2.1c.2.2 1.6 3.4 2 3.5s.7-.3.6-.6l-1.4-3c.2 0 1.4-.1 1.6 0s1.3 3 1.8 3 .7-.5.6-.7l-1-2.2c.3 0 .7-.1 1 .3s2 4.4 2 4.4.9-.5.7-.8c0-.4-1.5-3.5-1.3-3.6.2-.1 1 0 1.6.7s.7 1.8 1 1.8c.3 0 .8-.4 1-.3a9 9 0 012.5 6.3c.1 4 1.4 16.7 1.2 23.6zM12.7 5.1c-.8 0-3.3.9-5.1 2.2S4.5 11.2 4.4 12l.1 3.2c.3.3 1 .2 1.3 0 .3 0 0-1 0-1.8s.6-2.3 1.4-3.5S10 7.3 11 6.8s2-.4 2.3-.7c.3-.3 0-1-.7-1zM42 17.5c-.4-.1-.1-2.6-.2-2.8 0-.3-1.4-.5-1.4-.1 0 .2-.2 3.8 0 4.2.3.4 2.5.5 3 .5s.4-.9.3-1.3-1.3-.3-1.7-.5zM51 6.7c-.7-.2-6.3 0-6.9.2-.5.2-.5 2.1-.5 3.7s0 5.3.3 5.6c.7.8 7.4.6 8.3.3 1-.3.5-6 .4-7.5 0-1.4-.8-2.2-1.6-2.3zM51 15c-.3 0-4.4.2-4.6 0s-.2-4.5 0-4.9c.2-.3 4.7-.3 5 0 .1.3 0 5-.4 5zm-24.8 5.6c.7-.2.4-1 0-1.2-.4-.1-1.8.2-3.6 1.4s-3 2.9-3.2 3.6c-.2.8-.1 1.9 0 2h1c.3 0 .4-2 1.7-3.4a9.8 9.8 0 014.1-2.4zm3.3.4a8.4 8.4 0 00-7 3.1c-2 2.6-2 8.4-1.2 10.9s4.9 4.4 6.5 4.7 7.6-.8 9.2-3.6 1.2-7.3.3-10.2c-1-2.8-4.1-4.6-7.8-5zM36 35.5c-1.5 1.5-4.3 3.1-7.2 3s-5.5-1.6-5-4.8c.4-3.3 1.8-4.5 3.3-5.9 1-1 3.3-2.4 5.2-2.5 2 0 3-.1 4 2s1.2 6.7-.3 8.2z"/></svg>