<svg xmlns="http://www.w3.org/2000/svg" viewBox="0 0 64 64"><defs/><path d="M4.8 20.2c2 1.3 5.7 1.3 8 1.1 2.5-.1 6.2-3 6.5-8.3.2-5.1-3.5-7.8-3.5-7.8C11.4 1.4 5.3 3.5 4 4.3c-1.3.8-4.8 4-3.8 8.2s2.3 6.3 4.6 7.7zM3.1 6.8c1-1.3 3-2.7 7-2.1s5 2.2 6 3.9 1 3 1 3-2.6-4.3-3-4.2-.9.8-.6 1.2c.3.5 3.2 4.3 3 4.6 0 .3-.2 1-.3.8-.1-.2-2.4-4.2-2.7-4.2-.4 0-.8.6-.6 1.1.2.6 2.7 4 2.6 4 0 .2-.5.8-.6.6-.2-.2-2.1-4-2.5-3.8-.4 0-.7.5-.4 1 .2.7 2.3 3.4 2.1 3.6s-.5.5-.7.4c-.1 0-2.1-3.2-2.4-3.2-.3 0-1 .7-.6 1 .3.5 2 2.8 1.9 2.9-.2 0-1.5.3-1.8.2-.2 0-1.1-2.2-1.4-2.2s-1 .5-1 .9c.2.4 1.4 1.4 1 1.6s-3.9-.4-5.5-1.5-3.3-5.6-.5-9.6zm2.4 8c.3-.2.3-.3.3-.7s-1-1-1.2-1.6c-.1-.5 0-2.1.8-3s1-1.3.4-1.6c-.7-.3-2.1.6-2.4 2.4s0 3.4.5 4.1 1.3.7 1.6.4zM9 27.6c-.6-.2-4.4-.2-4.8-.1s-.6 5.2-.6 5.7 0 1.4.5 1.5h1c.2 0 .3-5.1.4-5.5.1-.4 3.8 0 4-.3.2-.1.2-1-.5-1.3zm9-3.1c-1.4-.5-8.5-.7-11-.7s-5.3-.1-5.6.4c-.3.5-.2 10.4-.3 17S.4 57.7.7 58c.2.3 4.2 3.2 4.5 3.4.3.3 1 .4 3.2.3 2.1 0 9 .3 9.9.1.8-.2 1.7-.5 2-1 .3-.7.3-3.7.5-10.5.1-6.8 1.1-15.9 1-19.5s-2.5-5.9-3.9-6.4zM18 33c-.2 0-2.1-3.3-2.5-2.9-.3.4-.4.7 0 1.4.4.6 2.4 3.6 2.4 4v2c-.2 0-2.5-3.8-2.8-3.6s-.6.7-.5 1c0 .1 3.1 4 3.2 4.8 0 .7 0 1.7-.2 1.5-.1-.2-2.3-4.6-2.7-4.4-.4.2-.7 1-.4 1.6.3.5 3 4.2 3 4.4 0 .3 0 2-.2 1.8-.1-.1-2.4-4.3-2.8-4.3-.3 0-.7.9-.5 1.4.1.5 3.4 4.7 3.3 5.2 0 .5 0 2.3-.2 2.2-.2-.1-2.9-5-3.1-5-.3-.2-.7.8-.6 1.2.1.3 3.6 6 3.6 6.5 0 .4 0 3.1-.2 3-.3-.2-3.4-6.3-3.9-6.3s-.6 1-.5 1.4l4.2 6.7c0 .4 0 .7-.4 1h-.6c0-.2-3-5.5-3.5-5.6-.5-.2-.9.5-.8.7 0 .2 3.7 5 3.3 5.3-.3.3-1.3.3-1.6 0-.2-.2-3.2-5.4-3.6-5.4s-1 .9-.8 1.1c.3.3 3.2 4.5 3 4.5s-1.3.3-1.5 0-2.6-4-3-4c-.4 0-.7.5-.7.6S8.8 58 8.5 58s-1.3 0-1.4 0c-.2-.1-1.7-3-2-3s-.8.4-.8.6c0 .2 1.8 2.3 1.4 2.4-.4.1-2.5-.1-2.7-.2s-.9-.8-.9-1.5c0-.6.2-30.4.5-31 .1-.2 6.2 0 9.4.3 3.1.3 5.2-.1 5.7.4.4.6.5 3.3.4 3.2-.2-.2-1.4-2.6-1.8-2.5-.4.1-.8 1-.5 1.4l2.3 3.6V33zm45.8 3.2c-.4-4.3-2.8-7.6-6.1-9.7s-9-2.8-13-2-7.8 4.3-8 4.3 0-3-.1-3.7-1.4-.6-4.7-.7-7.8 0-7.9.3c-.1.8.2 16 .2 21.4s-.2 11.4 0 12.1c.3.7 2.5 3.3 3.3 3.3s8.9-.2 10.3-.3C39 61 39 59.7 39 58s0-15.1.6-19.3c.6-4.2 4-5.7 6.6-5 2.7.6 3.2 3.6 3.7 7.3.6 3.7-.4 14-.5 15.2s.2 4.5.8 4.7c.6.3 10 0 11.5 0s1.8-.2 2-1.2c.3-1 .3-19.1 0-23.5zm-5.1-2.4c0 .2 3.2 5.2 3.2 5.6s0 1.4-.1 1.3c-.2-.1-2.2-4-2.6-4-.4 0-1 .9-.7 1.2l3.1 5.1v2.3c-.2-.2-2.8-4.8-3-4.8-.3 0-.5.8-.5 1.2 0 .3 3.3 5.4 3.3 5.6 0 .1 0 3.3-.3 3.3s-1.2-1.7-2-3.5c-1-1.8-1-2.4-1.5-2.3-.4.1-.3 1.5-.2 1.8l3.4 6c0 .3 0 2.6-.2 2.4-.3-.2-3.1-6.3-3.5-6.3-.3 0-.8 1-.7 1.1.1.2 3.6 6 3.7 6.8 0 .8 0 1.3-.3 1.3a96.5 96.5 0 00-3.9-6c-.1 0-.6 1-.4 1.3.2.3 3 4.5 2.8 4.6l-1.5-.1-2.6-3.7c-.2 0-.8.8-.7 1 .1.2 2 2.6 1.8 2.7H54c-.1 0-1.5-2.7-1.9-2.7-.3 0-.6.7-.6.9s1.4 1.9 1 2h-1.4c0-.1.6-4.6.6-8.4a67 67 0 00-.6-10.4c-.5-2.5-.7-5-2.6-6-1.8-1-5-1.5-7.4 0-2.4 1.5-3.3 3-3.7 3.6L37 38s-1.2-2.3-1.7-1.7c-.5.7-.6 1-.4 1.2.2.2 1.6 1.3 1.6 1.8s.2 2.9 0 2.9-1.7-3.2-2-3c-.4.2-.5 1.4-.5 1.5 0 .1 2.1 3 2.2 3.4l-.1 2c-.1 0-2.3-4-2.5-3.9-.2 0-.7.8-.6 1.1 0 .3 3.2 5 3.2 5.3 0 .2 0 2.8-.2 2.8s-2.8-5.2-3-5.2c-.1 0-.8 1-.7 1.3 0 .3 3.6 5.6 3.7 6v3.2s-3.7-7.3-4-7.3c-.2 0-.8 1-.8 1 0 .1 3.9 6.6 3.9 7l-.1.3s-.3.1-.4 0c0-.1-3-5-3.3-5-.3-.2-1 .6-.9.9.2.2 3.2 4 3 4.2H32c-.2-.1-2.4-4-2.6-4-.3 0-.9 1-.9 1.1l2.2 3h-1.3c-.2-.1-2-3-2.4-3-.4 0-.7 1-.6 1 .2.2 1.7 2.2 1.4 2.2-.2 0-2.3.1-2.3-.4s.4-10.3.3-13.6c0-3.3-.3-17.3-.1-18 0-.2 6.5 0 7.5-.1l2 .1c.1.1-.1 5.4.2 5.6.4.2 1.4-.8 1.7-1 .3-.3 1.8-1.6 5-3.1 3.4-1.6 7.9-2 10.2-1.4s4.8 1.2 6.4 3.4c1.6 2.2 2.8 4 3.1 5.2.3 1.2.3 2.3.1 2.2-.1 0-2-4.8-2.6-4.6-.5 0-.7 1.3-.5 1.5zm-26.1-6.3c-.4-.3-4.4-.2-4.7-.2-.3 0-.4.5-.4.7l.1.8c.1.3 3.4.1 3.8.1s.4 1.7.4 2c0 .4 1.2.2 1.4.2l.1-1.4c0-.8-.4-2-.7-2.2zm13.3 2c-.4.1-.5 1 .1 1.2s3.3.8 4.7 2c1.3 1 1.4 4.2 1.4 4.6 0 .3 1 .5 1.4 0 .4-.4.2-2.7-1.3-5.3-1.5-2.6-6-2.7-6.3-2.6z"/></svg>