<svg xmlns="http://www.w3.org/2000/svg" viewBox="0 0 64 64"><defs/><path d="M63.7 40c-.3-2-3.4-7.5-3.4-7.5s.1-2.4-.7-6.2c-1-3.8-3-7.7-9-13.5S32.4 6.7 32.2 6.7c-.1 0-1.5-2-3.8-3.3a17.9 17.9 0 00-14.1-1.6c-6.8 1.8-10 6.6-11.7 9.4C1 13.9-.9 18.2.5 23.4a15 15 0 005 8 37 37 0 006.7 19.4A33 33 0 0024.7 60c4.7 2 16.7.7 16.7.7 3.4 1.6 7 1.6 10.8.7 3.8-1 7-4.3 9.7-9.7s2.1-9.8 1.8-11.8zM61.3 42a140 140 0 00-8.8-9.5c-.3.1-.5.7-.2 1 .2.1 9 9.2 9 9.5 0 .3 0 2.5-.2 2.4-.2 0-8.6-9.1-8.8-9-.2 0-.5.5-.3 1 .2.3 9 8.6 8.9 9 0 .4-.8 3-1.2 2.8-.3-.3-8.4-9.7-8.6-9.5-.3.2-.7.6-.2 1 .4.5 8.6 8.9 8.6 9.1 0 .3-1.2 2.5-1.4 2.2-.3-.2-8.9-10.2-9.3-10-.4 0-.5.6-.3.9.2.2 9.2 9.4 9 9.6 0 .2-1.6 1.5-2 1.3-.3-.1-8.3-9.7-8.5-9.6-.3.1-.8 1-.6 1.2.2.2 8.6 8.7 8.5 9s-2 1.6-2.2 1.4c-.3-.2-8.6-9-8.7-8.9-.2 0-.7.6-.4 1 .2.2 8.5 8 8.2 8.4-.3.2-2.2 1-2.5.8-.3 0-6.5-7-7-7-.6 0-1 .7-.6 1 .4.2 6.4 6.3 6 6.3-.5 0-2.7 0-3-.2-.4-.2-5.1-6.3-5.6-6.3s-.9.6-.4 1c.5.5 4.4 5 4 5-.5-.1-1.9-1-2.1-1h-1s-4.2-4.5-4.4-4.5c-.3 0-1 .4-.8.6.2.2 3.9 3.8 3.6 4.1-.2.3-1.9.5-2 .3-.3-.2-3.8-4.1-4.2-4-.5.2-1.1.4-.7.7.3.3 3.8 3.4 3.3 3.4l-1.8-.1c-.3-.2-3.8-2.8-4.6-2.8-.7 0-1.2.4-.8.7.5.2 3.2 1.9 2.7 2-.6.1-5-.7-8-1.9-2.9-1.2-6.7-3.6-9.2-6.9s-4-7-4.6-10.1l-1-6.7S3 27.3 2 24s-.8-7.7 1.8-12c2.7-4.4 7.8-8.7 11.6-9.4C19 1.8 26.4 3 29 5.2 31.4 7.3 32 8 32 8s12.2 1.2 16.4 4.8 4.4 4 4.4 4-1.5-1-1.6-.8c-.2.2-.4.8.7 1.9 1.1 1 1.5 2 2 1.9.4-.1 0-1 0-1s3 3.6 3.4 5.1c0 0-4.9-4.9-5.1-4.6-.2.3 0 1.4.4 1.8.3.3 5.2 4.4 5.3 4.7.2.2 1 3.6.7 3-.3-.7-6.3-6-6.6-5.9-.3.2-.5.7-.2 1l6.9 6c0 .3-.1 3 .2 3.3.4.4 1.4 2.3 1.2 2-.2-.2-8-8-8.5-8-.4.1-.5.6-.4.8.2.2 9.4 8.2 9.5 8.5l.7 3.2v2.4zM9.8 11.5c-1.3.5-3.5 2.4-4.8 4.9-1.3 2.5-1.1 5.9-.7 6.2.7.5 1.3-.2 1.3-1s0-3.2 1-5.1 3.6-3.7 4.5-4.1c1-.5 1.2-.8 1-1.3-.4-.4-1-.2-2.3.4zm6.6 9.4c-1 .6-2 3-2.1 4.6-.1 1.7.8 3.4 1.2 3.5.6.1 1-.2 1.1-.6.1-.5-.6-1.5-.7-2.5s1-2.5 1.4-3.6c.5-1 0-2-1-1.4zm26.5-7.2c-.5.1-.8.5-.7.9.2.4 1.5 1.1 3.3 2.3 1.8 1.2 2.2 4.2 2.5 4.7.2.6.7.4 1 0 .4-.3.1-1-1.2-4-1.4-3.1-4.5-4-5-3.9zM41 18.2a21 21 0 00-12.8-1.9c-3.9.6-7.7 2.7-8.9 6.9-1.2 4 1.4 7.4 3 8.8 1.7 1.3 7.6 3 9.8 3.8 2.3.8 3.3 2.8 2.7 4-.6 1.3-1.7 1.5-4.7 1.1-3-.4-6.6-3.9-9.4-4.3-2.7-.5-3.4 2.6-3 4.7.3 2.1 2.5 4.8 6.5 6.4 4 1.6 9.3 1.2 12.8 0 3.5-1 6.2-3.2 7-7.7 1-4.4 0-5.9-2.8-7.8-2.9-1.9-10.2-3-12.2-3.6-2-.7-1.9-3.2-1-4 1-.8 4.5-2 6-1.6 1.3.5 5 4 6.8 4.6 1.8.7 3.5-1.3 4-2.6.5-1.4.4-4.3-3.8-6.8zm2.4 6.9c-.5 1.1-1.8 2-4 .3s-3.5-4.2-6.9-3.9c-3.3.3-5.5 1.8-6 3-.7 1.3-.6 4.2 1.6 5.2s8.4 2.1 11.3 3.5c2.8 1.3 4.4 2 3.2 6.2-1.3 4.3-3 6.5-7.2 7.5s-8.3.7-10.6-.3c-2.3-1-4.1-3-4.3-4.3-.2-1.1-.2-3 2-2 2.2 1.2 4.2 3.4 8.6 3.2 4.3-.2 6.2-1.5 5.6-4.2-.5-2.6-1.4-3.9-4-5-2.7-1-7.2-2.3-9-4.1-1.8-1.8-1.6-5.7-.3-7.3s3.5-3.7 9.2-3.5c2.2 0 5.8.3 8.7 1.9 2.8 1.6 2.5 2.7 2 3.8z"/></svg>