<svg xmlns="http://www.w3.org/2000/svg" width="64" height="64"><defs/><path d="M61 16.2C55.7 1.7 35-1.2 28.8.4c-4 1-17.4 2-23.9 14.2C-1.8 26.8-2.7 44.6 9 55s28.6 12.5 42.3 2.3S66.6 30.7 61 16.2zm-.2 20.3c0 .3-1 2.6-1 2.6s-5-6.3-5.2-6.3-.6 1-.4 1.2l5 6.2-1.3 2.3s-4.3-5.8-4.6-5.9c-.3 0-1 .5-.7.7.2.3 4.8 5.8 4.5 6.3s-2 2-2 2-3.6-5.4-3.8-5.4c-.3-.1-1.2.7-1 1.2.3.4 3.9 5.3 3.6 5.6-.2.4-2 2.2-2 2.2s-2.9-5-3.2-5c-.3-.2-1.2.9-1 1 .3.2 3.6 4.8 3.5 5-.2.4-2 1.7-2 1.7l-3-4.5-1 1s2.6 4.2 2.5 4.6c0 .4-2.3 1.5-2.3 1.5L42.8 50s-1.1.5-1.1.7c0 .3 2.6 4.8 2.6 4.8l-2 .9s-2.4-4.8-2.6-4.9c-.2 0-1.1-.1-1 .5s2.2 5 2.2 5l-2 .6s-2.1-4.3-2.4-4.5c-.2-.1-1.2.3-1 .5 0 .2 2.3 4.7 2 4.8l-2.8.3s-1.8-4.2-2-4.2c-.3-.1-1 .1-1 .5s1.5 3.9 1.5 3.9h-2.1s-1.5-3-1.8-3.3c-.3-.3-1.3.3-1 .5.1.3 1.3 3 1.1 3-.2.1-10.1.8-18.9-6.6S.5 33.6 1.7 26.7C2.9 20 8.4 8 19 4.3 22.8 3 29.6-.3 40.5 2.4s16.5 10.4 17.4 12 1.7 4.4 1.7 4.4-3.7-4.7-4.2-4.8c-.6 0-.9.8-.7 1.2.3.4 4.9 5 5.2 5.5.3.5 1 3.8 1 3.8s-4.2-5.3-4.7-5.4c-.4-.1-.7.8-.6 1l5.5 6.2.5 3.6s-5-6-5.4-6c-.3 0-.5 1.1-.5 1.1s5.5 6 5.5 6.3l.2 3.4s-5.2-6.3-5.6-6.3-.5 1.3-.5 1.3 5.6 6.6 5.5 6.8zM14.4 13.7c2.8-3.7 6.5-5 6.5-5s-.5-1-.8-1.2c-.3 0-3.1 1-6.6 4.7S9 18.6 9.3 19.1c.1.4 1 .8 1.6.6.4-.2.8-2.3 3.5-6zM43.3 16c-1.9.2-26.7 11.4-29.9 13.4-3.2 2-2.6 4.1-1.8 5.2s8.5 3 8.5 3c.6.4 5 9.7 5.7 9.8.7 0 5.6-6.6 6-6.8.5-.1 3 1 4.6 1.5 1.7.5 5.5 2.2 6.9 1 1.3-1 3.6-17.5 4.2-22.1.5-4.6-2.4-5.2-4.2-5zm1.5 3.4a17 17 0 01-1.5 1.7l-.2-1.4 1.5-1.4.2 1.1zM12.7 32.1c.4-1.4 3.7-2.5 7.4-4.5s22.8-10.2 23.4-10.3.2.7.2.7S21.2 36 20.8 36c-.4 0-8.8-1.3-8.1-4zm29.8-10l-1.8 2s-.5-2-.4-2.2c0 0 1.7-1.6 1.8-1.4 0 .2.5 1.4.4 1.6zM40 25.6l-1.4 1.8-1-3.2s1.6-1.5 1.7-1.3l.7 2.7zm-7.4 2.7c.2 0 1.3-1.3 1.4-1.1.2.1 1.6 4.3 1.5 4.5 0 .2-1 1.4-1 1.4l-1.9-4.8zm1.2 5.8l-1 1.1-2-5.2c0-.2 1-1 1-1l2 5.1zm1.1-8c.3-.1 1.3-1.1 1.3-1.1l1.3 3.6-1.1 1.6-1.5-4zm-9 19.5l-4-8.5 1.8-1.2s3.4 8 3.3 8.4c0 .4-1.2 1.3-1.2 1.3zm2-2.3s-3.3-8-3.1-8.3a5 5 0 011.2-1.1c.1 0 3.2 7.8 3.1 8L28 43.3zm1.8-2.4c0-.2-3-7.4-2.8-7.7.2-.3 1-.8 1-.8l2.5 7.4s-.6 1.3-.7 1zm1.1-3.3s-2-5.7-2-6.1l1.1-.8c.2 0 2.2 5 2.2 5.3 0 .2-1.3 1.6-1.3 1.6zm10.8 4.1c-1.1.6-9.5-2.6-9.5-3 0-.3 13.2-18.4 13.7-18.8.3-.3-3.1 21.3-4.2 21.8z"/></svg>