<svg xmlns="http://www.w3.org/2000/svg" xmlns:xlink="http://www.w3.org/1999/xlink" width="64" height="64"><defs/><defs><path id="a" d="M403.8 516.6a17.5 17.5 0 004.9 13.5 35 35 0 017.5-8.3c2.3-1.9 4.7-3.1 7.1-4a99 99 0 00-1.7-3.8 69.5 69.5 0 01-17.8 2.6zm.2-1.5c1-6 5.1-11 10.7-13.2a69.5 69.5 0 016.3 10.8 68.2 68.2 0 01-17 2.4zm12.2-13.7a17.3 17.3 0 0116.5 4l-.4.5c-.9 1.2-2.3 2.5-4.2 3.7-1.6 1-3.5 1.8-5.7 2.6a92.8 92.8 0 00-6.2-10.8zm17.6 5a17.2 17.2 0 014.5 11.6 20.4 20.4 0 00-6-1.3c-2.6-.1-5 0-7.5.7a100.5 100.5 0 00-1.7-3.8 30 30 0 005.8-2.7 16.2 16.2 0 005-4.5zm4.4 13.2a17.3 17.3 0 01-8.3 13.2 95.4 95.4 0 00-4.5-14 20.9 20.9 0 0112.8.8zm-9.7 14a17.2 17.2 0 01-18.7-2.5c2.2-3.4 4.7-6.1 7.3-8.1 2.2-1.8 4.5-3 6.8-3.8 1.9 4.6 3.4 9.4 4.6 14.4zm11.3-15.6a18.7 18.7 0 10-37.5 0 18.7 18.7 0 0037.4 0z"/></defs><g fill="none" fill-rule="evenodd"><path fill="#aa3752" d="M3.2 0h57.6C62.6 0 64 1.4 64 3.2v57.6c0 1.8-1.4 3.2-3.2 3.2H3.2A3.2 3.2 0 010 60.8V3.2C0 1.4 1.4 0 3.2 0z"/><g transform="matrix(1.06667 0 0 1.06667 -417 -520.5)"><use width="100%" height="100%" fill="#fff" xlink:href="#a"/><use width="100%" height="100%" xlink:href="#a"/></g></g></svg>