<svg xmlns="http://www.w3.org/2000/svg" width="64" height="64"><defs/><g fill="none" fill-rule="evenodd"><path fill="#3498db" d="M3.2 0h57.6C62.6 0 64 1.4 64 3.2v57.6c0 1.8-1.4 3.2-3.2 3.2H3.2A3.2 3.2 0 010 60.8V3.2C0 1.4 1.4 0 3.2 0z"/><path fill="#000" fill-opacity=".4" d="M63 1c.6.5 1 1.3 1 2.2v57.6c0 1.8-1.4 3.2-3.2 3.2H3.2c-.9 0-1.7-.4-2.3-1z"/><path fill="#fff" d="M45 30.7h4.3c-.1-1.1-1-2-2-2-1.3 0-2 .8-2.3 2zm-6.5 3.8c1.5 0 1.9-1.6 1.9-2.8 0-1.5-.6-2.7-2-2.8-1.4 0-1.9 1.4-1.9 2.8 0 1.3.5 2.8 2 2.8zM55 28c0-1.5-1.2-2.7-2.6-2.7-.7 0-1.4.4-1.8.9a6.5 6.5 0 00-7.7 0 2.7 2.7 0 00-3.3-.3c-1-1.9-3-3.1-5.1-3.1-2 0-3.8 1-4.8 2.6a4.8 4.8 0 00-6-.8c0-1.8-1.4-3.3-3.1-3.3a3.2 3.2 0 00-3.2 3.3v.1a6.8 6.8 0 00-3.9.6c-.4-.3-1-.4-1.6-.4-2 0-3.5 1.6-3.5 3.6 0 1 .5 2 1.2 2.6v.7c0 4 3 7.1 6.8 7.1 1.5 0 2.8-.5 4-1.3A5.5 5.5 0 0025 40c.5 1.5 2 2.7 3.6 2.7 1.7 0 3.1-1.2 3.7-2.8.5 1.2 1.7 2 3 2 1.7 0 3.1-1.3 3.4-2.9h.8c1.3 0 2.6-.5 3.5-1.4 1 .8 2.4 1.2 3.8 1.2 3.7 0 6.7-3 6.7-7 0-.4 0-.9-.2-1.3 1-.4 1.7-1.4 1.7-2.5zm-3.5 3.1c0 .9-.2 1.1-1 1.1H45c0 1.3.9 2.3 2.3 2.3 1.8 0 1.8-1.2 2.8-1.2.6 0 1 .5 1 1 0 1.5-2.4 2.2-3.8 2.2-2.8 0-4.2-1.6-4.6-3.4-.4 1.9-1.5 3.4-3.6 3.4-1.1 0-2-.5-2.4-1.3v3.4c0 .8-.5 1.3-1.3 1.3-.7 0-1.2-.5-1.2-1.3v-9.5l-2.7 8.1c-.6 1.8-1.3 2.7-2.8 2.7-1.1 0-1.6-.6-1.6-1.2 0-.7.5-1 1.1-1h.3c.3 0 .7 0 .8-.8l-2.5-7.6-.2-.6-.2.2-1.8 2 2.5 3.5c.1.2.3.4.3.9 0 .6-.5 1.2-1.2 1.2-.6 0-.9-.3-1-.6l-2.4-3.4-.8.8v2c0 .8-.5 1.2-1.2 1.2-.8 0-1.3-.4-1.3-1.3v-1c-.4 1.6-2 2.3-3.6 2.3-2.2 0-4-1-4-2.3 0-.5.3-1 1-1 1 0 1 1.5 2.9 1.5.9 0 1.4-.4 1.4-.9 0-.6-.5-.7-1.4-1l-1.4-.3c-1.4-.4-2.6-1-2.6-2.7 0-2 2-2.9 3.7-2.9 1.9 0 3.7.8 3.7 2 0 .6-.3 1-1 1-1 0-1-1-2.5-1-.9 0-1.4.2-1.4.7 0 .6.5.7 1.3 1l1 .2c1.2.2 2.5.7 3 2v-8c0-.8.4-1.3 1.2-1.3.7 0 1.2.5 1.2 1.3v5.8l2.7-3.2c.2-.2.6-.5 1-.5.3 0 .7.3 1 .7.1-.4.5-.7 1-.7.6 0 1.1.4 1.2 1l1.6 6L32 28c.2-.7.5-1.2 1.2-1.2.6 0 1 .3 1.1.7.1-.4.5-.7 1-.7.7 0 1.1.5 1.1 1.2v.4c.4-1 1.4-1.6 2.6-1.6 1.8 0 3.3 1.2 3.7 3.6.5-2.2 2-3.6 4.5-3.6 2.8 0 4.4 2.1 4.4 4.2zm.8-4h.4l.4 1.1.3-1h.5v1.5h-.3v-1.1l-.4 1.1h-.2l-.4-1v1h-.3v-1.6zm-1.5.3v-.3h1.3v.3h-.5v1.3h-.3v-1.3z"/></g></svg>