<svg xmlns="http://www.w3.org/2000/svg" width="60" height="60"><defs/><g fill="none" fill-rule="evenodd"><path fill="#ca4638" d="M1.2-2h57.6C60.6-2 62-.6 62 1.2v57.6c0 1.8-1.4 3.2-3.2 3.2H1.2A3.2 3.2 0 01-2 58.8V1.2C-2-.6-.6-2 1.2-2z"/><path fill="#000" fill-opacity=".4" d="M61-1c.6.5 1 1.3 1 2.2v57.6c0 1.8-1.4 3.2-3.2 3.2H1.2c-.9 0-1.7-.4-2.3-1z"/><path fill="#fff" d="M50.5 21.5s-.4-2.8-1.6-4c-1.6-1.6-3.3-1.7-4.1-1.8-5.8-.4-14.3-.4-14.3-.4s-8.6 0-14.4.4c-.8.1-2.5.2-4 1.8-1.3 1.2-1.7 4-1.7 4S10 25 10 28.2v3c0 3.4.4 6.7.4 6.7s.4 2.8 1.6 4c1.6 1.7 3.6 1.6 4.5 1.8 3.3.3 14 .4 14 .4s8.5 0 14.3-.4c.8-.1 2.5-.1 4-1.8 1.3-1.2 1.7-4 1.7-4s.4-3.3.4-6.6v-3.1c0-3.3-.4-6.7-.4-6.7zM26.2 35V23.5l11 5.8z"/></g></svg>