<svg xmlns="http://www.w3.org/2000/svg" width="64" height="64"><defs/><g fill="#bc001c"><path d="M32 0a32 32 0 100 64 32 32 0 000-64zm21.2 53.2a29.8 29.8 0 01-42.4 0 29.8 29.8 0 010-42.4 29.8 29.8 0 0142.4 0 29.8 29.8 0 010 42.4z"/><path d="M32.8 17.3c-9 0-13.6 6.4-13.6 11.8 0 3.3 1.2 6.2 3.9 7.3.4.2.8 0 1-.5l.3-1.5c.2-.5.1-.6-.2-1-.8-1-1.3-2.1-1.3-3.8a9 9 0 019.4-9c5 0 7.9 3 7.9 7.2 0 5.5-2.5 10-6 10-2 0-3.5-1.6-3-3.6.5-2.4 1.6-5 1.6-6.7 0-1.6-.8-2.9-2.5-2.9-2 0-3.7 2.1-3.7 5 0 1.8.6 3 .6 3l-2.4 10.3c-.8 3-.2 6.8-.1 7.2 0 .3.3.3.4.1.2-.2 2.7-3.2 3.5-6.2l1.3-5.2c.7 1.3 2.6 2.4 4.7 2.4 6 0 10.2-5.6 10.2-13 0-5.7-4.8-11-12-11z"/></g></svg>