<svg xmlns="http://www.w3.org/2000/svg" width="64" height="64" fill-rule="evenodd" stroke-linejoin="round" stroke-miterlimit="2" clip-rule="evenodd" viewBox="0 0 512 512"><defs/><path fill="#1a1a1a" d="M372.7 306.8c-6.3-3.2-37.5-18.5-43.3-20.6-5.8-2.1-10-3.2-14.2 3.2a369.9 369.9 0 01-20.1 24.8c-3.7 4.3-7.4 4.8-13.8 1.6-6.3-3.2-26.7-9.9-51-31.5a191 191 0 01-35.2-43.9c-3.7-6.3-.4-9.7 2.8-13 2.8-2.7 6.3-7.3 9.5-11s4.2-6.4 6.3-10.6c2.1-4.2 1-8-.5-11.1-1.6-3.2-14.3-34.4-19.5-47-5.2-12.4-10.4-10.8-14.3-11l-12.2-.2c-4.2 0-11 1.6-16.9 8-5.8 6.3-22.2 21.6-22.2 52.8 0 31.3 22.8 61.4 26 65.6 3.1 4.3 44.6 68.3 108.2 95.7a364 364 0 0036.2 13.4c15.2 4.8 29 4.1 39.9 2.5 12.2-1.8 37.5-15.3 42.8-30.1 5.3-14.8 5.3-27.5 3.7-30.2-1.6-2.6-5.8-4.2-12.2-7.4m-115.6 158h-.1c-37.9 0-75-10.2-107.3-29.4l-7.7-4.6-79.9 21 21.3-77.9-5-8A211.2 211.2 0 01257.1 43c56.4 0 109.3 22 149.1 61.8a211.2 211.2 0 01-149.2 360M436.6 74.5A252 252 0 00257.1 0 254 254 0 0037.2 380.5L1.2 512l134.5-35.3a254 254 0 00375-222.8c.1-67.8-26.3-131.5-74.2-179.5"/></svg>