<svg xmlns="http://www.w3.org/2000/svg" width="64" height="64"><defs/><g fill="none" fill-rule="evenodd"><path fill="#ce6f2d" d="M3.2 0h57.6C62.6 0 64 1.4 64 3.2v57.6c0 1.8-1.4 3.2-3.2 3.2H3.2A3.2 3.2 0 010 60.8V3.2C0 1.4 1.4 0 3.2 0z"/><path fill="#fff" d="M20.6 15h22.8c3.1 0 5.7 2.5 5.7 5.6v22.8c0 3.1-2.6 5.7-5.7 5.7H20.6a5.7 5.7 0 01-5.7-5.7V20.6c0-3.1 2.6-5.7 5.7-5.7zm21 14.2h4.6v14.2c0 1.5-1.3 2.8-2.8 2.8H20.6a2.9 2.9 0 01-2.8-2.8V29.2h4.7a10 10 0 1019 0zm-9.6 10a7.1 7.1 0 100-14.3A7.1 7.1 0 0032 39zm5.7-20c0-.8.6-1.4 1.4-1.4h5.7c.8 0 1.4.6 1.4 1.4v5.7c0 .8-.6 1.4-1.4 1.4h-5.7c-.8 0-1.4-.6-1.4-1.4z"/></g></svg>