<svg xmlns="http://www.w3.org/2000/svg" width="60" height="60"><defs/><g fill="none" fill-rule="evenodd"><path fill="#ca4738" d="M1.2-2h57.6C60.6-2 62-.6 62 1.2v57.6c0 1.8-1.4 3.2-3.2 3.2H1.2A3.2 3.2 0 01-2 58.8V1.2C-2-.6-.6-2 1.2-2z"/><path fill="#fff" d="M33 39.7c7 0 11.8-6.6 11.8-15.3 0-6.7-5.5-12.9-14-12.9-10.3 0-15.6 7.7-15.6 14 0 3.9 1.5 7.3 4.5 8.6.5.2 1 0 1.1-.6l.5-1.8c.1-.6 0-.8-.4-1.2-.8-1.1-1.4-2.5-1.4-4.4 0-5.7 4.1-10.7 10.8-10.7 5.9 0 9.1 3.6 9.1 8.5 0 6.5-2.8 12-7 12-2.2 0-4-2-3.4-4.4.7-2.8 2-5.9 2-8 0-1.8-1-3.3-3-3.3-2.4 0-4.2 2.5-4.2 5.8 0 2.1.7 3.6.7 3.6l-2.9 12.1c-.3 1.7-.4 3.5-.3 5 .1 1.4 1.4 2.6 2.6 1 .8-1.3 1.7-3 2.1-4.6l1.6-6.2c.8 1.5 3 2.8 5.3 2.8z"/></g></svg>