<svg xmlns="http://www.w3.org/2000/svg" width="64" height="64"><g style="fill:none;fill-rule:evenodd;stroke:none;stroke-width:1"><path d="M903 500h54a3 3 0 0 1 3 3v54a3 3 0 0 1-3 3h-54a3 3 0 0 1-3-3v-54a3 3 0 0 1 3-3Z" style="fill:#424242" transform="matrix(1.06667 0 0 1.06667 -960 -533.3)"/></g><path d="M35.1 29.3 47.6 15h-3L33.8 27.4 25.2 15h-10l13 19-13 15.1h3l11.4-13.2L38.7 49h10L35 29.3Zm-4 4.7-1.3-1.9-10.5-15h4.5l8.5 12.1 1.3 2 11 15.7h-4.5L31 34Z" style="fill:#fff;stroke-width:.0278402"/></svg>