<svg xmlns="http://www.w3.org/2000/svg" width="64" height="64" version="1.0"><defs/><path fill="#e94c89" d="M32 64a32 32 0 110-64 32 32 0 010 64zm27-27.6a40 40 0 00-17-1.2c3.6 10 5 18 5.2 19.6A27.5 27.5 0 0059 36.4zM42.6 57.2a114 114 0 00-5.8-20.8C21 42 15.6 52.8 15 53.8a27.2 27.2 0 0027.4 3.6zm-31-6.8A43.4 43.4 0 0135 32l-2.2-4.6c-13.6 4-27 4-28 3.8v.8c0 7 2.6 13.4 6.8 18.4zm-6.4-24c1.2 0 12.6 0 25.4-3.2-4.6-8-9.6-15-10.2-16A27.4 27.4 0 005.2 26.4zm20.4-21a146 146 0 0110.2 16c9.8-3.6 14-9.2 14.4-9.8a27.2 27.2 0 00-24.6-6zm27.6 9.4c-.6.8-5.2 6.6-15.4 10.8a86 86 0 012.4 5.4 64 64 0 0119.2.8c0-6.4-2.4-12.4-6.2-17z"/></svg>