<svg xmlns="http://www.w3.org/2000/svg" width="64" height="64"><defs/><g fill="none" fill-rule="evenodd"><path fill="#1a1a1a" d="M20.5 18.3L17.7 15s1-2.4 3.2-4.3C11.4 6.4-1.6 11.8-1.4 8.2c.6-7.8 17-9.9 23.6 1.2 1.3-.8 3.2-1.2 5.2-1.2l3.1 3.6a26 26 0 11-10 6.5zM-.3 8.2c-.2 1.7 11.5-2.4 21.8 1.6C17.5 3 9 2.6 8.3 2.6c-.8 0-8.2.7-8.6 5.6zm0 0"/><path fill="#fff" fill-opacity=".3" d="M35.3 26l-1.2 3.8 4.6 4.6v-6.5zm.5 1.3l-.8 2.1 3 3.3-.2-4.4zm7.8-1.2L40 28v6.5l4.6-4.5zm5.8 6l-3.7-1.3-4.7 4.6h6.5zm0 8.2l-1.9-3.5H41l4.6 4.6zm-6 5.8l1.2-3.7-4.6-4.6v6.5zm-8.3 0l3.5-1.8v-6.5L34 42.3zm-5.8-6l3.7 1.2 4.7-4.5-6.5-.1zm.1-8.2l1.8 3.4h6.5L33 30.8zm13.7-4.6l-2 1-.3 4.5 3-3.3zm5 5.2l-2-.7-3.4 3 4.5-.3zm0 7.3l-1-2-4.4-.3 3.3 3zM43 44.9l.8-2.1-3-3.4.2 4.5zm-7.3 0l2-1 .3-4.5-3 3.3zm-5-5.3l2 .8 3.4-3-4.4.2zm0-7.2l1 2 4.4.3-3.2-3zm0 0M39.4 16.3a1 1 0 100-2 1 1 0 000 2zm14 5.8a1 1 0 101.4-1.4 1 1 0 00-1.4 1.4zm5.8 14a1 1 0 102 0 1 1 0 00-2 0zm-5.8 14a1 1 0 101.4 1.5 1 1 0 00-1.4-1.4zm-14 6a1 1 0 100 2 1 1 0 000-2zm-14-6a1 1 0 10-1.5 1.5 1 1 0 001.4-1.4zm-6-14a1 1 0 10-2 0 1 1 0 002 0zm6-14a1 1 0 10-1.5-1.4 1 1 0 001.4 1.4zm0 0M31.6 29.8h.1s.7.8 1.4 0c.7-.7 0-1.4 0-1.4v-5s0-1-1-1-1 1-1 1v3l-1.5-1.5v-2.5s0-.5-.5-.5-.5.5-.5.5V24l-1.1-1.1s-.7-.7-1.4 0c-.8.7 0 1.4 0 1.4l1 1h-1.4s-.5 0-.5.6c0 .5.5.5.5.5H28l1.5 1.5h-2.9s-1 0-1 1 1 1 1 1zM29.5 37s1 0 1-1-1-1-1-1L26 31.6s-.7-.7-1.4 0 0 1.4 0 1.4l2 2h-2.1l-1.7-1.7s-.4-.3-.8 0c-.3.4 0 .8 0 .8l1 1h-1.5s-1 0-1 1 1 1 1 1h1.6l-1 1s-.4.4 0 .7c.3.4.7 0 .7 0l1.7-1.7h2.1l-2 2s-.7.8 0 1.5 1.4 0 1.4 0zm3.6 6.7s.7-.8 0-1.5-1.4 0-1.4 0h-5s-1 0-1 1 1 1 1 1h3L28 46h-2.4s-.5 0-.5.5.5.5.5.5H27l-1 1s-.8.8 0 1.5c.7.7 1.4 0 1.4 0l1-1.1v1.5s0 .5.6.5c.5 0 .5-.5.5-.5v-2.5l1.5-1.5v3s0 1 1 1 1-1 1-1zm7.3 2.2s0-1-1-1-1 1-1 1l-3.5 3.5s-.7.7 0 1.4 1.4 0 1.4 0l2-2v2l-1.7 1.8s-.3.3 0 .7c.4.3.7 0 .7 0l1-1v1.5s0 1 1 1 1-1 1-1v-1.5l1 1s.4.3.8 0c.4-.4 0-.7 0-.7L40.4 51v-2.2l2 2s.7.8 1.4 0c.7-.6 0-1.3 0-1.3zm6.7-3.6s-.8-.8-1.5 0c-.7.6 0 1.3 0 1.3v5.1s0 1 1 1 1-1 1-1v-3l1.6 1.5v2.5s0 .5.5.5.5-.5.5-.5v-1.5l1 1.1s.8.7 1.5 0 0-1.4 0-1.4l-1.1-1.1H53s.5 0 .5-.5-.5-.5-.5-.5h-2.4L49 44.4H52s1 0 1-1-1-1-1-1zm2.2-7.3h-.1s-1 0-1 1 1 1 1 1l3.5 3.5s.7.7 1.5 0c.7-.7 0-1.5 0-1.5l-2.1-2h2.1l1.8 1.7s.3.4.7 0c.3-.3 0-.7 0-.7l-1-1h1.5s1 0 1-1-1-1-1-1h-1.6l1-1s.4-.4 0-.8c-.3-.3-.6 0-.6 0l-1.8 1.8h-2.1l2-2s.8-.8 0-1.5c-.7-.7-1.4 0-1.4 0zm-3.6-6.7h-.1s-.7.7 0 1.4c.7.8 1.4 0 1.4 0h5s1 0 1-1-1-1-1-1h-3l1.6-1.5H53s.5 0 .5-.5-.5-.5-.5-.5h-1.4l1-1.1s.8-.7 0-1.4c-.6-.7-1.3 0-1.3 0l-1.1 1v-1.4s0-.5-.5-.5-.5.5-.5.5V25l-1.5 1.5v-3s0-1-1-1-1 1-1 1zm-7.3-2.2s0 1 1 1 1-1 1-1l3.4-3.5s.7-.7 0-1.4-1.4 0-1.4 0l-2 2v-2l1.7-1.8s.4-.4 0-.7c-.4-.4-.7 0-.7 0l-1 1v-1.5s0-1-1-1-1 1-1 1v1.5l-1-1s-.4-.4-.8 0c-.3.3 0 .7 0 .7l1.8 1.7v2.2l-2.1-2.1s-.7-.7-1.4 0 0 1.4 0 1.4zm0 0"/><g><path fill="#fff" d="M49.5 35.3H29.2c-3.2 0-5.8 2.3-5.8 5.6v5.6c0 3.2 2.6 5.8 5.8 5.8h20.3c3.2 0 5.9-2.6 5.9-5.8v-5.6c0-3.2-2.7-5.6-5.9-5.6zm0 0"/><path fill="#000" d="M33.2 39.8h-2v9h-1.9v-9h-2v-1.5h5.9zm5 9.5h-1.7v-.9c-.3.3-.6.6-1 .7-.3.2-.6.3-1 .3-.3 0-.6-.1-.8-.4-.2-.2-.3-.6-.3-1v-6.6h1.7v6.4l.4.2c.2 0 .3 0 .5-.2l.5-.4v-6h1.7v7.9zm7-1.9c0 .6 0 1-.4 1.3-.2.3-.6.7-1.1.7l-1.3-.2-.8-.5v.6H40V38.5h1.7V42l.8-.6 1.2-.2c.5 0 1 0 1.2.3.3.4.4.9.4 1.5v4.3zm6.1-2h-3.2V47c0 .4 0 .7.2.8.1.2.3.3.6.3.2 0 .4 0 .6-.2l.1-1v-.3h1.7v.4c0 .8-.2 1.4-.6 1.8-.4.4-1 .6-1.9.6-.7 0-1.3-.2-1.7-.6-.5-.4-.7-1-.7-1.8v-3.5c0-.7.2-1.2.7-1.6.5-.5 1.1-.7 1.9-.7.7 0 1.3.2 1.7.6.4.4.6 1 .6 1.7v2zm-2.4-3c-.3 0-.5.2-.6.3l-.2.7v.8h1.5v-.8c0-.3 0-.6-.2-.7l-.5-.2zm-6.6.2H42l-.4.3v4.9l.4.2.4.1 1-.1.1-.6v-4c0-.3 0-.5-.2-.6l-1-.2zm0 0"/><path fill="#fff" d="M44.4 33.3c.4 0 .7 0 1.1-.3.4-.2.7-.4 1-.8v1h1.9v-9h-1.8V31l-.6.5a1 1 0 01-.5.2l-.4-.1-.1-.5v-7h-1.8v7.6c0 .6 0 1 .3 1.2.2.3.5.4 1 .4zm-5.3.1c.8 0 1.5-.2 2-.6.4-.5.6-1 .6-1.8v-4.7c0-.7-.2-1.3-.7-1.7-.5-.4-1-.6-1.8-.6a3 3 0 00-2 .6 2 2 0 00-.7 1.6V31c0 .8.2 1.4.7 1.8.4.5 1 .7 1.9.7zm-.8-7.2l.2-.5.6-.2c.2 0 .4 0 .6.2l.2.5V31c0 .2 0 .4-.2.6l-.6.2-.6-.2a.8.8 0 01-.2-.6v-5zm-6.4 7h2v-5.8l2.4-7.1h-2L32.8 25l-1.4-4.8h-2l2.4 7.3v5.6zm0 0"/></g></g></svg>