<svg xmlns="http://www.w3.org/2000/svg" width="64" height="64" version="1.0"><defs/><path fill="#00aaf1" d="M62.2 38.8a30.3 30.3 0 00-35-36A17.8 17.8 0 000 17.4c0 3.2.9 6.2 2.4 8.8A30.3 30.3 0 0038 61.9c2.5 1.3 5.4 2 8.4 2C56.1 64 64 56.3 64 46.6a17 17 0 00-1.8-7.7z"/><path fill="#fff" d="M23.9 13.4c-2.3 1-4 2.3-5.3 4a10.5 10.5 0 00-1.9 6.2c0 2.4.6 4.4 1.8 6a12 12 0 004.7 3.8c2 1 4.3 1.7 7.1 2.4l5 1.4c1.2.4 2.2 1 3 1.8a4 4 0 011 2.8c0 1.5-.6 2.8-2 3.8a9 9 0 01-5.5 1.6c-1.6 0-3-.3-4-.8s-1.7-1.2-2.3-2l-1.5-3c-.5-1.2-1-2-1.6-2.6-.7-.6-1.5-1-2.4-1a4 4 0 00-4 4c0 1.8.6 3.7 1.7 5.5 1.2 1.9 2.7 3.3 4.5 4.4 2.6 1.5 5.9 2.3 9.8 2.3 3.3 0 6.1-.6 8.5-1.7 2.4-1 4.3-2.6 5.6-4.6 1.2-2 1.9-4.3 1.9-6.7 0-2.1-.4-4-1.1-5.4a10 10 0 00-3.1-3.6c-1.3-.9-2.9-1.7-4.7-2.3-1.8-.7-3.8-1.2-6-1.8l-3.8-1c-.7-.2-1.5-.5-2.2-1a5 5 0 01-1.6-1.3c-.4-.5-.6-1-.6-1.8 0-1 .6-2 1.7-2.8a7.9 7.9 0 014.8-1.3c2 0 3.6.3 4.5 1.1 1 .8 1.8 2 2.5 3.4a9.7 9.7 0 001.6 2.4c.6.5 1.3.8 2.4.8 1 0 2-.5 2.7-1.3.8-.9 1.2-1.8 1.2-3 0-1-.3-2.2-.9-3.4-.5-1.1-1.4-2.2-2.6-3.3-1.2-1-2.7-1.8-4.5-2.5-1.8-.6-4-.9-6.4-.9-3 0-5.7.5-8 1.4z"/></svg>