<svg xmlns="http://www.w3.org/2000/svg" width="64" height="64" version="1.0"><defs/><path fill="#00adef" fill-rule="evenodd" d="M63.7 14.4c.5-2.7.5-5.5-1.2-7.6-2.3-3-7.2-3-10.6-2.6-2.7.5-12 4.6-15.1 14.5 5.6-.4 8.5.4 8 6.7-.3 2.6-1.6 5.5-3 8.2-1.7 3.2-4.8 9.4-9 4.9-3.7-4-3.4-11.7-4.2-16.9-.5-2.8-1-6.4-2-9.4C26 9.7 24 6.6 21.9 6c-2.4-.7-5.4.4-7.2 1.5-5.5 3.3-9.8 8-14.6 12v.3c1 1 1.2 2.5 2.6 2.7 3.3.5 6.5-3.2 8.7.6 1.4 2.3 1.8 4.9 2.6 7.3 1.2 3.4 2 7 3 10.8 1.6 6.5 3.6 16.1 9 18.5 2.9 1.2 7-.4 9.2-1.7a51.5 51.5 0 0014.2-13.7 93.3 93.3 0 0014.4-29.8z" clip-rule="evenodd"/></svg>