<svg xmlns="http://www.w3.org/2000/svg" width="64" height="64"><defs/><g fill="#2a527a"><path d="M32 0a32 32 0 100 64 32 32 0 000-64zm21.2 53.2a29.8 29.8 0 01-42.4 0 29.8 29.8 0 010-42.4 29.8 29.8 0 0142.4 0 29.8 29.8 0 010 42.4z"/><path fill-rule="evenodd" d="M21 16.9h22.4c2.2 0 3.9 1.7 3.9 3.8v22.5c0 2.1-1.7 4-3.9 4H21a4 4 0 01-3.9-4V20.7c0-2.1 1.8-3.8 4-3.8zM39 20.2c-.8 0-1.3.6-1.3 1.3v3.3c0 .7.5 1.3 1.3 1.3h3.4c.8 0 1.4-.6 1.4-1.3v-3.3c0-.7-.6-1.3-1.4-1.3zm4.8 9.4h-2.7c.3.8.4 1.7.4 2.6 0 5-4.2 9.1-9.4 9.1s-9.4-4-9.4-9.1c0-1 .1-1.8.4-2.6h-2.8v12.8c0 .7.6 1.2 1.2 1.2h21c.8 0 1.3-.5 1.3-1.2zM32.2 26a6 6 0 00-6 5.9 6 6 0 006 5.9 6 6 0 006-6 6 6 0 00-6-5.8z" clip-rule="evenodd"/></g></svg>