<svg xmlns="http://www.w3.org/2000/svg" width="64" height="64"><defs/><g fill="#139deb"><path d="M32 0a32 32 0 100 64 32 32 0 000-64zm21.2 53.2a29.8 29.8 0 01-42.4 0 29.8 29.8 0 010-42.4 29.8 29.8 0 0142.4 0 29.8 29.8 0 010 42.4z"/><path d="M46 32.6a14.2 14.2 0 00-16.7-14 8.2 8.2 0 00-11.5 11.1 14.2 14.2 0 0016.6 16.8c1.1.6 2.4 1 3.8 1a8.2 8.2 0 007.4-11.9l.3-3zm-7 6.7c-.6 1-1.6 1.7-2.8 2.2-1.3.5-2.8.8-4.5.8-2 0-3.7-.4-5-1-1-.6-1.8-1.3-2.4-2.1-.6-.9-.9-1.8-.9-2.6 0-.5.2-1 .6-1.3a2 2 0 011.5-.6c.5 0 .9.2 1.2.5.4.2.6.6.9 1.2l.8 1.4c.3.4.7.7 1.2 1a5 5 0 002 .3 5 5 0 002.9-.7c.7-.5 1-1.1 1-1.8 0-.6-.2-1-.5-1.4l-1.5-.8-2.6-.6a21 21 0 01-3.7-1.1c-1-.5-1.9-1-2.5-1.8-.6-.8-.9-1.7-.9-2.9 0-1 .3-2 1-2.8a6 6 0 012.7-2 12 12 0 014.2-.6c1.2 0 2.4.1 3.3.4 1 .3 1.7.7 2.3 1.2.6.5 1.1 1 1.4 1.6.3.5.4 1 .4 1.6 0 .5-.2 1-.5 1.3a2 2 0 01-1.5.6c-.5 0-1 0-1.2-.3-.3-.3-.6-.6-.9-1.2-.3-.6-.7-1.2-1.2-1.5-.5-.4-1.3-.6-2.4-.6-1 0-1.8.2-2.5.6-.5.4-.8.9-.8 1.4 0 .3 0 .6.2.8.2.3.5.5.9.6l1.1.5a56.3 56.3 0 005.1 1.3c1 .3 1.8.7 2.4 1.1.7.4 1.3 1 1.6 1.7.4.7.6 1.5.6 2.5 0 1.2-.3 2.2-1 3.1z"/></g></svg>