<svg xmlns="http://www.w3.org/2000/svg" width="64" height="64"><defs/><g fill="#469ae9"><path d="M53.5 21.6c-1.4.6-3 1-4.6 1.2a8 8 0 003.5-4.4 16 16 0 01-5 2 8 8 0 00-13.7 7.3 22.7 22.7 0 01-16.5-8.4A8 8 0 0019.7 30a8 8 0 01-3.6-1 8 8 0 006.4 8 8 8 0 01-3.6 0 8 8 0 007.5 5.6 16 16 0 01-11.9 3.3c3.6 2.3 7.8 3.6 12.3 3.6a22.6 22.6 0 0022.7-23.8c1.6-1.1 3-2.5 4-4.1z"/><path d="M32 0a32 32 0 100 64 32 32 0 000-64zm21.2 53.2a29.8 29.8 0 01-42.4 0 29.8 29.8 0 010-42.4 29.8 29.8 0 0142.4 0 29.8 29.8 0 010 42.4z"/></g></svg>