<svg xmlns="http://www.w3.org/2000/svg" width="64" height="64"><defs/><g fill="none" fill-rule="evenodd"><path fill="#1a1a1a" d="M32 64a32 32 0 100-64 32 32 0 000 64z"/><path fill="#fff" d="M37.8 21.2v2.4h9.8v-2.4zm-24.9-1.3l11.4.1s6.2-.3 7 4.7c1 5-3 6-3 6s4.9 1.2 4.2 7c-.7 5.8-7.4 5.8-7.4 5.8H12.9zm5.2 9.4h4.7l1.7-.1a3 3 0 001.2-.6c.2-.2.5-.6.6-1 .2-.5.2-1 .2-1.2 0-.4 0-.7-.2-1-.1-.4-.3-.6-.6-.9l-1-.5a5 5 0 00-1.5-.2h-5.1zm0 10h5.1c.4 0 1.2 0 2-.2.2 0 .8-.3 1.2-.7.2-.1.5-.6.7-1 .2-.6.2-1.2.2-1.4 0-.4 0-.8-.2-1.1-.1-.4-.4-.7-.7-1l-1-.5c-.5-.2-1-.2-1.7-.2H18zM38.9 36c0 .1 0 3.5 2.8 4.3a4 4 0 004.7-2h4.3c-.2.4-1.9 7.4-11.2 5.1-5.8-1.4-5.5-8.2-5.5-8.8 0-.5 0-3.3 2.4-6 2.3-2.6 5.6-2.6 6.2-2.6.7 0 4.1 0 6.2 2.3 2.7 3 2.2 7.8 2.2 7.8zm7.4-3c0-.5-.2-1-.3-1.4-.2-.5-.5-.9-.8-1.2l-1.1-.8a3.8 3.8 0 00-2.9 0c-.4.2-.8.5-1 .8a4 4 0 00-1.2 2.6z"/></g></svg>