<?xml version="1.0" encoding="utf-8"?>
<!-- Generator: Adobe Illustrator 24.1.0, SVG Export Plug-In . SVG Version: 6.00 Build 0)  -->
<svg version="1.1"
	 id="svg12" inkscape:version="0.92.5 (2060ec1f9f, 2020-04-08)" sodipodi:docname="whatsapp.svg" xmlns:cc="http://creativecommons.org/ns#" xmlns:dc="http://purl.org/dc/elements/1.1/" xmlns:inkscape="http://www.inkscape.org/namespaces/inkscape" xmlns:rdf="http://www.w3.org/1999/02/22-rdf-syntax-ns#" xmlns:sodipodi="http://sodipodi.sourceforge.net/DTD/sodipodi-0.dtd" xmlns:svg="http://www.w3.org/2000/svg"
	 xmlns="http://www.w3.org/2000/svg" xmlns:xlink="http://www.w3.org/1999/xlink" x="0px" y="0px" viewBox="0 0 64 64"
	 style="enable-background:new 0 0 64 64;" xml:space="preserve">
<style type="text/css">
	.st0{fill-rule:evenodd;clip-rule:evenodd;fill:#1A1A1A;}
	.st1{fill:#FFFFFF;}
</style>
<sodipodi:namedview  bordercolor="#666666" borderopacity="1" gridtolerance="10" guidetolerance="10" id="namedview14" inkscape:current-layer="svg12" inkscape:cx="-13.889831" inkscape:cy="32.000002" inkscape:pageopacity="0" inkscape:pageshadow="2" inkscape:window-height="1143" inkscape:window-maximized="1" inkscape:window-width="1920" inkscape:window-x="1920" inkscape:window-y="0" inkscape:zoom="3.9333333" objecttolerance="10" pagecolor="#ffffff" showgrid="false">
	</sodipodi:namedview>
<g id="black" transform="scale(1.0666667)">
	<g id="whatsapp">
		<path id="path6" inkscape:connector-curvature="0" class="st0" d="M30,60c16.6,0,30-13.4,30-30S46.6,0,30,0S0,13.4,0,30
			S13.4,60,30,60z"/>
	</g>
</g>
<g id="g829_1_" transform="matrix(0.05556753,0,0,0.05556753,4.0280537,3.4534559)">
	<path id="path817_1_" inkscape:connector-curvature="0" class="st1" d="M420,155.8l7.9,32c-31.1,7.7-60.9,20-88.4,36.6l-16.9-28.3
		C352.8,177.8,385.7,164.2,420,155.8z M589,155.8l-7.9,32c31.1,7.7,60.9,20,88.4,36.6l17.1-28.3C656.3,177.8,623.4,164.2,589,155.8z
		 M203.1,315.5c-18.3,30.3-31.9,63.1-40.3,97.5l32,7.9c7.7-31.1,20-60.9,36.6-88.4L203.1,315.5z M185.5,497.5c0-16,1.2-32,3.6-47.8
		l-32.6-5c-5.3,35-5.3,70.5,0,105.5l32.6-4.9C186.7,529.5,185.5,513.5,185.5,497.5z M686.4,798.8l-16.9-28.2
		c-27.4,16.6-57.2,28.9-88.3,36.6l7.9,32C623.4,830.7,656.2,817.1,686.4,798.8z M823.5,497.5c0,16-1.2,32-3.6,47.8l32.6,4.9
		c5.3-35,5.3-70.5,0-105.5l-32.6,5C822.3,465.5,823.5,481.5,823.5,497.5z M846.2,581.9l-32-7.9c-7.7,31.2-20,61-36.6,88.5l28.3,17
		C824.2,649.2,837.8,616.3,846.2,581.9z M552.3,812.9c-31.7,4.8-63.9,4.8-95.6,0l-4.9,32.6c34.9,5.3,70.5,5.3,105.4,0L552.3,812.9z
		 M761.3,686.7c-19,25.8-41.8,48.5-67.6,67.5l19.6,26.6c28.4-20.9,53.6-46,74.6-74.3L761.3,686.7z M693.7,240.7
		c25.8,19,48.6,41.8,67.6,67.6l26.6-19.8c-21-28.4-46-53.4-74.4-74.4L693.7,240.7z M247.7,308.3c19-25.8,41.8-48.6,67.6-67.6
		l-19.8-26.6c-28.4,21-53.4,46-74.4,74.4L247.7,308.3z M805.9,315.5l-28.3,17c16.6,27.4,28.9,57.2,36.6,88.3l32-7.9
		C837.8,378.6,824.2,345.8,805.9,315.5z M456.7,182.1c31.7-4.8,63.9-4.8,95.6,0l4.9-32.6c-34.9-5.3-70.5-5.3-105.4,0L456.7,182.1z
		 M264.6,789.6l-68.1,15.8l15.9-68.1l-32.1-7.5l-15.9,68.1c-4.2,17.7,6.8,35.5,24.6,39.7l0,0c4.9,1.1,10.1,1.1,15,0l68.1-15.7
		L264.6,789.6z M187.1,700.4l32.2,7.4l11-47.2c-16.1-26.9-28-56.1-35.5-86.6l-32,7.9c7.2,29.2,18.1,57.3,32.4,83.7L187.1,700.4z
		 M341.1,771.8l-47.2,11l7.5,32.2l34.7-8.1c26.4,14.4,54.5,25.2,83.7,32.4l7.9-32c-30.4-7.6-59.5-19.6-86.3-35.7L341.1,771.8z
		 M504.5,211.5c-158,0.1-285.9,128.2-285.9,286.1c0.1,53.8,15.3,106.5,43.9,152L235,767l117.3-27.5
		c133.7,84.1,299.1,36.2,394.4-89.6C856.3,505.1,767.2,214.1,504.5,211.5"/>
</g>
</svg>
