<svg xmlns="http://www.w3.org/2000/svg" width="64" height="64"><defs/><path fill="#3a76f0" d="M27.78 12.92l.44 1.77a17.76 17.76 0 00-4.91 2.04l-.94-1.57a19.32 19.32 0 015.41-2.24zm9.4 0l-.44 1.77a17.76 17.76 0 014.9 2.04l.96-1.57a19.45 19.45 0 00-5.43-2.24zm-21.45 8.87a19.42 19.42 0 00-2.24 5.42l1.78.44a17.76 17.76 0 012.03-4.91zm-.98 10.11a17.7 17.7 0 01.2-2.65l-1.8-.28a19.56 19.56 0 000 5.86l1.8-.27a17.75 17.75 0 01-.2-2.66zM42.6 48.65l-.94-1.57a17.66 17.66 0 01-4.9 2.03l.43 1.78a19.47 19.47 0 005.4-2.24zM50.2 31.9a17.75 17.75 0 01-.2 2.66l1.82.27a19.56 19.56 0 000-5.86l-1.82.28a17.7 17.7 0 01.2 2.65zm1.27 4.7l-1.78-.45a17.73 17.73 0 01-2.04 4.92l1.58.95a19.39 19.39 0 002.24-5.43zM35.13 49.42a17.73 17.73 0 01-5.3 0l-.28 1.81a19.52 19.52 0 005.86 0zm11.62-7.01a17.68 17.68 0 01-3.76 3.75l1.1 1.48a19.73 19.73 0 004.14-4.13zm-3.76-24.79a17.7 17.7 0 013.76 3.76l1.48-1.1a19.7 19.7 0 00-4.14-4.13zM18.21 21.4a17.7 17.7 0 013.76-3.76l-1.1-1.47a19.7 19.7 0 00-4.14 4.13zm31.02.4l-1.58.95a17.66 17.66 0 012.04 4.9l1.78-.44a19.39 19.39 0 00-2.24-5.4zm-19.4-7.41a17.73 17.73 0 015.3 0l.28-1.81a19.52 19.52 0 00-5.86 0zM19.14 48.14l-3.79.87.89-3.78-1.79-.42-.88 3.79a1.83 1.83 0 001.37 2.2 1.92 1.92 0 00.83 0l3.78-.87zm-4.3-4.96l1.78.41.61-2.62a17.57 17.57 0 01-1.97-4.82l-1.78.44a19.63 19.63 0 001.8 4.65zm8.55 3.97l-2.62.6.41 1.8 1.93-.45a19.4 19.4 0 004.65 1.8l.44-1.78a17.6 17.6 0 01-4.8-1.98zM32.48 16a15.9 15.9 0 00-15.89 15.9 15.93 15.93 0 002.44 8.45l-1.53 6.52 6.52-1.53a15.9 15.9 0 0016.94-26.9"/><path fill="#3a76f0" d="M32.01 64C14.41 64 .22 49.66.3 31.82A31.78 31.78 0 0132.4 0a31.79 31.79 0 0131.3 32.28A31.82 31.82 0 0132 64zm0-61.48C16.18 2.45 2.97 15.35 2.81 31.66A29.36 29.36 0 0031.72 61.5 29.31 29.31 0 0061.2 32.26C61.28 15.73 48.25 2.52 32 2.52z"/></svg>