<svg xmlns="http://www.w3.org/2000/svg" width="64" height="64"><defs/><g fill="#20a0e1" stroke-width=".1"><path d="M32 0a32 32 0 100 64 32 32 0 000-64zm21.2 53.2A29.8 29.8 0 0132 62c-8 0-15.5-3.1-21.2-8.8A29.8 29.8 0 012 32c0-8 3.1-15.5 8.8-21.2A29.8 29.8 0 0132 2c8 0 15.5 3.1 21.2 8.8A29.8 29.8 0 0162 32c0 8-3.1 15.5-8.8 21.2z"/><path d="M49.4 17.9l-6.2 33c-.5 2.3-1.7 2.9-3.4 1.8l-9.5-7.9-4.6 5c-.5.5-1 1-2 1l.8-10.8L42 22c.7-.7-.2-1.2-1.2-.4L19 37.1l-9.3-3.3c-2-.7-2.1-2.3.4-3.4l36.6-15.8c1.7-.7 3.2.4 2.6 3.3z"/></g></svg>