<svg xmlns="http://www.w3.org/2000/svg" width="64" height="64"><defs/><path fill="#52c85e" d="M32.01 64C14.41 64 .22 49.66.3 31.82A31.78 31.78 0 0132.4 0a31.79 31.79 0 0131.3 32.28A31.82 31.82 0 0132 64zm0-61.48C16.18 2.45 2.97 15.35 2.81 31.66A29.36 29.36 0 0031.72 61.5 29.31 29.31 0 0061.2 32.26C61.28 15.73 48.25 2.52 32 2.52z"/><path fill="#51c85d" d="M12.16 52.6l1.5-4.47a484.4 484.4 0 011.9-5.61c.1-.3.07-.5-.08-.77a19.58 19.58 0 0114.7-29.17 19.52 19.52 0 0121.49 15.95A19.58 19.58 0 0123.5 49.42c-.4-.2-.72-.22-1.14-.08-3.13 1.02-6.27 2.02-9.4 3.01l-.8.25zm5.1-5c1.98-.64 3.83-1.22 5.67-1.83.37-.13.65-.1 1 .12a16.17 16.17 0 0011.7 2.09c9.78-1.81 15.7-12.6 11.97-21.87-3.58-8.94-13.67-12.93-22.31-8.66-5.82 2.89-8.84 7.76-9.1 14.28-.14 3.45.88 6.62 2.82 9.47.2.29.22.5.1.82l-1.18 3.5-.68 2.08z"/><path fill="#51c85d" d="M26.08 22.44c.3.03.59.08.9.08.45-.02.72.23.87.6.54 1.4 1.06 2.78 1.57 4.18.17.45-.02.84-.28 1.19-.34.43-.7.85-1.08 1.23-.33.34-.41.65-.18 1.08a13.7 13.7 0 006.7 6.18c.4.18.7.07.97-.24.5-.57 1.03-1.12 1.5-1.73.35-.45.72-.58 1.21-.32l3.94 2.06c.36.18.44.49.41.86-.14 2.22-1.32 3.43-3.8 4.05-.9.23-1.78.1-2.69-.15a19.3 19.3 0 01-11.29-8.67c-.9-1.43-1.79-2.85-2.05-4.54a5.63 5.63 0 011.91-5.39c.38-.34.85-.52 1.4-.47z"/></svg>