<svg xmlns="http://www.w3.org/2000/svg" width="64" height="64"><defs/><g fill="#b30017"><path d="M48 42.4v-4.6c0-3.3-2.5-6-5.7-6H22a5.8 5.8 0 00-5.8 6v4.6c0 3.3 2.6 6 5.8 6h20.3c3.2 0 5.8-2.7 5.8-6zm-21.8-6.8h-1.8V45h-2v-9.4h-1.8V34h5.6zm5.4 9.4H30v-1c-.3.4-.6.6-1 .8a2 2 0 01-.9.3c-.4 0-.7-.2-.9-.4-.2-.2-.3-.6-.3-1v-6.9h1.6v6.3c0 .1 0 .3.2.4l.3.1c.1 0 .3 0 .5-.2l.5-.4v-6.2h1.6V45zm5.9-1.7c0 .5-.2 1-.4 1.3-.3.3-.6.4-1.1.4a2 2 0 01-.9-.1l-.7-.6v.7h-1.6V34h1.6v3.5l.7-.6.8-.2c.5 0 .9.2 1.2.6.2.3.4.8.4 1.5v4.5zm1.4 1.2c-.4-.4-.6-1-.6-1.8V39c0-.7.2-1.3.7-1.7.4-.4 1-.7 1.8-.7.7 0 1.3.3 1.7.7.4.4.6 1 .6 1.7v2.1h-3v2.4c.2.2.3.2.6.2s.4 0 .5-.2c.1-.1.2-.4.2-.9v-.3H43v.4c0 .8-.2 1.4-.6 1.8-.4.5-1 .7-1.9.7-.7 0-1.3-.3-1.7-.7z"/><path d="M41.4 39c0-.3 0-.6-.2-.7-.1-.2-.3-.2-.5-.2-.3 0-.5 0-.6.2l-.2.7v.8h1.5zM35.1 38l-.3.1c-.2 0-.3.1-.4.3v5l.4.3h.4l.4-.1.1-.6V39l-.1-.7a.6.6 0 00-.5-.2zM27 17l-1.3 4.8h-.1L24.3 17h-2.1l2.4 7.3v4.8h2v-5l2.5-7.1zM36 20.2v7.4c0 .6.1 1 .3 1.2.2.3.5.4 1 .4.3 0 .7 0 1-.3a3 3 0 001-.8v1h2v-8.9h-2V27c0 .2-.3.4-.5.5a1 1 0 01-.5.2l-.4-.1-.1-.5v-6.8zM29.2 22.2v4.6c0 .8.2 1.4.7 1.9.5.4 1.2.6 2 .6s1.4-.2 2-.6c.4-.5.6-1 .6-1.8v-4.6c0-.7-.2-1.3-.7-1.7-.5-.4-1.1-.6-1.9-.6a3 3 0 00-2 .6 2 2 0 00-.7 1.6zm1.9 0c0-.2 0-.4.2-.5l.5-.2c.3 0 .5 0 .6.2.2.1.3.3.3.5V27c0 .3-.1.4-.3.6l-.5.2c-.3 0-.5 0-.6-.2a.8.8 0 01-.2-.6v-4.8z"/><path d="M32 0a32 32 0 100 64 32 32 0 000-64zm21.2 53.2a29.8 29.8 0 01-42.4 0 29.8 29.8 0 010-42.4 29.8 29.8 0 0142.4 0 29.8 29.8 0 010 42.4z"/></g></svg>