<svg xmlns="http://www.w3.org/2000/svg" viewBox="0 0 64 64"><defs/><path d="M62.5 16.9s.8-1.5 1-2.4c0-.8 0-1.8-.4-2.2s-2.2.2-3.5.7c-1.4.4-4.2.8-4.2.8s-1.7-5-4.5-7-6.5-2.1-9.6-1.4c-3 .7-7 2.7-8.7 4.8-1.8 2.1-3.3 6.3-3.8 8-.5 1.6-1.6 4.5-2.8 4.7-1.2.3-3.4-.6-5.3-1.8-2-1.1-7-5.2-9.4-7.5s-6-6.2-7.2-6C3 8 1.6 12 1.6 15s2.6 5.8 2.6 5.8c-1 3.8-.4 6.5.6 8.5S8 32.6 8 32.6c-.3 1.4-.1 3 .4 4.4.4 1.4 3 3.2 3 3.2s-1.6 1.2-3.9 1.9-6.8 0-7.3 0c-.5.1 0 6 0 7 0 .8.6 1.5 1.4 2 .7.6 6.9 3.7 15.6 6 8.6 2.1 15.4.2 20.6-2C42.9 52.8 48.5 46 52 40.5 55.7 35 58 27 58 27s1.3-.7 3.2-2.1c2-1.4 2.6-3.8 2.7-5.3 0-1.5-1.5-2.7-1.5-2.7zM58.2 20c.5 0 3-1.4 3.3-1.2.3.3-.8 2.1-2.5 3.1-1.8 1-3.1 1.6-3.5 1.5-.3 0-1.5-2.4-1.7-2.4-.3 0-.8.5-.7.8.2.3 1.6 2.2 1.4 2.5-.1.3-.2.4-.4.2s-1.6-3-2-3c-.3-.1-.8.7-.6 1 .2.4 2 2.7 2 3 0 .4-.5 2-.6 1.8-.1-.3-2.3-4.3-2.6-4.3-.2 0-.7 1-.6 1.3.1.3 2.7 4 2.7 4.3 0 .3-.8 1.9-1 1.6-.3-.3-2.5-5-2.7-5-.2 0-.8.8-.8 1l3 5.3c0 .4-.7 2.4-1 2.2-.2-.1-2.5-5.8-2.7-5.9-.3 0-.8.8-.7 1.2l2.9 5.9c0 .4-.4 1.2-.6 1-.1 0-3-7.2-3.3-7.2-.2 0-.7.8-.4 1.6.2.8 3.2 6.2 3.2 6.6 0 .4-.7 1.4-.8 1.2-.1-.2-3.2-7-3.5-6.9-.3 0-.7 1.2-.4 1.6L47 39c0 .1-.8 1.5-1 1.4-.3-.1-3-6.4-3.2-6.4-.3 0-.8.7-.5 1.4.3.7 3.1 5.4 3 5.8-.1.3-.9 1.3-1 1s-3-6.6-3.3-6.6-1.1.7-.8 1.3c.2.5 3.4 6.2 3.3 6.3-.1.2-1.3 1.6-1.4 1.5-.2 0-3.3-6.6-3.6-6.5-.3.1-.8.6-.5 1 .2.5 3.4 6 3.3 6.2 0 .2-.9 1-1 .7-.3-.3-3.2-6.1-3.5-6.1-.4 0-1 .9-.8 1.3.2.3 3.6 5.6 3.5 5.9-.2.2-1.2 1.2-1.4 1-.1-.2-2.8-5.6-3.3-5.6-.6 0-1 .9-.7 1.2l3 4.8s-1.4.8-1.6.5C35.3 49 33.1 44 33 44c-.2 0-1.1.6-.7 1.2.4.5 2.5 4.3 2.3 4.5-.2.2-.9.5-1 .2-.3-.2-2.5-5.2-2.7-5.2s-1.1.4-.9.8l2.4 5c-.1 0-1.5.5-1.7.3-.2-.1-2.1-4.3-2.5-4.3-.3 0-.6.5-.5.8l2 3.9c-.1 0-1.5.2-1.7.1-.1 0-2-4.3-2.2-4.4-.3 0-1 .5-.8.9.1.4 1.8 3.5 1.6 3.6-.2 0-1.4.1-1.6-.1-.2-.3-1.6-3.7-2-3.8-.3 0-.9.1-.6.7.2.5 1.9 3.5 1.6 3.5h-1.8c-.1-.2-1.6-3.7-1.8-3.8-.3 0-1.1-.1-1 .3.2.5 1.8 3.2 1.5 3.2s-1.8-.3-2-.5c-.3-.3-1.6-3.5-1.9-3.6-.3 0-.9.3-.8.8 0 .4 1.3 2.7 1 2.6-.3 0-1.8-.3-1.8-.5l-1.7-3.3c-.2-.2-1.1 0-1 .4.3.4 1.2 2.4 1 2.4s-3.4-1-6.2-2.4-5.3-3.6-5-3.7 4 .2 6.4-.7c2.5-1 5-1.9 5-2.2.2-.3-.2-1-.3-1-.1 0-3.1-1-3.8-3-.6-2.3-.1-4.6-.5-4.9-.4-.3-2.4-1.1-3.4-4.2s0-7.3-.1-7.6c-.2-.3-.6-.9-1-.8-.3.1-1.5-2.3-1.5-4.6s1-5.3 1.2-5.3c.2 0 6.6 6.2 10 9s7.4 5.8 9.7 6.2c2.4.4 3.3.5 4.4-1.8 1.1-2.2 2.3-7.7 4-10.2 1.7-2.5 5.1-5.4 9.6-6s7.8.4 9.6 3c1.7 2.4 1.8 5.6 2.2 5.9.5.3 2.4.2 4.7-.6l3.2-1c.2 0-.5 1.5-2 2.7-1.5 1.2-2.5 2-2.5 2.7s.3 1 .9 1zm-52-4.2c-.8-.6-.5-1.8-.3-2.8.2-.9-1.3-.7-1.5.4-.3 1 0 2.4.8 3.1.8.7 1.6.7 1.8.5.3-.2-.2-.7-.9-1.2zm20 10.1c-.5 0-1.8.7-3.2 0-1.4-.7-2.8-2.4-3.4-2.2-.4.1-.9.7.2 1.7 1 1 3 1.8 4.5 1.8s2.5-1.2 2-1.3zm9.9-12.5c-.4-.1-1.9.9-2.6 2.1-.7 1.2-1.8 3.6-1 4.1.6.3.8 0 1.3-1.4.4-1.4 1.2-3 1.7-3.5.5-.6 1-1.2.6-1.3z"/></svg>