<svg xmlns="http://www.w3.org/2000/svg" width="64" height="64"><defs/><path d="M59.8 26.4c-1-9.7-4.3-19.4-15.4-24S21.7.9 16.2 3.9 4.5 14 4 24.5 10.1 45 10.1 45 6.4 59.3 6.4 59.8s3.7 4.2 4.2 4.2c.6 0 15.2-7 15.2-7s6.1.7 13-.7 12.3-4.6 16-9.7 6-10.4 5-20.2zm-4.6 14.3c-2.3 5.4-10.2 9.8-10.9 10.1l-2.6.9s-.7-1.5-1-1.6c-.2-.1-1 .3-.9.5s.8 1 .5 1.3c-.2.3-1.6.4-1.6.4s-1-2.2-1.3-2.3-1.2.1-1.1.4c.1.3 1.2 2.3 1 2.3 0 0-2 .5-2 .3s-1.2-2.6-1.5-2.7c-.3-.2-1.4 0-1.4.4s1.3 2.7 1.3 2.7-1.7.2-1.8 0c0-.2-1.4-2.8-1.7-3-.3-.1-1.2.1-1.2.4s1 2.7 1 2.7l-1.5-.2-2-3s-.9 0-.8.4c0 .3 1.1 2.6 1 2.8 0 .1-.4.4-.6.3L24 51.3c-.2 0-.9.2-.8.5 0 .4 1.8 2 1.6 2.3s-1.6 1.2-1.8 1l-2.2-2.7c-.2-.1-1.2.5-1 .7l1.5 2.6-1.7.6S18 54 17.8 54c-.2 0-1 .5-1 .8.1.2 1.7 1.5 1.5 1.7l-1.3.6s-1.3-1.4-1.6-1.4-.5.5-.5.7l.8 1.3s-5.9 2.7-6.4 2.4c-.4-.4-.9-1-.8-1.3.2-.3 3.5-14.1 3.5-14.1S5.7 34.2 6 26c.2-8.3 5.7-17.5 9.8-20.5S33 0 40.7 2.3 55.2 11.9 57.5 20s0 15.2-2.3 20.6zm-25-36.2C23.5 5 18.7 7.3 14.6 13a22 22 0 00-4.7 18c1.1 7.1 6.2 13.6 6.4 13.8l-4.2 10c-.3.6.7 1.1 1.3 1.1s11.4-8.3 11.8-8.4c.3 0 2 .6 6.2.7 4.2 0 8.5-.5 13.6-2.5S55.1 39.4 55.7 31c.6-8.6-1.6-14.6-7.6-20.7S37 3.8 30.2 4.5zm20 10.8c5.1 6.3 4.8 15.3 3 20.2a15.6 15.6 0 01-11.1 9.8 31 31 0 01-12.5 1.3l-4.4-.8c-.5 0-8.8 6-9.6 6.4-.1 0 3-6.7 2.9-7.2 0-.4-4.8-6.4-6-10.6a26.3 26.3 0 011.7-17.6c3-5.8 11.9-10 18-10s13 2.2 18 8.5zm-18.1 8c.5-.7-.4-3.1-3-6.5-2.5-3.3-5-3.7-6-2.9-1 .8-5 4.5-4.4 9.3.7 4.7 6.7 13.3 11.2 18.1 4.4 4.8 10.4 3 13 1.6s4-4.1 4.2-6-6.6-7.8-7-8c-.3-.2-4.3 3.4-4.7 3.4-.5 0-4.8-7-4.7-7.3 0-.3 1-.9 1.4-1.6zM33.5 34c1.5 1 1.2 1.3 2 .9.7-.5 3.8-4 4.3-3.8.6.2 5.9 5 5.6 5.7-.2.7-1.1 2.6-1.4 2.4-.2-.1-1.8-3.3-2.7-3.1-1 0-.8.7-.7 1s2.2 2.5 2 2.8c-.2.3-.7.4-.7.4s-1.9-3-2-3c-.2 0-1.2.4-1 .7.1.3 2 2.3 1.7 2.6s-1 .6-1.1.4l-2-2.8s-1.4.1-1.2.5 1.6 2.2 1.3 2.2-2.5.7-6.8-3.4-10-10-10.3-14.3c-.4-4.3 2.2-8 4-7.9.3 0 6.2 6 5.3 6.7-.9.8-3.1 2.5-2.2 3.8.9 1.3 4.5 7.1 6 8.2zm-9.7-16.6c-1.4.4-2 4.3-2 4.9s1.9.7 2.1.7c.3 0 0-.3 0-1.4s.5-2.8.7-3.2c.3-.3-.1-1.2-.8-1z"/></svg>