<svg xmlns="http://www.w3.org/2000/svg" width="150" height="60"><defs/><g fill="#565656" stroke-width="2.3" aria-label="rc"><path d="M0 24.7q0-6.5 2-11.4 2.2-4.9 5.8-8 3.7-3 8.5-4.3Q21.2-.3 26.7.3v8.8q-8.1-.8-13 3.1-4.6 4-4.6 12.2v34.3H0zM83.7 40.9q-2.8 8.7-9.8 13.9Q67.1 60 57.6 60q-5.7 0-10.8-2.3-5.1-2.4-9-6.4-3.7-4-6-9.5-2.2-5.5-2.2-11.7 0-6.2 2.2-11.7 2.3-5.5 6-9.5 3.9-4.1 9-6.5Q51.8 0 57.6 0q4.7 0 8.8 1.4 4.2 1.4 7.5 4 3.4 2.4 5.9 6 2.5 3.4 3.9 7.7h-9.9q-2.4-4.7-6.5-7.3Q63.2 9 57.6 9q-3.9 0-7.3 1.7-3.4 1.6-6 4.5-2.5 3-4 6.8-1.4 3.8-1.4 8.1t1.4 8.2q1.5 3.8 4 6.7 2.6 2.8 6 4.4 3.4 1.6 7.3 1.6 5.6 0 9.7-2.7 4.2-2.7 6.5-7.4z"/></g><path fill="#df4c4c" d="M134.4.5h-26.8A15.6 16.2 0 0092 16.3v27.1a15.5 16 0 0015.6 15.8h26.8A15.5 16 0 00150 43.4V16.3A15.6 16.2 0 00134.4.5z" data-name="Rounded Rectangle 1"/><path fill="#fff" stroke-width="2.3" d="M125.1 33.3V50h-7.8V33.3h-16v-8h16V8.8h7.8v16.7H141v8z"/></svg>
