<svg xmlns="http://www.w3.org/2000/svg" width="64" height="64"><defs/><path fill="#1a1a1a" fill-rule="evenodd" d="M63.35 25.56a31.97 31.97 0 00-49.24-20.1 31.87 31.87 0 00-8.64 8.65A31.75 31.75 0 000 32a32.2 32.2 0 002.52 12.46 31.96 31.96 0 0017.02 17.02A31.8 31.8 0 0032 64a31.93 31.93 0 0026.53-14.1 31.87 31.87 0 004.82-24.34zm-4.03 6.17c-.4-.09-9.64-2.08-19.03-.9l-.6-1.4a81.83 81.83 0 00-1.81-3.97c10.8-4.4 15.17-10.74 15.23-10.82a27.2 27.2 0 016.2 17.09zm-9.27-20.24c-.07.1-3.96 6.03-14.27 9.9-4.68-8.59-9.8-15.4-10.22-15.95a27.28 27.28 0 0124.49 6.05zm-24.6-6.02l-.08.02.09-.02zm-5.1 1.81c.35.5 5.4 7.34 10.14 15.75a101.08 101.08 0 01-25.23 3.34A27.37 27.37 0 0120.34 7.28zM4.66 32c0-.3.02-.58.03-.87.48.02 13.98.32 28.05-3.89a89.4 89.4 0 012.22 4.65c-.36.1-.72.2-1.08.32-14.75 4.77-22.23 18.04-22.23 18.04l.01.01a27.24 27.24 0 01-7-18.26zM32 59.33a27.21 27.21 0 01-16.8-5.79s5.25-11.42 21.45-17.07l.18-.06c3.85 10 5.44 18.36 5.84 20.75A27.19 27.19 0 0132 59.33zm15.27-4.66a118.2 118.2 0 00-5.32-19.52 39.6 39.6 0 0117.03 1.19 27.35 27.35 0 01-11.7 18.33z" clip-rule="evenodd"/></svg>