<svg xmlns="http://www.w3.org/2000/svg" width="64" height="64" version="1.0"><defs/><path fill="#1a1a1a" fill-rule="evenodd" d="M32 .8a32 32 0 00-10.1 62.4c1.6.2 2-.7 2-1.5V56c-8.8 2-10.7-4.2-10.7-4.2-1.4-3.7-3.5-4.7-3.5-4.7-3-2 .2-2 .2-2 3.2.3 5 3.4 5 3.4 2.8 4.8 7.4 3.4 9.2 2.6.3-2 1.1-3.5 2-4.3-7-.8-14.5-3.5-14.5-15.8 0-3.5 1.2-6.3 3.3-8.6-.4-.8-1.5-4 .3-8.4 0 0 2.7-.9 8.8 3.2a30.6 30.6 0 0116 0c6.1-4.1 8.8-3.2 8.8-3.2 1.8 4.4.7 7.6.3 8.4 2 2.3 3.3 5.1 3.3 8.6 0 12.3-7.5 15-14.6 15.8 1.2 1 2.2 3 2.2 5.9v8.9c0 .8.5 1.8 2.1 1.5A32 32 0 0032 .8z" clip-rule="evenodd"/></svg>