<svg xmlns="http://www.w3.org/2000/svg" width="64" height="64"><defs/><path fill="#1a1a1a" d="M33.5 0C16 0 7.2 12.5 7.2 23c0 6.3 2.4 12 7.6 14 .8.4 1.6 0 1.8-1l.7-2.9c.3-.9.2-1.2-.5-2-1.5-1.8-2.4-4-2.4-7.2 0-9.3 7-17.6 18-17.6 10 0 15.4 6 15.4 14C47.8 31 43 40 36 40c-3.8 0-6.7-3.2-5.8-7 1.1-4.7 3.3-9.8 3.3-13.1 0-3-1.6-5.5-5-5.5-4 0-7 4-7 9.5 0 3.4 1.1 5.8 1.1 5.8l-4.7 20c-1.4 6-.2 13.3-.1 14 0 .4.6.5.8.2.4-.5 5-6.2 6.7-12L28 41.7c1.2 2.4 5 4.6 9 4.6 11.8 0 19.8-10.8 19.8-25.2C56.8 10 47.5 0 33.5 0z"/></svg>