<svg xmlns="http://www.w3.org/2000/svg" viewBox="0 0 64 64"><defs/><path fill="#1a1a1a" d="M24.3 1l.7 2.8a29 29 0 00-8 3.4l-1.5-2.6c2.7-1.7 5.7-2.9 8.8-3.7zm15.4 0L39 3.7a29 29 0 018 3.4l1.6-2.6a31.7 31.7 0 00-9-3.7zM4.6 15.4a31.7 31.7 0 00-3.7 8.8l3 .7a29 29 0 013.3-8l-2.6-1.5zM3 32c0-1.5.1-3 .3-4.3l-3-.5c-.4 3.2-.4 6.4 0 9.6l3-.5C3.1 35 3 33.5 3 32zm45.5 27.4L47 56.8a29 29 0 01-8 3.4l.7 2.9a32 32 0 008.8-3.7zM61 32c0 1.5-.1 2.9-.3 4.3l3 .5c.4-3.2.4-6.4 0-9.6l-3 .5c.2 1.4.3 2.8.3 4.3zm2 7.7l-2.8-.7a29 29 0 01-3.4 8l2.6 1.5c1.7-2.7 2.9-5.7 3.7-8.8zm-26.7 21c-2.8.4-5.8.4-8.6 0l-.5 3c3.2.4 6.4.4 9.6 0l-.5-3zm19-11.5a28.8 28.8 0 01-6.1 6.1l1.8 2.5c2.6-2 4.9-4.2 6.8-6.8l-2.5-1.8zM49.2 8.7a29 29 0 016.1 6.1l2.5-1.8A32.1 32.1 0 0051 6.2l-1.8 2.5zM8.7 14.8a29 29 0 016.1-6.1L13 6.2c-2.6 2-4.9 4.2-6.8 6.8l2.5 1.8zm50.7.7L56.8 17a29 29 0 013.4 8l2.9-.7c-.8-3.1-2-6.1-3.7-8.8zM27.7 3.3c2.8-.4 5.8-.4 8.6 0l.5-3c-3.2-.4-6.4-.4-9.6 0l.5 3zM10.2 58.6L4 60l1.4-6.2-2.9-.7-1.4 6.2A3 3 0 003.3 63h1.4l6.2-1.4-.7-3zm-7-8.2l2.9.7 1-4.3A28.7 28.7 0 013.8 39l-2.9.7c.7 2.6 1.7 5.2 3 7.6L3 50.4zm14 6.5l-4.3 1 .6 3 3.2-.8c2.4 1.3 5 2.3 7.6 3l.7-3c-2.7-.6-5.4-1.7-7.8-3.2zM32 6a26 26 0 00-22 39.8L7.5 56.5 18.2 54a26 26 0 0027.7-44"/></svg>