<svg xmlns="http://www.w3.org/2000/svg" height="64" width="64"><g fill="none" fill-rule="evenodd"><path d="M3.196 0h57.608A3.193 3.193 0 0164 3.196v57.608A3.193 3.193 0 0160.804 64H3.196A3.193 3.193 0 010 60.804V3.196A3.193 3.193 0 013.196 0z" fill="#1a1a1a"/><path d="M37.785 21.186v2.462h9.846v-2.462zm-24.862-1.281l11.362.126s6.24-.33 7.1 4.625c.86 4.954-3.139 6.124-3.139 6.124s4.938 1.122 4.25 6.908c-.687 5.787-7.43 5.846-7.43 5.846H12.923zm5.17 9.404l4.701.03c.301 0 1.092-.027 1.743-.18.279-.066.82-.253 1.195-.59.155-.14.442-.535.607-1.003.16-.455.202-.982.202-1.184 0-.37-.067-.713-.202-1.028a2.205 2.205 0 00-.607-.818c-.27-.23-.613-.41-1.03-.54-.415-.13-.91-.196-1.486-.196l-5.124-.03zm0 9.937l5.136.032c.33 0 1.194-.029 1.905-.198.304-.073.896-.28 1.305-.653.17-.155.483-.59.663-1.108a4.529 4.529 0 00.221-1.309c0-.409-.074-.788-.22-1.136a2.435 2.435 0 00-.664-.904c-.295-.254-.67-.454-1.124-.597-.455-.144-.996-.216-1.624-.216l-5.599-.032zm20.777-3.147c.008.137 0 3.531 2.781 4.31 3.228.906 4.667-1.776 4.779-2.087h4.228c-.11.51-1.828 7.443-11.18 5.183-5.74-1.387-5.445-8.184-5.445-8.766 0-.536.023-3.388 2.336-6.017 2.313-2.63 5.606-2.63 6.273-2.63.667 0 4.097 0 6.188 2.32 2.704 3.003 2.168 7.814 2.168 7.814zm7.407-2.974a4.69 4.69 0 00-.32-1.471 3.585 3.585 0 00-.746-1.166 3.415 3.415 0 00-1.139-.774 3.763 3.763 0 00-1.483-.282c-.492 0-.948.1-1.369.298-.42.198-.79.466-1.106.805-.317.34-.571.73-.763 1.174a4.247 4.247 0 00-.336 1.416z" fill="#fff"/></g></svg>