<svg xmlns="http://www.w3.org/2000/svg" height="64" width="64"><g fill="none" fill-rule="evenodd"><path d="M3.196 0h57.608A3.193 3.193 0 0164 3.196v57.608A3.193 3.193 0 0160.804 64H3.196A3.193 3.193 0 010 60.804V3.196A3.193 3.193 0 013.196 0z" fill="#1a1a1a"/><path d="M27.12 50.685c0-.48-.017-1.75-.026-3.435-5.478 1.22-6.633-2.707-6.633-2.707-.896-2.333-2.187-2.954-2.187-2.954-1.788-1.253.135-1.227.135-1.227 1.977.142 3.016 2.081 3.016 2.081 1.757 3.085 4.609 2.195 5.732 1.678.179-1.305.687-2.195 1.25-2.7-4.373-.509-8.97-2.242-8.97-9.979 0-2.204.767-4.006 2.027-5.418-.202-.51-.879-2.563.193-5.343 0 0 1.654-.543 5.415 2.07a18.426 18.426 0 014.931-.68 18.46 18.46 0 014.93.68c3.758-2.613 5.41-2.07 5.41-2.07 1.074 2.779.399 4.831.196 5.343 1.262 1.412 2.023 3.214 2.023 5.418 0 7.757-4.604 9.464-8.991 9.964.708.623 1.337 1.855 1.337 3.74 0 2.699-.026 4.877-.026 5.539 0 .54.356 1.167 1.355.97C46.055 48.98 51.692 41.417 51.692 32.5c0-11.152-8.817-20.192-19.693-20.192-10.874 0-19.691 9.04-19.691 20.192 0 8.92 5.643 16.488 13.468 19.158.984.184 1.344-.44 1.344-.973z" fill="#fff"/></g></svg>