<svg xmlns="http://www.w3.org/2000/svg" height="64" width="64"><g fill="none" fill-rule="evenodd"><path d="M3.196 0h57.608A3.193 3.193 0 0164 3.196v57.608A3.193 3.193 0 0160.804 64H3.196A3.193 3.193 0 010 60.804V3.196A3.193 3.193 0 013.196 0z" fill="#1a1a1a"/><path d="M32.076 49.302a17.43 17.43 0 01-8.411-2.148l-9.634 3.061 3.14-9.264a17.09 17.09 0 01-2.496-8.915c0-9.536 7.79-17.267 17.401-17.267 9.61 0 17.4 7.73 17.4 17.267 0 9.536-7.79 17.266-17.4 17.266zm0-31.783c-8.068 0-14.63 6.512-14.63 14.517 0 3.176 1.036 6.118 2.787 8.511l-1.828 5.391 5.622-1.787a14.622 14.622 0 008.049 2.402c8.066 0 14.63-6.512 14.63-14.517 0-8.004-6.564-14.517-14.63-14.517zm8.787 18.494c-.107-.177-.392-.283-.818-.494-.426-.212-2.524-1.236-2.914-1.377-.392-.14-.677-.212-.96.212-.285.423-1.102 1.376-1.351 1.659-.25.282-.498.318-.924.106-.427-.212-1.801-.659-3.43-2.1-1.269-1.122-2.125-2.507-2.373-2.931-.25-.424-.027-.652.187-.863.192-.19.426-.494.64-.741.213-.248.284-.424.426-.706.142-.283.071-.53-.036-.742-.106-.212-.96-2.294-1.315-3.142-.355-.847-.71-.706-.96-.706-.248 0-.533-.035-.817-.035-.284 0-.747.106-1.138.53-.39.423-1.492 1.447-1.492 3.53 0 2.082 1.528 4.094 1.741 4.376.214.282 2.95 4.695 7.286 6.39 4.338 1.694 4.338 1.129 5.12 1.058.78-.07 2.522-1.023 2.879-2.012.355-.988.355-1.836.249-2.012z" fill="#fff"/></g></svg>