<svg xmlns="http://www.w3.org/2000/svg" width="64" height="64"><defs/><g fill="none" fill-rule="evenodd"><path fill="#e94c89" d="M21 18.9l-2.7-3.3s.9-2.3 3-4.1c-9-4-21.5 1-21.3-2.3.5-7.5 16.3-9.5 22.6 1 1.3-.7 3-1 5-1l3 3.4A24.9 24.9 0 1121 19zM1 9C.9 10.8 12 7 21.9 10.7c-3.8-6.5-12-7-12.7-6.9-.7 0-7.8.7-8.2 5.3zm0 0"/><path fill="#fff" fill-opacity=".3" d="M35.2 26.3L34 29.9l4.4 4.4v-6.2zm.4 1.2l-.7 2 2.9 3.2-.2-4.3zm7.5-1.1L39.8 28v6.2l4.4-4.3zm5.6 5.6L45 31l-4.4 4.4h6.2zm0 8l-1.8-3.4h-6.2l4.3 4.5zm-5.8 5.5l1.2-3.5-4.4-4.5v6.3zm-7.9 0l3.3-1.7v-6.3L34 42zm-5.6-5.7l3.6 1.1 4.4-4.3-6.2-.1zm.1-8l1.7 3.4h6.3L33 30.8zm13.1-4.3l-2 1-.2 4.2 3-3.1zm5 5l-2.1-.7-3.2 2.8 4.2-.2zm-.1 7l-1-2-4.2-.2 3.1 2.9zm-5 4.9l.7-2-2.8-3.3.1 4.3zm-7 0l2-1 .2-4.3-2.9 3.2zm-4.9-5l2 .7 3.2-2.9-4.2.2zm0-7l1 2 4.3.2-3.2-3zm0 0M39 17a1 1 0 100-2 1 1 0 000 2zm13.5 5.5A1 1 0 1054 21a1 1 0 00-1.4 1.4zM58.1 36a1 1 0 102 0 1 1 0 00-2 0zm-5.6 13.4a1 1 0 101.4 1.4 1 1 0 00-1.4-1.4zM39.1 55a1 1 0 100 2 1 1 0 000-2zm-13.5-5.6a1 1 0 10-1.4 1.4 1 1 0 001.4-1.4zM20 36a1 1 0 10-2 0 1 1 0 002 0zm5.6-13.5a1 1 0 10-1.4-1.4 1 1 0 001.4 1.4zm0 0M31.7 29.9s.7.7 1.4 0c.7-.6 0-1.3 0-1.3v-4.8s0-1-1-1-1 1-1 1v2.8l-1.4-1.4v-2.4s0-.5-.5-.5-.5.5-.5.5v1.4l-1-1s-.7-.7-1.4 0c-.7.6 0 1.3 0 1.3l1 1H26s-.4 0-.4.5.4.5.4.5h2.4l1.4 1.5H27s-1 0-1 1c0 .9 1 .9 1 .9zm-2.1 7s1 0 1-1-1-1-1-1l-3.4-3.3s-.7-.7-1.3 0c-.7.7 0 1.4 0 1.4l2 2h-2.1l-1.7-1.7s-.3-.3-.6 0c-.4.3 0 .7 0 .7l1 1H22s-1 0-1 1c0 .9 1 .9 1 .9h1.4l-1 1s-.3.3 0 .6c.4.4.7 0 .7 0l1.7-1.6h2l-2 2s-.6.6 0 1.3c.7.7 1.4 0 1.4 0zm3.4 6.4s.8-.7 0-1.4c-.6-.7-1.3 0-1.3 0h-4.8s-1 0-1 1 1 1 1 1h2.8l-1.4 1.4h-2.4s-.4 0-.4.5.4.5.4.5h1.4l-1 1s-.7.7 0 1.4 1.3 0 1.3 0l1.1-1V49s0 .5.5.5.5-.5.5-.5v-2.3l1.4-1.5V48s0 1 1 1 1-1 1-1zm7 2.1s0-1-1-1c-.9 0-.9 1-.9 1l-3.3 3.4s-.7.6 0 1.3c.6.7 1.3 0 1.3 0l2-2v2l-1.7 1.7s-.3.4 0 .7c.4.4.7 0 .7 0l1-1V53s0 1 1 1 1-1 1-1v-1.5l1 1s.2.4.6 0c.3-.3 0-.7 0-.7L40 50.2v-2l2 2s.7.6 1.4 0c.6-.8 0-1.4 0-1.4zm6.5-3.4l-.1-.1s-.7-.7-1.4 0c-.6.7 0 1.4 0 1.4h.1V48s0 1 1 1 1-1 1-1v-2.8l1.4 1.5V49s0 .5.4.5c.5 0 .5-.5.5-.5v-1.4l1 1s.7.8 1.4 0c.7-.6 0-1.3 0-1.3l-1-1h1.4s.5 0 .5-.5-.5-.5-.5-.5h-2.4L48.4 44h2.8s1 0 1-1-1-1-1-1zm2-7s-1 0-1 1c0 .9 1 .9 1 .9l3.4 3.3s.7.7 1.4 0c.6-.7 0-1.3 0-1.3l-2-2h2l1.7 1.6s.3.4.7 0c.3-.3 0-.6 0-.6l-1-1h1.5s1 0 1-1-1-1-1-1h-1.5l1-1s.3-.3 0-.6c-.4-.3-.7 0-.7 0L53.3 35h-2l2-2s.6-.7 0-1.4c-.7-.7-1.4 0-1.4 0zm-3.4-6.5s-.7.8 0 1.4c.6.7 1.3 0 1.3 0h4.8s1 0 1-1-1-1-1-1h-2.8l1.4-1.4h2.4s.5 0 .5-.5c0-.4-.5-.4-.5-.4h-1.4l1-1s.7-.8 0-1.4c-.7-.7-1.3 0-1.3 0l-1 1v-1.4s0-.5-.6-.5c-.4 0-.4.5-.4.5v2.4L47 26.6v-2.8s0-1-1-1c-.9 0-.9 1-.9 1zm-7-2s0 1 1 1 1-1 1-1l3.3-3.4s.6-.7 0-1.4c-.7-.7-1.4 0-1.4 0l-2 2v-2l1.7-1.7s.3-.3 0-.7c-.4-.3-.7 0-.7 0l-1 1v-1.5s0-1-1-1c-.9 0-.9 1-.9 1v1.5l-1-1s-.3-.3-.7 0c-.3.4 0 .7 0 .7l1.7 1.7v2l-2-2s-.7-.7-1.3 0c-.7.7 0 1.4 0 1.4zm0 0"/></g><path fill="#fff" stroke-width=".9" d="M39.1 49.8a14 14 0 110-28 14 14 0 010 28zm11.9-12a17.5 17.5 0 00-7.5-.6c1.6 4.4 2.2 8 2.3 8.6a12 12 0 005.2-8zm-7.2 9a50 50 0 00-2.6-9c-7 2.4-9.3 7.1-9.5 7.6a12 12 0 0012 1.6zm-13.6-3a19 19 0 0110.2-8l-1-2c-5.9 1.7-11.8 1.7-12.2 1.7v.3c0 3 1.1 5.9 3 8zm-2.8-10.4c.5 0 5.5 0 11.1-1.4-2-3.6-4.2-6.6-4.5-7a12 12 0 00-6.6 8.4zm9-9.3a64 64 0 014.4 7c4.3-1.5 6.1-4 6.3-4.2a12 12 0 00-10.8-2.7zm12 4.2c-.2.3-2.3 2.9-6.7 4.7a37.7 37.7 0 011 2.4c4-.6 8 .2 8.4.3 0-2.8-1-5.4-2.7-7.4z"/></svg>